ply
format ascii 1.0
comment VCGLIB generated
comment TextureFile moving_parts.png
element vertex 270
property float x
property float y
property float z
property float nx
property float ny
property float nz
property uchar red
property uchar green
property uchar blue
property uchar alpha
property float texture_u
property float texture_v
element face 120
property list uchar int vertex_indices
end_header
0.666549 0.05614102 -1.298607 0 0.5000028 -0.8660238 255 255 255 255 0.275875 0.997205
0.666549 0.02957202 -1.305727 0 0.2588302 -0.9659228 255 255 255 255 0.270586 0.997205
0.577167 0.02957202 -1.305727 0 0.2588302 -0.9659228 255 255 255 255 0.270586 0.977658
0.577167 0.05614102 -1.298607 0 0.5000028 -0.8660238 255 255 255 255 0.275875 0.977658
0.666549 0.07559201 -1.279157 0 0.8660238 -0.5000028 255 255 255 255 0.281165 0.997205
0.577167 0.07559201 -1.279157 0 0.8660238 -0.5000028 255 255 255 255 0.281165 0.977658
0.666549 0.08271102 -1.252589 0 0.9659228 -0.2588302 255 255 255 255 0.286456 0.997205
0.577167 0.08271102 -1.252589 0 0.9659228 -0.2588302 255 255 255 255 0.286456 0.977658
0.666549 0.07559201 -1.226016 0 0.9659304 0.2588022 255 255 255 255 0.291629 0.997205
0.666549 0.08271102 -1.252589 0 0.9659304 0.2588022 255 255 255 255 0.286456 0.997205
0.577167 0.08271102 -1.252589 0 0.9659304 0.2588022 255 255 255 255 0.286456 0.977658
0.577167 0.07559201 -1.226016 0 0.9659304 0.2588022 255 255 255 255 0.291629 0.977658
0.666549 0.05614102 -1.206566 0 0.7071068 0.7071068 255 255 255 255 0.296918 0.997205
0.666549 0.07559201 -1.226016 0 0.7071068 0.7071068 255 255 255 255 0.291629 0.997205
0.577167 0.07559201 -1.226016 0 0.7071068 0.7071068 255 255 255 255 0.291629 0.977658
0.577167 0.05614102 -1.206566 0 0.7071068 0.7071068 255 255 255 255 0.296918 0.977658
0.666549 0.02957202 -1.199448 0 -1.192488e-08 1 255 255 255 255 0.302207 0.997205
0.666549 0.05614102 -1.206566 0 0.2587733 0.9659381 255 255 255 255 0.296918 0.997205
0.577167 0.05614102 -1.206566 0 0.2588022 0.9659304 255 255 255 255 0.296918 0.977658
0.577167 0.02957202 -1.199448 0 -1.192488e-08 1 255 255 255 255 0.302207 0.977658
0.666549 0.003002014 -1.206566 0 -0.4999661 0.866045 255 255 255 255 0.307496 0.997205
0.577167 0.003002014 -1.206566 0 -0.4999661 0.866045 255 255 255 255 0.307496 0.977658
0.666549 -0.01644899 -1.226016 0 -0.7070913 0.7071223 255 255 255 255 0.312787 0.997205
0.577167 -0.01644899 -1.226016 0 -0.7070913 0.7071223 255 255 255 255 0.312787 0.977658
0.666549 -0.02356899 -1.252589 0 -0.9659304 0.2588022 255 255 255 255 0.318075 0.997205
0.666549 -0.01644899 -1.226016 0 -0.9659304 0.2588022 255 255 255 255 0.312787 0.997205
0.577167 -0.01644899 -1.226016 0 -0.9659304 0.2588022 255 255 255 255 0.312787 0.977658
0.577167 -0.02356899 -1.252589 0 -0.9659304 0.2588022 255 255 255 255 0.318075 0.977658
0.666549 -0.01644899 -1.279157 0 -0.9659228 -0.2588302 255 255 255 255 0.323364 0.997205
0.666549 -0.02356899 -1.252589 0 -0.9659228 -0.2588302 255 255 255 255 0.318075 0.997205
0.577167 -0.02356899 -1.252589 0 -0.9659228 -0.2588302 255 255 255 255 0.318075 0.977658
0.577167 -0.01644899 -1.279157 0 -0.9659228 -0.2588302 255 255 255 255 0.323364 0.977658
0.666549 0.003002016 -1.298607 0 -0.4999894 -0.8660315 255 255 255 255 0.265298 0.997205
0.666549 -0.01644899 -1.279157 0 -0.7070763 -0.7071373 255 255 255 255 0.260007 0.997205
0.577167 -0.01644899 -1.279157 0 -0.7070763 -0.7071373 255 255 255 255 0.260007 0.977658
0.577167 -0.01644899 -1.279157 0 -0.7070763 -0.7071373 255 255 255 255 0.260007 0.977658
0.577167 0.003002016 -1.298607 0 -0.4999894 -0.8660315 255 255 255 255 0.265298 0.977658
0.666549 0.02957202 -1.305727 0 -0.2588302 -0.9659228 255 255 255 255 0.270586 0.997205
0.577167 0.02957202 -1.305727 0 -0.2588302 -0.9659228 255 255 255 255 0.270586 0.977658
0.67474 0.006356015 -1.292797 1 0 0 255 255 255 255 0.240581 0.992465
0.67474 0.02957202 -1.299016 1 0 0 255 255 255 255 0.239199 0.987290
0.67474 0.05278601 -1.292797 1 0 0 255 255 255 255 0.240581 0.982345
0.67474 0.06978001 -1.275802 1 0 0 255 255 255 255 0.244375 0.978665
0.67474 0.07600001 -1.252589 1 0 0 255 255 255 255 0.249434 0.977284
0.67474 0.06978001 -1.229373 1 0 0 255 255 255 255 0.254490 0.978665
0.67474 0.05278601 -1.21238 1 0 0 255 255 255 255 0.258172 0.982460
0.67474 0.02957202 -1.206159 1 0 0 255 255 255 255 0.259438 0.987517
0.67474 0.006357015 -1.21238 1 0 0 255 255 255 255 0.258058 0.992578
0.67474 -0.01063699 -1.229373 1 0 0 255 255 255 255 0.254378 0.996259
0.67474 -0.01685799 -1.252589 1 0 0 255 255 255 255 0.249318 0.997523
0.67474 -0.01063699 -1.275802 1 0 0 255 255 255 255 0.244257 0.996144
0.67474 0.05278601 -1.292797 0.6206043 0.2028904 -0.7574205 255 255 255 255 0.236837 0.987480
0.67474 0.02957202 -1.299016 0.6206043 0.2028904 -0.7574205 255 255 255 255 0.231779 0.987480
0.666549 0.02957202 -1.305727 0.6206043 0.2028904 -0.7574205 255 255 255 255 0.231779 0.985642
0.666549 0.02957202 -1.305727 0.6204891 0.2029846 -0.7574897 255 255 255 255 0.231779 0.985642
0.666549 0.05614102 -1.298607 0.6204891 0.2029846 -0.7574897 255 255 255 255 0.237527 0.985642
0.67474 0.05278601 -1.292797 0.6204891 0.2029846 -0.7574897 255 255 255 255 0.236837 0.987480
0.67474 0.06978001 -1.275802 0.6205199 0.5545371 -0.554476 255 255 255 255 0.237413 0.985410
0.67474 0.05278601 -1.292797 0.6205199 0.5545371 -0.554476 255 255 255 255 0.232124 0.985297
0.666549 0.05614102 -1.298607 0.6205199 0.5545371 -0.554476 255 255 255 255 0.231779 0.982996
0.666549 0.05614102 -1.298607 0.6205784 0.5544738 -0.5544738 255 255 255 255 0.231779 0.982996
0.666549 0.07559201 -1.279157 0.6205784 0.5544738 -0.5544738 255 255 255 255 0.237759 0.983112
0.67474 0.06978001 -1.275802 0.6205784 0.5544738 -0.5544738 255 255 255 255 0.237413 0.985410
0.67474 0.07600001 -1.252589 0.6205445 0.7574531 -0.2029518 255 255 255 255 0.231663 0.982766
0.67474 0.06978001 -1.275802 0.6205445 0.7574531 -0.2029518 255 255 255 255 0.226605 0.982766
0.666549 0.07559201 -1.279157 0.6205445 0.7574531 -0.2029518 255 255 255 255 0.225915 0.980925
0.666549 0.07559201 -1.279157 0.6205775 0.7574258 -0.2029528 255 255 255 255 0.225915 0.980925
0.666549 0.08271102 -1.252589 0.6205775 0.7574258 -0.2029528 255 255 255 255 0.231663 0.980925
0.67474 0.07600001 -1.252589 0.6205775 0.7574258 -0.2029528 255 255 255 255 0.231663 0.982766
0.67474 0.06978001 -1.229373 0.6206003 0.7574158 0.2029201 255 255 255 255 0.236721 0.982766
0.67474 0.07600001 -1.252589 0.6206003 0.7574158 0.2029201 255 255 255 255 0.231663 0.982766
0.666549 0.08271102 -1.252589 0.6206003 0.7574158 0.2029201 255 255 255 255 0.231663 0.980925
0.666549 0.08271102 -1.252589 0.6205813 0.7574304 0.202924 255 255 255 255 0.231663 0.980925
0.666549 0.07559201 -1.226016 0.6205813 0.7574304 0.202924 255 255 255 255 0.237527 0.980925
0.67474 0.06978001 -1.229373 0.6205813 0.7574304 0.202924 255 255 255 255 0.236721 0.982766
0.67474 0.05278601 -1.21238 0.6206079 0.5544423 0.5544723 255 255 255 255 0.231435 0.985410
0.67474 0.06978001 -1.229373 0.6206079 0.5544423 0.5544723 255 255 255 255 0.226144 0.985297
0.666549 0.07559201 -1.226016 0.6206079 0.5544423 0.5544723 255 255 255 255 0.225800 0.982996
0.666549 0.07559201 -1.226016 0.6206664 0.5544091 0.5544401 255 255 255 255 0.225800 0.982996
0.666549 0.05614102 -1.206566 0.6206664 0.5544091 0.5544401 255 255 255 255 0.231779 0.983112
0.67474 0.05278601 -1.21238 0.6206664 0.5544091 0.5544401 255 255 255 255 0.231435 0.985410
0.67474 0.02957202 -1.206159 0.6206953 0.2029514 0.7573295 255 255 255 255 0.231779 0.989665
0.67474 0.05278601 -1.21238 0.6206953 0.2029514 0.7573295 255 255 255 255 0.226719 0.989665
0.666549 0.05614102 -1.206566 0.6206953 0.2029514 0.7573295 255 255 255 255 0.226028 0.987826
0.666549 0.05614102 -1.206566 0.6205813 0.202924 0.7574304 255 255 255 255 0.226028 0.987826
0.666549 0.02957202 -1.199448 0.6205813 0.202924 0.7574304 255 255 255 255 0.231779 0.987826
0.67474 0.02957202 -1.206159 0.6205813 0.202924 0.7574304 255 255 255 255 0.231779 0.989665
0.67474 0.006357015 -1.21238 0.6205736 -0.2029825 0.757421 255 255 255 255 0.236837 0.989665
0.67474 0.02957202 -1.206159 0.6205736 -0.2029825 0.757421 255 255 255 255 0.231779 0.989665
0.666549 0.02957202 -1.199448 0.6205736 -0.2029825 0.757421 255 255 255 255 0.231779 0.987826
0.666549 0.02957202 -1.199448 0.6206704 -0.2028921 0.7573659 255 255 255 255 0.231779 0.987826
0.666549 0.003002014 -1.206566 0.6206704 -0.2028921 0.7573659 255 255 255 255 0.237643 0.987826
0.67474 0.006357015 -1.21238 0.6206704 -0.2028921 0.7573659 255 255 255 255 0.236837 0.989665
0.67474 -0.01063699 -1.229373 0.6206664 -0.5544091 0.5544401 255 255 255 255 0.237759 0.994265
0.67474 0.006357015 -1.21238 0.6206664 -0.5544091 0.5544401 255 255 255 255 0.232467 0.994150
0.666549 0.003002014 -1.206566 0.6206664 -0.5544091 0.5544401 255 255 255 255 0.232124 0.991849
0.666549 0.003002014 -1.206566 0.6206664 -0.5544091 0.5544401 255 255 255 255 0.232124 0.991849
0.666549 -0.01644899 -1.226016 0.6206664 -0.5544091 0.5544401 255 255 255 255 0.238102 0.991965
0.67474 -0.01063699 -1.229373 0.6206664 -0.5544091 0.5544401 255 255 255 255 0.237759 0.994265
0.67474 -0.01685799 -1.252589 0.6206437 -0.7573711 0.2029545 255 255 255 255 0.231892 0.991620
0.67474 -0.01063699 -1.229373 0.6206437 -0.7573711 0.2029545 255 255 255 255 0.226834 0.991620
0.666549 -0.01644899 -1.226016 0.6206437 -0.7573711 0.2029545 255 255 255 255 0.226144 0.989896
0.666549 -0.01644899 -1.226016 0.6206145 -0.757403 0.2029247 255 255 255 255 0.226144 0.989896
0.666549 -0.02356899 -1.252589 0.6206145 -0.757403 0.2029247 255 255 255 255 0.231892 0.989896
0.67474 -0.01685799 -1.252589 0.6206145 -0.757403 0.2029247 255 255 255 255 0.231892 0.991620
0.67474 -0.01063699 -1.275802 0.6206068 -0.7573936 -0.2029832 255 255 255 255 0.236953 0.991620
0.67474 -0.01685799 -1.252589 0.6206068 -0.7573936 -0.2029832 255 255 255 255 0.231892 0.991620
0.666549 -0.02356899 -1.252589 0.6206068 -0.7573936 -0.2029832 255 255 255 255 0.231892 0.989896
0.666549 -0.02356899 -1.252589 0.6206291 -0.7573843 -0.2029497 255 255 255 255 0.231892 0.989896
0.666549 -0.01644899 -1.279157 0.6206291 -0.7573843 -0.2029497 255 255 255 255 0.237759 0.989896
0.67474 -0.01063699 -1.275802 0.6206291 -0.7573843 -0.2029497 255 255 255 255 0.236953 0.991620
0.67474 0.006356015 -1.292797 0.6206369 -0.5544717 -0.5544106 255 255 255 255 0.231549 0.994150
0.67474 -0.01063699 -1.275802 0.6206369 -0.5544717 -0.5544106 255 255 255 255 0.226259 0.994150
0.666549 -0.01644899 -1.279157 0.6206369 -0.5544717 -0.5544106 255 255 255 255 0.225915 0.991849
0.666549 -0.01644899 -1.279157 0.6204612 -0.5545089 -0.55457 255 255 255 255 0.225915 0.991849
0.666549 0.003002016 -1.298607 0.6204612 -0.5545089 -0.55457 255 255 255 255 0.231892 0.991965
0.67474 0.006356015 -1.292797 0.6204612 -0.5545089 -0.55457 255 255 255 255 0.231549 0.994150
0.67474 0.02957202 -1.299016 0.6204821 -0.2029213 -0.7575123 255 255 255 255 0.231779 0.987480
0.67474 0.006356015 -1.292797 0.6204821 -0.2029213 -0.7575123 255 255 255 255 0.226719 0.987480
0.666549 0.003002016 -1.298607 0.6204821 -0.2029213 -0.7575123 255 255 255 255 0.225915 0.985642
0.666549 0.003002016 -1.298607 0.6205775 -0.2029528 -0.7574258 255 255 255 255 0.225915 0.985642
0.666549 0.02957202 -1.305727 0.6205775 -0.2029528 -0.7574258 255 255 255 255 0.231779 0.985642
0.67474 0.02957202 -1.299016 0.6205775 -0.2029528 -0.7574258 255 255 255 255 0.231779 0.987480
0.691803 0.02507502 -1.376587 0.838533 -0.5448509 -6.497282e-09 255 255 255 255 0.171937 0.944104
0.691803 0.02507501 -1.128588 0.838533 -0.5448509 -6.497282e-09 255 255 255 255 0.220749 0.944104
0.68595 0.01606901 -1.128588 0.838533 -0.5448509 -6.497282e-09 255 255 255 255 0.220749 0.945748
0.68595 0.01606902 -1.376587 0.838533 -0.5448509 -6.497282e-09 255 255 255 255 0.171937 0.945748
0.675927 0.01222001 -1.128588 0.3584734 -0.9335399 -1.113235e-08 255 255 255 255 0.220749 0.947391
0.675927 0.01222002 -1.376587 0.3584734 -0.9335399 -1.113235e-08 255 255 255 255 0.171937 0.947391
0.68595 0.01606902 -1.376587 0.3584734 -0.9335399 -1.113235e-08 255 255 255 255 0.171937 0.945748
0.68595 0.01606901 -1.128588 0.3584734 -0.9335399 -1.113235e-08 255 255 255 255 0.220749 0.945748
0.675927 0.01222002 -1.376587 -0.2588022 -0.9659304 -1.15186e-08 255 255 255 255 0.171937 0.947391
0.675927 0.01222001 -1.128588 -0.2588022 -0.9659304 -1.15186e-08 255 255 255 255 0.220749 0.947391
0.665555 0.01499901 -1.128588 -0.2588022 -0.9659304 -1.15186e-08 255 255 255 255 0.220749 0.948985
0.665555 0.01499902 -1.376587 -0.2588022 -0.9659304 -1.15186e-08 255 255 255 255 0.171937 0.948985
0.665555 0.01499902 -1.376587 -0.7771901 -0.6292659 -7.503921e-09 255 255 255 255 0.171937 0.948985
0.665555 0.01499901 -1.128588 -0.7771901 -0.6292659 -7.503921e-09 255 255 255 255 0.220749 0.948985
0.658798 0.02334401 -1.128588 -0.7771901 -0.6292659 -7.503921e-09 255 255 255 255 0.220749 0.950580
0.658798 0.02334402 -1.376587 -0.7771901 -0.6292659 -7.503921e-09 255 255 255 255 0.171937 0.950580
0.658798 0.02334402 -1.376587 -0.9986165 -0.05258408 -6.270588e-10 255 255 255 255 0.171937 0.950580
0.658798 0.02334401 -1.128588 -0.9986165 -0.05258408 -6.270588e-10 255 255 255 255 0.220749 0.950580
0.658233 0.03407001 -1.128588 -0.9986165 -0.05258408 -6.270588e-10 255 255 255 255 0.220749 0.952224
0.658233 0.03407001 -1.376587 -0.9986165 -0.05258408 -6.270588e-10 255 255 255 255 0.171937 0.952224
0.664084 0.04307301 -1.128588 -0.8384636 0.5449576 6.498554e-09 255 255 255 255 0.220749 0.953770
0.664084 0.04307301 -1.376587 -0.8384636 0.5449576 6.498554e-09 255 255 255 255 0.171937 0.953770
0.658233 0.03407001 -1.376587 -0.8384636 0.5449576 6.498554e-09 255 255 255 255 0.171937 0.952224
0.658233 0.03407001 -1.128588 -0.8384636 0.5449576 6.498554e-09 255 255 255 255 0.220749 0.952224
0.674109 0.04692201 -1.376587 -0.3584473 0.9335499 1.113247e-08 255 255 255 255 0.171937 0.955365
0.664084 0.04307301 -1.376587 -0.3584473 0.9335499 1.113247e-08 255 255 255 255 0.171937 0.953770
0.664084 0.04307301 -1.128588 -0.3584473 0.9335499 1.113247e-08 255 255 255 255 0.220749 0.953770
0.674109 0.04692201 -1.128588 -0.3584473 0.9335499 1.113247e-08 255 255 255 255 0.220749 0.955365
0.684481 0.04414301 -1.128588 0.2588022 0.9659304 1.15186e-08 255 255 255 255 0.220749 0.940963
0.684481 0.04414301 -1.376587 0.2588022 0.9659304 1.15186e-08 255 255 255 255 0.171937 0.940963
0.674109 0.04692201 -1.376587 0.2588022 0.9659304 1.15186e-08 255 255 255 255 0.171937 0.939416
0.674109 0.04692201 -1.376587 0.2588022 0.9659304 1.15186e-08 255 255 255 255 0.171937 0.939416
0.674109 0.04692201 -1.128588 0.2588022 0.9659304 1.15186e-08 255 255 255 255 0.220749 0.939416
0.691237 0.03579701 -1.376587 0.7772588 0.6291811 7.502909e-09 255 255 255 255 0.171937 0.942557
0.684481 0.04414301 -1.376587 0.7772588 0.6291811 7.502909e-09 255 255 255 255 0.171937 0.940963
0.684481 0.04414301 -1.128588 0.7772588 0.6291811 7.502909e-09 255 255 255 255 0.220749 0.940963
0.691237 0.03579701 -1.128588 0.7772588 0.6291811 7.502909e-09 255 255 255 255 0.220749 0.942557
0.691803 0.02507501 -1.128588 0.9986101 0.05270575 6.285098e-10 255 255 255 255 0.220749 0.944104
0.691803 0.02507502 -1.376587 0.9986101 0.05270575 6.285098e-10 255 255 255 255 0.171937 0.944104
0.691237 0.03579701 -1.376587 0.9986101 0.05270575 6.285098e-10 255 255 255 255 0.171937 0.942557
0.691237 0.03579701 -1.128588 0.9986101 0.05270575 6.285098e-10 255 255 255 255 0.220749 0.942557
0.691803 0.02507501 -1.128588 0 -1.192488e-08 1 255 255 255 255 0.150548 0.934147
0.691237 0.03579701 -1.128588 0 -1.192488e-08 1 255 255 255 255 0.152000 0.934581
0.684481 0.04414301 -1.128588 0 -1.192488e-08 1 255 255 255 255 0.152870 0.935790
0.684481 0.04414301 -1.128588 0 -1.192488e-08 1 255 255 255 255 0.152870 0.935790
0.674109 0.04692201 -1.128588 0 -1.192488e-08 1 255 255 255 255 0.152870 0.937336
0.664084 0.04307301 -1.128588 0 -1.192488e-08 1 255 255 255 255 0.152000 0.938544
0.664084 0.04307301 -1.128588 0 -1.192488e-08 1 255 255 255 255 0.152000 0.938544
0.658233 0.03407001 -1.128588 0 -1.192488e-08 1 255 255 255 255 0.150548 0.938980
0.658798 0.02334401 -1.128588 0 -1.192488e-08 1 255 255 255 255 0.149148 0.938544
0.684481 0.04414301 -1.128588 0 -1.192488e-08 1 255 255 255 255 0.152870 0.935790
0.664084 0.04307301 -1.128588 0 -1.192488e-08 1 255 255 255 255 0.152000 0.938544
0.658798 0.02334401 -1.128588 0 -1.192488e-08 1 255 255 255 255 0.149148 0.938544
0.658798 0.02334401 -1.128588 0 -1.192488e-08 1 255 255 255 255 0.149148 0.938544
0.665555 0.01499901 -1.128588 0 -1.192488e-08 1 255 255 255 255 0.148229 0.937336
0.675927 0.01222001 -1.128588 0 -1.192488e-08 1 255 255 255 255 0.148229 0.935790
0.684481 0.04414301 -1.128588 0 -1.192488e-08 1 255 255 255 255 0.152870 0.935790
0.658798 0.02334401 -1.128588 0 -1.192488e-08 1 255 255 255 255 0.149148 0.938544
0.675927 0.01222001 -1.128588 0 -1.192488e-08 1 255 255 255 255 0.148229 0.935790
0.691803 0.02507501 -1.128588 0 -1.192488e-08 1 255 255 255 255 0.150548 0.934147
0.684481 0.04414301 -1.128588 0 -1.192488e-08 1 255 255 255 255 0.152870 0.935790
0.675927 0.01222001 -1.128588 0 -1.192488e-08 1 255 255 255 255 0.148229 0.935790
0.691803 0.02507501 -1.128588 0 -1.192488e-08 1 255 255 255 255 0.150548 0.934147
0.675927 0.01222001 -1.128588 0 -1.192488e-08 1 255 255 255 255 0.148229 0.935790
0.68595 0.01606901 -1.128588 0 -1.192488e-08 1 255 255 255 255 0.149148 0.934581
0.684481 0.04414301 -1.376587 0 1.192488e-08 -1 255 255 255 255 0.148229 0.935790
0.691237 0.03579701 -1.376587 0 1.192488e-08 -1 255 255 255 255 0.149099 0.934581
0.691803 0.02507502 -1.376587 0 1.192488e-08 -1 255 255 255 255 0.150597 0.934147
0.691803 0.02507502 -1.376587 0 1.192488e-08 -1 255 255 255 255 0.150597 0.934147
0.68595 0.01606902 -1.376587 0 1.192488e-08 -1 255 255 255 255 0.152000 0.934581
0.675927 0.01222002 -1.376587 0 1.192488e-08 -1 255 255 255 255 0.152917 0.935790
0.675927 0.01222002 -1.376587 0 1.192488e-08 -1 255 255 255 255 0.152917 0.935790
0.665555 0.01499902 -1.376587 0 1.192488e-08 -1 255 255 255 255 0.152917 0.937336
0.658798 0.02334402 -1.376587 0 1.192488e-08 -1 255 255 255 255 0.152000 0.938544
0.691803 0.02507502 -1.376587 0 1.192488e-08 -1 255 255 255 255 0.150597 0.934147
0.675927 0.01222002 -1.376587 0 1.192488e-08 -1 255 255 255 255 0.152917 0.935790
0.658798 0.02334402 -1.376587 0 1.192488e-08 -1 255 255 255 255 0.152000 0.938544
0.658798 0.02334402 -1.376587 0 1.192488e-08 -1 255 255 255 255 0.152000 0.938544
0.658233 0.03407001 -1.376587 0 1.192488e-08 -1 255 255 255 255 0.150597 0.938980
0.664084 0.04307301 -1.376587 0 1.192488e-08 -1 255 255 255 255 0.149099 0.938544
0.691803 0.02507502 -1.376587 0 1.192488e-08 -1 255 255 255 255 0.150597 0.934147
0.658798 0.02334402 -1.376587 0 1.192488e-08 -1 255 255 255 255 0.152000 0.938544
0.664084 0.04307301 -1.376587 0 1.192488e-08 -1 255 255 255 255 0.149099 0.938544
0.684481 0.04414301 -1.376587 0 1.192488e-08 -1 255 255 255 255 0.148229 0.935790
0.691803 0.02507502 -1.376587 0 1.192488e-08 -1 255 255 255 255 0.150597 0.934147
0.664084 0.04307301 -1.376587 0 1.192488e-08 -1 255 255 255 255 0.149099 0.938544
0.684481 0.04414301 -1.376587 0 1.192488e-08 -1 255 255 255 255 0.148229 0.935790
0.664084 0.04307301 -1.376587 0 1.192488e-08 -1 255 255 255 255 0.149099 0.938544
0.674109 0.04692201 -1.376587 0 1.192488e-08 -1 255 255 255 255 0.148229 0.937336
0.875935 -0.01703299 -1.079995 0.259259 0.965804 0.002716054 255 255 255 255 0.221565 0.909286
0.876308 -0.01618098 -1.417529 0.259259 0.965804 0.002716054 255 255 255 255 0.266327 0.909286
0.687991 0.03421101 -1.360051 0.259259 0.965804 0.002716054 255 255 255 255 0.258921 0.932078
0.687745 0.03365102 -1.137634 0.259259 0.965804 0.002716054 255 255 255 255 0.228230 0.932160
0.919296 -0.02867299 -1.079977 0.259259 0.965804 0.002716054 255 255 255 255 0.221565 0.904020
0.919668 -0.02782198 -1.417511 0.259259 0.965804 0.002716054 255 255 255 255 0.266327 0.904020
1.352596 -0.144648 -1.203418 0.259259 0.965804 0.002716054 255 255 255 255 0.238021 0.851690
1.352697 -0.144421 -1.293697 0.259259 0.9658041 0.002686054 255 255 255 255 0.249870 0.851607
0.872475 -0.02991799 -1.080031 -0.259259 -0.965804 -0.002716054 255 255 255 255 0.221565 0.909286
0.684286 0.02076501 -1.137671 -0.259259 -0.965804 -0.002716054 255 255 255 255 0.228230 0.932160
0.684532 0.02132502 -1.360087 -0.259259 -0.965804 -0.002716054 255 255 255 255 0.258921 0.932078
0.872849 -0.02906698 -1.417566 -0.259259 -0.965804 -0.002716054 255 255 255 255 0.266327 0.909286
0.915836 -0.04155899 -1.080013 -0.259259 -0.965804 -0.002716054 255 255 255 255 0.221565 0.904020
0.91621 -0.04070798 -1.417547 -0.259259 -0.965804 -0.002716054 255 255 255 255 0.266327 0.904020
1.349137 -0.157533 -1.203455 -0.259259 -0.965804 -0.002716054 255 255 255 255 0.238021 0.851690
1.349238 -0.157307 -1.293733 -0.259259 -0.9658041 -0.002686054 255 255 255 255 0.249870 0.851607
0.872849 -0.02906698 -1.417566 -0.2724716 0.07577774 -0.9591752 255 255 255 255 0.269865 0.873082
0.684532 0.02132502 -1.360087 -0.2724716 0.07577774 -0.9591752 255 255 255 255 0.269865 0.851443
0.687991 0.03421101 -1.360051 -0.2724716 0.07577774 -0.9591752 255 255 255 255 0.271839 0.851443
0.687991 0.03421101 -1.360051 -0.2724426 0.07583901 -0.9591786 255 255 255 255 0.271839 0.851443
0.876308 -0.01618098 -1.417529 -0.2724426 0.07583901 -0.9591786 255 255 255 255 0.271921 0.873082
0.872849 -0.02906698 -1.417566 -0.2724426 0.07583901 -0.9591786 255 255 255 255 0.269865 0.873082
0.684286 0.02076501 -1.137671 -0.2745796 0.07101818 0.9589382 255 255 255 255 0.267561 0.932490
0.872475 -0.02991799 -1.080031 -0.2745796 0.07101818 0.9589382 255 255 255 255 0.267643 0.908875
0.875935 -0.01703299 -1.079995 -0.2745796 0.07101818 0.9589382 255 255 255 255 0.269700 0.908875
0.875935 -0.01703299 -1.079995 -0.2745808 0.07095748 0.9589424 255 255 255 255 0.269700 0.908875
0.687745 0.03365102 -1.137634 -0.2745808 0.07095748 0.9589424 255 255 255 255 0.269618 0.932490
0.684286 0.02076501 -1.137671 -0.2745808 0.07095748 0.9589424 255 255 255 255 0.267561 0.932490
0.91621 -0.04070798 -1.417547 0.00109903 0.002533081 -0.9999962 255 255 255 255 0.269865 0.878266
0.872849 -0.02906698 -1.417566 0.00109903 0.002533081 -0.9999962 255 255 255 255 0.269865 0.873082
0.876308 -0.01618098 -1.417529 0.00109903 0.002533081 -0.9999962 255 255 255 255 0.271921 0.873082
0.876308 -0.01618098 -1.417529 0.001068029 0.00250308 -0.9999963 255 255 255 255 0.271921 0.873082
0.919668 -0.02782198 -1.417511 0.001068029 0.00250308 -0.9999963 255 255 255 255 0.271921 0.878266
0.91621 -0.04070798 -1.417547 0.001068029 0.00250308 -0.9999963 255 255 255 255 0.269865 0.878266
0.872475 -0.02991799 -1.080031 -0.00109903 -0.00250308 0.9999963 255 255 255 255 0.267643 0.908875
0.915836 -0.04155899 -1.080013 -0.00109903 -0.00250308 0.9999963 255 255 255 255 0.267643 0.903691
0.919296 -0.02867299 -1.079977 -0.00109903 -0.00250308 0.9999963 255 255 255 255 0.269700 0.903691
0.919296 -0.02867299 -1.079977 -0.00109903 -0.002472079 0.9999964 255 255 255 255 0.269700 0.903691
0.875935 -0.01703299 -1.079995 -0.00109903 -0.002472079 0.9999964 255 255 255 255 0.269700 0.908875
0.872475 -0.02991799 -1.080031 -0.00109903 -0.002472079 0.9999964 255 255 255 255 0.267643 0.908875
1.349238 -0.157307 -1.293733 0.2577009 -0.06643973 -0.9639378 255 255 255 255 0.270029 0.932490
0.91621 -0.04070798 -1.417547 0.2577009 -0.06643973 -0.9639378 255 255 255 255 0.269865 0.878266
0.919668 -0.02782198 -1.417511 0.2577009 -0.06643973 -0.9639378 255 255 255 255 0.271921 0.878266
0.919668 -0.02782198 -1.417511 0.2577009 -0.06643973 -0.9639378 255 255 255 255 0.271921 0.878266
1.352697 -0.144421 -1.293697 0.2577009 -0.06643973 -0.9639378 255 255 255 255 0.272086 0.932490
1.349238 -0.157307 -1.293733 0.2577009 -0.06643973 -0.9639378 255 255 255 255 0.270029 0.932490
1.349137 -0.157533 -1.203455 0.9658152 -0.259231 0.0003970077 255 255 255 255 0.265092 0.932572
1.349238 -0.157307 -1.293733 0.9658152 -0.259231 0.0003970077 255 255 255 255 0.265092 0.918831
1.352697 -0.144421 -1.293697 0.9658152 -0.259231 0.0003970077 255 255 255 255 0.267067 0.918831
1.352697 -0.144421 -1.293697 0.9658075 -0.2592599 0.0003970045 255 255 255 255 0.267067 0.918831
1.352596 -0.144648 -1.203418 0.9658075 -0.2592599 0.0003970045 255 255 255 255 0.267067 0.932572
1.349137 -0.157533 -1.203455 0.9658075 -0.2592599 0.0003970045 255 255 255 255 0.265092 0.932572
0.915836 -0.04155899 -1.080013 0.2555657 -0.07135306 0.9641551 255 255 255 255 0.267643 0.903691
1.349137 -0.157533 -1.203455 0.2555657 -0.07135306 0.9641551 255 255 255 255 0.267807 0.853829
1.352596 -0.144648 -1.203418 0.2555657 -0.07135306 0.9641551 255 255 255 255 0.269865 0.853829
1.352596 -0.144648 -1.203418 0.2555668 -0.07129236 0.9641593 255 255 255 255 0.269865 0.853829
0.919296 -0.02867299 -1.079977 0.2555668 -0.07129236 0.9641593 255 255 255 255 0.269700 0.903691
0.915836 -0.04155899 -1.080013 0.2555668 -0.07129236 0.9641593 255 255 255 255 0.267643 0.903691
3 0 1 2 
3 2 3 0 
3 4 0 3 
3 3 5 4 
3 6 4 5 
3 5 7 6 
3 8 9 10 
3 10 11 8 
3 12 13 14 
3 14 15 12 
3 16 17 18 
3 18 19 16 
3 20 16 19 
3 19 21 20 
3 22 20 21 
3 21 23 22 
3 24 25 26 
3 26 27 24 
3 28 29 30 
3 30 31 28 
3 32 33 34 
3 35 36 32 
3 37 32 36 
3 36 38 37 
3 39 40 41 
3 41 42 43 
3 43 44 45 
3 41 43 45 
3 45 46 47 
3 47 48 49 
3 45 47 49 
3 41 45 49 
3 39 41 49 
3 39 49 50 
3 51 52 53 
3 54 55 56 
3 57 58 59 
3 60 61 62 
3 63 64 65 
3 66 67 68 
3 69 70 71 
3 72 73 74 
3 75 76 77 
3 78 79 80 
3 81 82 83 
3 84 85 86 
3 87 88 89 
3 90 91 92 
3 93 94 95 
3 96 97 98 
3 99 100 101 
3 102 103 104 
3 105 106 107 
3 108 109 110 
3 111 112 113 
3 114 115 116 
3 117 118 119 
3 120 121 122 
3 123 124 125 
3 125 126 123 
3 127 128 129 
3 129 130 127 
3 131 132 133 
3 133 134 131 
3 135 136 137 
3 137 138 135 
3 139 140 141 
3 141 142 139 
3 143 144 145 
3 145 146 143 
3 147 148 149 
3 149 150 147 
3 151 152 153 
3 154 155 151 
3 156 157 158 
3 158 159 156 
3 160 161 162 
3 162 163 160 
3 164 165 166 
3 167 168 169 
3 170 171 172 
3 173 174 175 
3 176 177 178 
3 179 180 181 
3 182 183 184 
3 185 186 187 
3 188 189 190 
3 191 192 193 
3 194 195 196 
3 197 198 199 
3 200 201 202 
3 203 204 205 
3 206 207 208 
3 209 210 211 
3 212 213 214 
3 214 215 212 
3 216 217 213 
3 213 212 216 
3 218 219 217 
3 217 216 218 
3 220 221 222 
3 222 223 220 
3 224 220 223 
3 223 225 224 
3 226 224 225 
3 225 227 226 
3 228 229 230 
3 231 232 233 
3 234 235 236 
3 237 238 239 
3 240 241 242 
3 243 244 245 
3 246 247 248 
3 249 250 251 
3 252 253 254 
3 255 256 257 
3 258 259 260 
3 261 262 263 
3 264 265 266 
3 267 268 269 
