ply
format ascii 1.0
comment VCGLIB generated
comment TextureFile moving_parts.png
element vertex 270
property float x
property float y
property float z
property float nx
property float ny
property float nz
property uchar red
property uchar green
property uchar blue
property uchar alpha
property float texture_u
property float texture_v
element face 120
property list uchar int vertex_indices
end_header
-0.666549 0.05614102 -1.298607 0 0.5000028 -0.8660238 255 255 255 255 0.374263 0.956089
-0.577167 0.05614102 -1.298607 0 0.5000028 -0.8660238 255 255 255 255 0.374263 0.936542
-0.577167 0.02957202 -1.305727 0 0.2588302 -0.9659228 255 255 255 255 0.368974 0.936542
-0.666549 0.02957202 -1.305727 0 0.2588302 -0.9659228 255 255 255 255 0.368974 0.956089
-0.666549 0.07559201 -1.279157 0 0.8660238 -0.5000028 255 255 255 255 0.379552 0.956089
-0.577167 0.07559201 -1.279157 0 0.8660238 -0.5000028 255 255 255 255 0.379552 0.936542
-0.666549 0.08271102 -1.252589 0 0.9659228 -0.2588302 255 255 255 255 0.384843 0.956089
-0.577167 0.08271102 -1.252589 0 0.9659228 -0.2588302 255 255 255 255 0.384843 0.936542
-0.666549 0.07559201 -1.226016 0 0.9659304 0.2588022 255 255 255 255 0.390017 0.956089
-0.577167 0.07559201 -1.226016 0 0.9659304 0.2588022 255 255 255 255 0.390017 0.936542
-0.577167 0.08271102 -1.252589 0 0.9659304 0.2588022 255 255 255 255 0.384843 0.936542
-0.666549 0.08271102 -1.252589 0 0.9659304 0.2588022 255 255 255 255 0.384843 0.956089
-0.666549 0.05614102 -1.206566 0 0.7071068 0.7071068 255 255 255 255 0.395306 0.956089
-0.577167 0.05614102 -1.206566 0 0.7071068 0.7071068 255 255 255 255 0.395306 0.936542
-0.577167 0.07559201 -1.226016 0 0.7071068 0.7071068 255 255 255 255 0.390017 0.936542
-0.666549 0.07559201 -1.226016 0 0.7071068 0.7071068 255 255 255 255 0.390017 0.956089
-0.666549 0.02957202 -1.199448 0 -1.192488e-08 1 255 255 255 255 0.400594 0.956089
-0.577167 0.02957202 -1.199448 0 -1.192488e-08 1 255 255 255 255 0.400594 0.936542
-0.577167 0.05614102 -1.206566 0 0.2587733 0.9659381 255 255 255 255 0.395306 0.936542
-0.666549 0.05614102 -1.206566 0 0.2587733 0.9659381 255 255 255 255 0.395306 0.956089
-0.666549 0.003002014 -1.206566 0 -0.4999661 0.866045 255 255 255 255 0.405884 0.956089
-0.577167 0.003002014 -1.206566 0 -0.4999661 0.866045 255 255 255 255 0.405884 0.936542
-0.666549 -0.01644899 -1.226016 0 -0.7070763 0.7071373 255 255 255 255 0.411174 0.956089
-0.577167 -0.01644899 -1.226016 0 -0.7070913 0.7071223 255 255 255 255 0.411174 0.936542
-0.666549 -0.02356899 -1.252589 0 -0.9659304 0.2588022 255 255 255 255 0.416463 0.956089
-0.577167 -0.02356899 -1.252589 0 -0.9659304 0.2588022 255 255 255 255 0.416463 0.936542
-0.577167 -0.01644899 -1.226016 0 -0.9659304 0.2588022 255 255 255 255 0.411174 0.936542
-0.666549 -0.01644899 -1.226016 0 -0.9659304 0.2588022 255 255 255 255 0.411174 0.956089
-0.666549 -0.01644899 -1.279157 0 -0.9659228 -0.2588302 255 255 255 255 0.421752 0.956089
-0.577167 -0.01644899 -1.279157 0 -0.9659228 -0.2588302 255 255 255 255 0.421752 0.936542
-0.577167 -0.02356899 -1.252589 0 -0.9659228 -0.2588302 255 255 255 255 0.416463 0.936542
-0.666549 -0.02356899 -1.252589 0 -0.9659228 -0.2588302 255 255 255 255 0.416463 0.956089
-0.666549 0.003002016 -1.298607 0 -0.4999894 -0.8660315 255 255 255 255 0.363686 0.956089
-0.577167 0.003002016 -1.298607 0 -0.4999894 -0.8660315 255 255 255 255 0.363686 0.936542
-0.577167 -0.01644899 -1.279157 0 -0.7070763 -0.7071373 255 255 255 255 0.358394 0.936542
-0.577167 -0.01644899 -1.279157 0 -0.7070763 -0.7071373 255 255 255 255 0.358394 0.936542
-0.666549 -0.01644899 -1.279157 0 -0.7070763 -0.7071373 255 255 255 255 0.358394 0.956089
-0.666549 0.02957202 -1.305727 0 -0.2588302 -0.9659228 255 255 255 255 0.368974 0.956089
-0.577167 0.02957202 -1.305727 0 -0.2588302 -0.9659228 255 255 255 255 0.368974 0.936542
-0.67474 0.006356015 -1.292797 -1 0 0 255 255 255 255 0.338968 0.951349
-0.67474 -0.01063699 -1.275802 -1 0 0 255 255 255 255 0.342645 0.955029
-0.67474 -0.01685799 -1.252589 -1 0 0 255 255 255 255 0.347705 0.956408
-0.67474 -0.01063699 -1.229373 -1 0 0 255 255 255 255 0.352766 0.955144
-0.67474 0.006357015 -1.21238 -1 0 0 255 255 255 255 0.356445 0.951462
-0.67474 0.02957202 -1.206159 -1 0 0 255 255 255 255 0.357826 0.946402
-0.67474 0.05278601 -1.21238 -1 0 0 255 255 255 255 0.356559 0.941344
-0.67474 0.06978001 -1.229373 -1 0 0 255 255 255 255 0.352879 0.937549
-0.67474 0.07600001 -1.252589 -1 0 0 255 255 255 255 0.347821 0.936168
-0.67474 0.06978001 -1.275802 -1 0 0 255 255 255 255 0.342763 0.937549
-0.67474 0.05278601 -1.292797 -1 0 0 255 255 255 255 0.338968 0.941229
-0.67474 0.02957202 -1.299016 -1 0 0 255 255 255 255 0.337587 0.946175
-0.67474 0.05278601 -1.292797 -0.6204891 0.2029846 -0.7574897 255 255 255 255 0.335226 0.946365
-0.666549 0.05614102 -1.298607 -0.6204891 0.2029846 -0.7574897 255 255 255 255 0.335915 0.944526
-0.666549 0.02957202 -1.305727 -0.6204891 0.2029846 -0.7574897 255 255 255 255 0.330167 0.944526
-0.666549 0.02957202 -1.305727 -0.6206043 0.2028904 -0.7574205 255 255 255 255 0.330167 0.944526
-0.67474 0.02957202 -1.299016 -0.6206043 0.2028904 -0.7574205 255 255 255 255 0.330167 0.946365
-0.67474 0.05278601 -1.292797 -0.6206043 0.2028904 -0.7574205 255 255 255 255 0.335226 0.946365
-0.67474 0.06978001 -1.275802 -0.6205784 0.5544738 -0.5544738 255 255 255 255 0.335800 0.944295
-0.666549 0.07559201 -1.279157 -0.6205784 0.5544738 -0.5544738 255 255 255 255 0.336146 0.941997
-0.666549 0.05614102 -1.298607 -0.6205784 0.5544738 -0.5544738 255 255 255 255 0.330167 0.941881
-0.666549 0.05614102 -1.298607 -0.6205199 0.5545371 -0.554476 255 255 255 255 0.330167 0.941881
-0.67474 0.05278601 -1.292797 -0.6205199 0.5545371 -0.554476 255 255 255 255 0.330511 0.944182
-0.67474 0.06978001 -1.275802 -0.6205199 0.5545371 -0.554476 255 255 255 255 0.335800 0.944295
-0.67474 0.07600001 -1.252589 -0.6205775 0.7574258 -0.2029528 255 255 255 255 0.330050 0.941650
-0.666549 0.08271102 -1.252589 -0.6205775 0.7574258 -0.2029528 255 255 255 255 0.330050 0.939809
-0.666549 0.07559201 -1.279157 -0.6205775 0.7574258 -0.2029528 255 255 255 255 0.324303 0.939809
-0.666549 0.07559201 -1.279157 -0.6205445 0.7574531 -0.2029518 255 255 255 255 0.324303 0.939809
-0.67474 0.06978001 -1.275802 -0.6205445 0.7574531 -0.2029518 255 255 255 255 0.324992 0.941650
-0.67474 0.07600001 -1.252589 -0.6205445 0.7574531 -0.2029518 255 255 255 255 0.330050 0.941650
-0.67474 0.06978001 -1.229373 -0.6205813 0.7574304 0.202924 255 255 255 255 0.335110 0.941650
-0.666549 0.07559201 -1.226016 -0.6205813 0.7574304 0.202924 255 255 255 255 0.335915 0.939809
-0.666549 0.08271102 -1.252589 -0.6205813 0.7574304 0.202924 255 255 255 255 0.330050 0.939809
-0.666549 0.08271102 -1.252589 -0.6206003 0.7574158 0.2029201 255 255 255 255 0.330050 0.939809
-0.67474 0.07600001 -1.252589 -0.6206003 0.7574158 0.2029201 255 255 255 255 0.330050 0.941650
-0.67474 0.06978001 -1.229373 -0.6206003 0.7574158 0.2029201 255 255 255 255 0.335110 0.941650
-0.67474 0.05278601 -1.21238 -0.6206664 0.5544091 0.5544401 255 255 255 255 0.329823 0.944295
-0.666549 0.05614102 -1.206566 -0.6206664 0.5544091 0.5544401 255 255 255 255 0.330167 0.941997
-0.666549 0.07559201 -1.226016 -0.6206664 0.5544091 0.5544401 255 255 255 255 0.324188 0.941881
-0.666549 0.07559201 -1.226016 -0.6206079 0.5544423 0.5544723 255 255 255 255 0.324188 0.941881
-0.67474 0.06978001 -1.229373 -0.6206079 0.5544423 0.5544723 255 255 255 255 0.324532 0.944182
-0.67474 0.05278601 -1.21238 -0.6206079 0.5544423 0.5544723 255 255 255 255 0.329823 0.944295
-0.67474 0.02957202 -1.206159 -0.6205813 0.202924 0.7574304 255 255 255 255 0.330167 0.948549
-0.666549 0.02957202 -1.199448 -0.6205813 0.202924 0.7574304 255 255 255 255 0.330167 0.946710
-0.666549 0.05614102 -1.206566 -0.6205813 0.202924 0.7574304 255 255 255 255 0.324416 0.946710
-0.666549 0.05614102 -1.206566 -0.6206953 0.2029514 0.7573295 255 255 255 255 0.324416 0.946710
-0.67474 0.05278601 -1.21238 -0.6206953 0.2029514 0.7573295 255 255 255 255 0.325107 0.948549
-0.67474 0.02957202 -1.206159 -0.6206953 0.2029514 0.7573295 255 255 255 255 0.330167 0.948549
-0.67474 0.006357015 -1.21238 -0.6206704 -0.2028921 0.7573659 255 255 255 255 0.335226 0.948549
-0.666549 0.003002014 -1.206566 -0.6206704 -0.2028921 0.7573659 255 255 255 255 0.336031 0.946710
-0.666549 0.02957202 -1.199448 -0.6206704 -0.2028921 0.7573659 255 255 255 255 0.330167 0.946710
-0.666549 0.02957202 -1.199448 -0.6205736 -0.2029825 0.757421 255 255 255 255 0.330167 0.946710
-0.67474 0.02957202 -1.206159 -0.6205736 -0.2029825 0.757421 255 255 255 255 0.330167 0.948549
-0.67474 0.006357015 -1.21238 -0.6205736 -0.2029825 0.757421 255 255 255 255 0.335226 0.948549
-0.67474 -0.01063699 -1.229373 -0.6206664 -0.5544091 0.5544401 255 255 255 255 0.336146 0.953149
-0.666549 -0.01644899 -1.226016 -0.6206664 -0.5544091 0.5544401 255 255 255 255 0.336489 0.950850
-0.666549 0.003002014 -1.206566 -0.6206664 -0.5544091 0.5544401 255 255 255 255 0.330511 0.950734
-0.666549 0.003002014 -1.206566 -0.6206664 -0.5544091 0.5544401 255 255 255 255 0.330511 0.950734
-0.67474 0.006357015 -1.21238 -0.6206664 -0.5544091 0.5544401 255 255 255 255 0.330854 0.953035
-0.67474 -0.01063699 -1.229373 -0.6206664 -0.5544091 0.5544401 255 255 255 255 0.336146 0.953149
-0.67474 -0.01685799 -1.252589 -0.6206145 -0.757403 0.2029247 255 255 255 255 0.330280 0.950504
-0.666549 -0.02356899 -1.252589 -0.6206145 -0.757403 0.2029247 255 255 255 255 0.330280 0.948780
-0.666549 -0.01644899 -1.226016 -0.6206145 -0.757403 0.2029247 255 255 255 255 0.324532 0.948780
-0.666549 -0.01644899 -1.226016 -0.6206437 -0.7573711 0.2029545 255 255 255 255 0.324532 0.948780
-0.67474 -0.01063699 -1.229373 -0.6206437 -0.7573711 0.2029545 255 255 255 255 0.325221 0.950504
-0.67474 -0.01685799 -1.252589 -0.6206437 -0.7573711 0.2029545 255 255 255 255 0.330280 0.950504
-0.67474 -0.01063699 -1.275802 -0.6206291 -0.7573843 -0.2029497 255 255 255 255 0.335340 0.950504
-0.666549 -0.01644899 -1.279157 -0.6206291 -0.7573843 -0.2029497 255 255 255 255 0.336146 0.948780
-0.666549 -0.02356899 -1.252589 -0.6206291 -0.7573843 -0.2029497 255 255 255 255 0.330280 0.948780
-0.666549 -0.02356899 -1.252589 -0.6206068 -0.7573936 -0.2029832 255 255 255 255 0.330280 0.948780
-0.67474 -0.01685799 -1.252589 -0.6206068 -0.7573936 -0.2029832 255 255 255 255 0.330280 0.950504
-0.67474 -0.01063699 -1.275802 -0.6206068 -0.7573936 -0.2029832 255 255 255 255 0.335340 0.950504
-0.67474 0.006356015 -1.292797 -0.6204612 -0.5545089 -0.55457 255 255 255 255 0.329936 0.953035
-0.666549 0.003002016 -1.298607 -0.6204612 -0.5545089 -0.55457 255 255 255 255 0.330280 0.950850
-0.666549 -0.01644899 -1.279157 -0.6204612 -0.5545089 -0.55457 255 255 255 255 0.324303 0.950734
-0.666549 -0.01644899 -1.279157 -0.6206369 -0.5544717 -0.5544106 255 255 255 255 0.324303 0.950734
-0.67474 -0.01063699 -1.275802 -0.6206369 -0.5544717 -0.5544106 255 255 255 255 0.324647 0.953035
-0.67474 0.006356015 -1.292797 -0.6206369 -0.5544717 -0.5544106 255 255 255 255 0.329936 0.953035
-0.67474 0.02957202 -1.299016 -0.6205775 -0.2029528 -0.7574258 255 255 255 255 0.330167 0.946365
-0.666549 0.02957202 -1.305727 -0.6205775 -0.2029528 -0.7574258 255 255 255 255 0.330167 0.944526
-0.666549 0.003002016 -1.298607 -0.6205775 -0.2029528 -0.7574258 255 255 255 255 0.324303 0.944526
-0.666549 0.003002016 -1.298607 -0.6204821 -0.2029213 -0.7575123 255 255 255 255 0.324303 0.944526
-0.67474 0.006356015 -1.292797 -0.6204821 -0.2029213 -0.7575123 255 255 255 255 0.325107 0.946365
-0.67474 0.02957202 -1.299016 -0.6204821 -0.2029213 -0.7575123 255 255 255 255 0.330167 0.946365
-0.691802 0.02507502 -1.376587 -0.8385471 -0.5448291 -6.497022e-09 255 255 255 255 0.122300 0.977999
-0.68595 0.01606902 -1.376587 -0.8385471 -0.5448291 -6.497022e-09 255 255 255 255 0.122300 0.979643
-0.68595 0.01606901 -1.128588 -0.8385471 -0.5448291 -6.497022e-09 255 255 255 255 0.171113 0.979643
-0.691802 0.02507501 -1.128588 -0.8385471 -0.5448291 -6.497022e-09 255 255 255 255 0.171113 0.977999
-0.675927 0.01222001 -1.128588 -0.3584734 -0.9335399 -1.113235e-08 255 255 255 255 0.171113 0.981286
-0.68595 0.01606901 -1.128588 -0.3584734 -0.9335399 -1.113235e-08 255 255 255 255 0.171113 0.979643
-0.68595 0.01606902 -1.376587 -0.3584734 -0.9335399 -1.113235e-08 255 255 255 255 0.122300 0.979643
-0.675927 0.01222002 -1.376587 -0.3584734 -0.9335399 -1.113235e-08 255 255 255 255 0.122300 0.981286
-0.675927 0.01222002 -1.376587 0.2588022 -0.9659304 -1.15186e-08 255 255 255 255 0.122300 0.981286
-0.665555 0.01499902 -1.376587 0.2588022 -0.9659304 -1.15186e-08 255 255 255 255 0.122300 0.982880
-0.665555 0.01499901 -1.128588 0.2588022 -0.9659304 -1.15186e-08 255 255 255 255 0.171113 0.982880
-0.675927 0.01222001 -1.128588 0.2588022 -0.9659304 -1.15186e-08 255 255 255 255 0.171113 0.981286
-0.665555 0.01499902 -1.376587 0.7771782 -0.6292806 -7.504096e-09 255 255 255 255 0.122300 0.982880
-0.658798 0.02334402 -1.376587 0.7771782 -0.6292806 -7.504096e-09 255 255 255 255 0.122300 0.984476
-0.658798 0.02334401 -1.128588 0.7771782 -0.6292806 -7.504096e-09 255 255 255 255 0.171113 0.984476
-0.665555 0.01499901 -1.128588 0.7771782 -0.6292806 -7.504096e-09 255 255 255 255 0.171113 0.982880
-0.658798 0.02334402 -1.376587 0.9986181 -0.05255416 -6.267021e-10 255 255 255 255 0.122300 0.984476
-0.658233 0.03407001 -1.376587 0.9986181 -0.05255416 -6.267021e-10 255 255 255 255 0.122300 0.986119
-0.658233 0.03407001 -1.128588 0.9986181 -0.05255416 -6.267021e-10 255 255 255 255 0.171113 0.986119
-0.658798 0.02334401 -1.128588 0.9986181 -0.05255416 -6.267021e-10 255 255 255 255 0.171113 0.984476
-0.664084 0.04307301 -1.128588 0.838487 0.5449216 6.498125e-09 255 255 255 255 0.171113 0.987665
-0.658233 0.03407001 -1.128588 0.838487 0.5449216 6.498125e-09 255 255 255 255 0.171113 0.986119
-0.658233 0.03407001 -1.376587 0.838487 0.5449216 6.498125e-09 255 255 255 255 0.122300 0.986119
-0.664084 0.04307301 -1.376587 0.838487 0.5449216 6.498125e-09 255 255 255 255 0.122300 0.987665
-0.674109 0.04692201 -1.376587 0.3584473 0.9335499 1.113247e-08 255 255 255 255 0.122300 0.989260
-0.674109 0.04692201 -1.128588 0.3584473 0.9335499 1.113247e-08 255 255 255 255 0.171113 0.989260
-0.664084 0.04307301 -1.128588 0.3584473 0.9335499 1.113247e-08 255 255 255 255 0.171113 0.987665
-0.664084 0.04307301 -1.376587 0.3584473 0.9335499 1.113247e-08 255 255 255 255 0.122300 0.987665
-0.684481 0.04414301 -1.128588 -0.2588022 0.9659304 1.15186e-08 255 255 255 255 0.171113 0.974858
-0.674109 0.04692201 -1.128588 -0.2588022 0.9659304 1.15186e-08 255 255 255 255 0.171113 0.973311
-0.674109 0.04692201 -1.376587 -0.2588022 0.9659304 1.15186e-08 255 255 255 255 0.122300 0.973311
-0.674109 0.04692201 -1.376587 -0.2588022 0.9659304 1.15186e-08 255 255 255 255 0.122300 0.973311
-0.684481 0.04414301 -1.376587 -0.2588022 0.9659304 1.15186e-08 255 255 255 255 0.122300 0.974858
-0.691236 0.03579701 -1.376587 -0.7772588 0.6291811 7.502909e-09 255 255 255 255 0.122300 0.976452
-0.691236 0.03579701 -1.128588 -0.7772588 0.6291811 7.502909e-09 255 255 255 255 0.171113 0.976452
-0.684481 0.04414301 -1.128588 -0.7772588 0.6291811 7.502909e-09 255 255 255 255 0.171113 0.974858
-0.684481 0.04414301 -1.376587 -0.7772588 0.6291811 7.502909e-09 255 255 255 255 0.122300 0.974858
-0.691802 0.02507501 -1.128588 -0.9986101 0.05270575 6.285098e-10 255 255 255 255 0.171113 0.977999
-0.691236 0.03579701 -1.128588 -0.9986101 0.05270575 6.285098e-10 255 255 255 255 0.171113 0.976452
-0.691236 0.03579701 -1.376587 -0.9986101 0.05270575 6.285098e-10 255 255 255 255 0.122300 0.976452
-0.691802 0.02507502 -1.376587 -0.9986101 0.05270575 6.285098e-10 255 255 255 255 0.122300 0.977999
-0.691802 0.02507501 -1.128588 0 -1.192488e-08 1 255 255 255 255 0.134881 0.934312
-0.68595 0.01606901 -1.128588 0 -1.192488e-08 1 255 255 255 255 0.133481 0.934747
-0.675927 0.01222001 -1.128588 0 -1.192488e-08 1 255 255 255 255 0.132561 0.935956
-0.675927 0.01222001 -1.128588 0 -1.192488e-08 1 255 255 255 255 0.132561 0.935956
-0.665555 0.01499901 -1.128588 0 -1.192488e-08 1 255 255 255 255 0.132561 0.937502
-0.658798 0.02334401 -1.128588 0 -1.192488e-08 1 255 255 255 255 0.133481 0.938710
-0.658798 0.02334401 -1.128588 0 -1.192488e-08 1 255 255 255 255 0.133481 0.938710
-0.658233 0.03407001 -1.128588 0 -1.192488e-08 1 255 255 255 255 0.134881 0.939145
-0.664084 0.04307301 -1.128588 0 -1.192488e-08 1 255 255 255 255 0.136332 0.938710
-0.664084 0.04307301 -1.128588 0 -1.192488e-08 1 255 255 255 255 0.136332 0.938710
-0.674109 0.04692201 -1.128588 0 -1.192488e-08 1 255 255 255 255 0.137202 0.937502
-0.684481 0.04414301 -1.128588 0 -1.192488e-08 1 255 255 255 255 0.137202 0.935956
-0.658798 0.02334401 -1.128588 0 -1.192488e-08 1 255 255 255 255 0.133481 0.938710
-0.664084 0.04307301 -1.128588 0 -1.192488e-08 1 255 255 255 255 0.136332 0.938710
-0.684481 0.04414301 -1.128588 0 -1.192488e-08 1 255 255 255 255 0.137202 0.935956
-0.675927 0.01222001 -1.128588 0 -1.192488e-08 1 255 255 255 255 0.132561 0.935956
-0.658798 0.02334401 -1.128588 0 -1.192488e-08 1 255 255 255 255 0.133481 0.938710
-0.684481 0.04414301 -1.128588 0 -1.192488e-08 1 255 255 255 255 0.137202 0.935956
-0.691802 0.02507501 -1.128588 0 -1.192488e-08 1 255 255 255 255 0.134881 0.934312
-0.675927 0.01222001 -1.128588 0 -1.192488e-08 1 255 255 255 255 0.132561 0.935956
-0.684481 0.04414301 -1.128588 0 -1.192488e-08 1 255 255 255 255 0.137202 0.935956
-0.691802 0.02507501 -1.128588 0 -1.192488e-08 1 255 255 255 255 0.134881 0.934312
-0.684481 0.04414301 -1.128588 0 -1.192488e-08 1 255 255 255 255 0.137202 0.935956
-0.691236 0.03579701 -1.128588 0 -1.192488e-08 1 255 255 255 255 0.136332 0.934747
-0.684481 0.04414301 -1.376587 0 1.192488e-08 -1 255 255 255 255 0.132561 0.935956
-0.674109 0.04692201 -1.376587 0 1.192488e-08 -1 255 255 255 255 0.132561 0.937502
-0.664084 0.04307301 -1.376587 0 1.192488e-08 -1 255 255 255 255 0.133432 0.938710
-0.664084 0.04307301 -1.376587 0 1.192488e-08 -1 255 255 255 255 0.133432 0.938710
-0.658233 0.03407001 -1.376587 0 1.192488e-08 -1 255 255 255 255 0.134930 0.939145
-0.658798 0.02334402 -1.376587 0 1.192488e-08 -1 255 255 255 255 0.136332 0.938710
-0.658798 0.02334402 -1.376587 0 1.192488e-08 -1 255 255 255 255 0.136332 0.938710
-0.665555 0.01499902 -1.376587 0 1.192488e-08 -1 255 255 255 255 0.137249 0.937502
-0.675927 0.01222002 -1.376587 0 1.192488e-08 -1 255 255 255 255 0.137249 0.935956
-0.675927 0.01222002 -1.376587 0 1.192488e-08 -1 255 255 255 255 0.137249 0.935956
-0.68595 0.01606902 -1.376587 0 1.192488e-08 -1 255 255 255 255 0.136332 0.934747
-0.691802 0.02507502 -1.376587 0 1.192488e-08 -1 255 255 255 255 0.134930 0.934312
-0.658798 0.02334402 -1.376587 0 1.192488e-08 -1 255 255 255 255 0.136332 0.938710
-0.675927 0.01222002 -1.376587 0 1.192488e-08 -1 255 255 255 255 0.137249 0.935956
-0.691802 0.02507502 -1.376587 0 1.192488e-08 -1 255 255 255 255 0.134930 0.934312
-0.664084 0.04307301 -1.376587 0 1.192488e-08 -1 255 255 255 255 0.133432 0.938710
-0.658798 0.02334402 -1.376587 0 1.192488e-08 -1 255 255 255 255 0.136332 0.938710
-0.691802 0.02507502 -1.376587 0 1.192488e-08 -1 255 255 255 255 0.134930 0.934312
-0.684481 0.04414301 -1.376587 0 1.192488e-08 -1 255 255 255 255 0.132561 0.935956
-0.664084 0.04307301 -1.376587 0 1.192488e-08 -1 255 255 255 255 0.133432 0.938710
-0.691802 0.02507502 -1.376587 0 1.192488e-08 -1 255 255 255 255 0.134930 0.934312
-0.684481 0.04414301 -1.376587 0 1.192488e-08 -1 255 255 255 255 0.132561 0.935956
-0.691802 0.02507502 -1.376587 0 1.192488e-08 -1 255 255 255 255 0.134930 0.934312
-0.691236 0.03579701 -1.376587 0 1.192488e-08 -1 255 255 255 255 0.133432 0.934747
-0.875935 -0.01703299 -1.079995 -0.259259 0.965804 0.002716054 255 255 255 255 0.379093 0.908968
-0.687745 0.03365102 -1.137634 -0.259259 0.965804 0.002716054 255 255 255 255 0.385758 0.931842
-0.687992 0.03421101 -1.360051 -0.259259 0.965804 0.002716054 255 255 255 255 0.416449 0.931760
-0.876308 -0.01618098 -1.417529 -0.259259 0.965804 0.002716054 255 255 255 255 0.423854 0.908968
-0.919296 -0.02867299 -1.079977 -0.259259 0.965804 0.002716054 255 255 255 255 0.379093 0.903702
-0.919668 -0.02782198 -1.417511 -0.259259 0.965804 0.002716054 255 255 255 255 0.423854 0.903702
-1.352596 -0.144648 -1.203418 -0.259259 0.965804 0.002716054 255 255 255 255 0.395550 0.851371
-1.352696 -0.144421 -1.293697 -0.259259 0.965804 0.002716054 255 255 255 255 0.407398 0.851289
-0.872475 -0.02991799 -1.080031 0.259259 -0.965804 -0.002716054 255 255 255 255 0.379093 0.908968
-0.872849 -0.02906698 -1.417566 0.259259 -0.965804 -0.002716054 255 255 255 255 0.423854 0.908968
-0.684532 0.02132502 -1.360087 0.259259 -0.965804 -0.002716054 255 255 255 255 0.416449 0.931760
-0.684286 0.02076501 -1.137671 0.259259 -0.965804 -0.002716054 255 255 255 255 0.385758 0.931842
-0.915836 -0.04155899 -1.080013 0.259259 -0.965804 -0.002716054 255 255 255 255 0.379093 0.903702
-0.91621 -0.04070798 -1.417547 0.259259 -0.965804 -0.002716054 255 255 255 255 0.423854 0.903702
-1.349137 -0.157533 -1.203455 0.259259 -0.965804 -0.002716054 255 255 255 255 0.395550 0.851371
-1.349238 -0.157307 -1.293733 0.259259 -0.9658041 -0.002686054 255 255 255 255 0.407398 0.851289
-0.872849 -0.02906698 -1.417566 0.2724426 0.07583901 -0.9591786 255 255 255 255 0.427392 0.872764
-0.876308 -0.01618098 -1.417529 0.2724426 0.07583901 -0.9591786 255 255 255 255 0.429449 0.872764
-0.687992 0.03421101 -1.360051 0.2724426 0.07583901 -0.9591786 255 255 255 255 0.429367 0.851124
-0.687992 0.03421101 -1.360051 0.272471 0.07580856 -0.9591729 255 255 255 255 0.429367 0.851124
-0.684532 0.02132502 -1.360087 0.272471 0.07580856 -0.9591729 255 255 255 255 0.427392 0.851124
-0.872849 -0.02906698 -1.417566 0.272471 0.07580856 -0.9591729 255 255 255 255 0.427392 0.872764
-0.684286 0.02076501 -1.137671 0.2745808 0.07095748 0.9589424 255 255 255 255 0.425089 0.932171
-0.687745 0.03365102 -1.137634 0.2745808 0.07095748 0.9589424 255 255 255 255 0.427145 0.932171
-0.875935 -0.01703299 -1.079995 0.2745808 0.07095748 0.9589424 255 255 255 255 0.427227 0.908557
-0.875935 -0.01703299 -1.079995 0.2745796 0.07101818 0.9589382 255 255 255 255 0.427227 0.908557
-0.872475 -0.02991799 -1.080031 0.2745796 0.07101818 0.9589382 255 255 255 255 0.425170 0.908557
-0.684286 0.02076501 -1.137671 0.2745796 0.07101818 0.9589382 255 255 255 255 0.425089 0.932171
-0.91621 -0.04070798 -1.417547 -0.001068029 0.002472079 -0.9999964 255 255 255 255 0.427392 0.877948
-0.919668 -0.02782198 -1.417511 -0.001068029 0.002472079 -0.9999964 255 255 255 255 0.429449 0.877948
-0.876308 -0.01618098 -1.417529 -0.001068029 0.002472079 -0.9999964 255 255 255 255 0.429449 0.872764
-0.876308 -0.01618098 -1.417529 -0.00109903 0.002533081 -0.9999962 255 255 255 255 0.429449 0.872764
-0.872849 -0.02906698 -1.417566 -0.00109903 0.002533081 -0.9999962 255 255 255 255 0.427392 0.872764
-0.91621 -0.04070798 -1.417547 -0.00109903 0.002533081 -0.9999962 255 255 255 255 0.427392 0.877948
-0.872475 -0.02991799 -1.080031 0.00109903 -0.002472079 0.9999964 255 255 255 255 0.425170 0.908557
-0.875935 -0.01703299 -1.079995 0.00109903 -0.002472079 0.9999964 255 255 255 255 0.427227 0.908557
-0.919296 -0.02867299 -1.079977 0.00109903 -0.002472079 0.9999964 255 255 255 255 0.427227 0.903373
-0.919296 -0.02867299 -1.079977 0.00109903 -0.00250308 0.9999963 255 255 255 255 0.427227 0.903373
-0.915836 -0.04155899 -1.080013 0.00109903 -0.00250308 0.9999963 255 255 255 255 0.425170 0.903373
-0.872475 -0.02991799 -1.080031 0.00109903 -0.00250308 0.9999963 255 255 255 255 0.425170 0.908557
-1.349238 -0.157307 -1.293733 -0.2577009 -0.06643973 -0.9639378 255 255 255 255 0.427556 0.932171
-1.352696 -0.144421 -1.293697 -0.2577009 -0.06643973 -0.9639378 255 255 255 255 0.429614 0.932171
-0.919668 -0.02782198 -1.417511 -0.2577009 -0.06643973 -0.9639378 255 255 255 255 0.429449 0.877948
-0.919668 -0.02782198 -1.417511 -0.2577009 -0.06643973 -0.9639378 255 255 255 255 0.429449 0.877948
-0.91621 -0.04070798 -1.417547 -0.2577009 -0.06643973 -0.9639378 255 255 255 255 0.427392 0.877948
-1.349238 -0.157307 -1.293733 -0.2577009 -0.06643973 -0.9639378 255 255 255 255 0.427556 0.932171
-1.349137 -0.157533 -1.203455 -0.9658152 -0.259231 0.0003970077 255 255 255 255 0.422620 0.932254
-1.352596 -0.144648 -1.203418 -0.9658152 -0.259231 0.0003970077 255 255 255 255 0.424594 0.932254
-1.352696 -0.144421 -1.293697 -0.9658152 -0.259231 0.0003970077 255 255 255 255 0.424594 0.918512
-1.352696 -0.144421 -1.293697 -0.9658152 -0.259231 0.0003970077 255 255 255 255 0.424594 0.918512
-1.349238 -0.157307 -1.293733 -0.9658152 -0.259231 0.0003970077 255 255 255 255 0.422620 0.918512
-1.349137 -0.157533 -1.203455 -0.9658152 -0.259231 0.0003970077 255 255 255 255 0.422620 0.932254
-0.915836 -0.04155899 -1.080013 -0.2555663 -0.07132321 0.9641571 255 255 255 255 0.425170 0.903373
-0.919296 -0.02867299 -1.079977 -0.2555663 -0.07132321 0.9641571 255 255 255 255 0.427227 0.903373
-1.352596 -0.144648 -1.203418 -0.2555663 -0.07132321 0.9641571 255 255 255 255 0.427392 0.853510
-1.352596 -0.144648 -1.203418 -0.2555663 -0.07132321 0.9641571 255 255 255 255 0.427392 0.853510
-1.349137 -0.157533 -1.203455 -0.2555663 -0.07132321 0.9641571 255 255 255 255 0.425335 0.853510
-0.915836 -0.04155899 -1.080013 -0.2555663 -0.07132321 0.9641571 255 255 255 255 0.425170 0.903373
3 0 1 2 
3 2 3 0 
3 4 5 1 
3 1 0 4 
3 6 7 5 
3 5 4 6 
3 8 9 10 
3 10 11 8 
3 12 13 14 
3 14 15 12 
3 16 17 18 
3 18 19 16 
3 20 21 17 
3 17 16 20 
3 22 23 21 
3 21 20 22 
3 24 25 26 
3 26 27 24 
3 28 29 30 
3 30 31 28 
3 32 33 34 
3 35 36 32 
3 37 38 33 
3 33 32 37 
3 39 40 41 
3 41 42 43 
3 43 44 45 
3 41 43 45 
3 45 46 47 
3 47 48 49 
3 45 47 49 
3 41 45 49 
3 39 41 49 
3 39 49 50 
3 51 52 53 
3 54 55 56 
3 57 58 59 
3 60 61 62 
3 63 64 65 
3 66 67 68 
3 69 70 71 
3 72 73 74 
3 75 76 77 
3 78 79 80 
3 81 82 83 
3 84 85 86 
3 87 88 89 
3 90 91 92 
3 93 94 95 
3 96 97 98 
3 99 100 101 
3 102 103 104 
3 105 106 107 
3 108 109 110 
3 111 112 113 
3 114 115 116 
3 117 118 119 
3 120 121 122 
3 123 124 125 
3 125 126 123 
3 127 128 129 
3 129 130 127 
3 131 132 133 
3 133 134 131 
3 135 136 137 
3 137 138 135 
3 139 140 141 
3 141 142 139 
3 143 144 145 
3 145 146 143 
3 147 148 149 
3 149 150 147 
3 151 152 153 
3 154 155 151 
3 156 157 158 
3 158 159 156 
3 160 161 162 
3 162 163 160 
3 164 165 166 
3 167 168 169 
3 170 171 172 
3 173 174 175 
3 176 177 178 
3 179 180 181 
3 182 183 184 
3 185 186 187 
3 188 189 190 
3 191 192 193 
3 194 195 196 
3 197 198 199 
3 200 201 202 
3 203 204 205 
3 206 207 208 
3 209 210 211 
3 212 213 214 
3 214 215 212 
3 216 212 215 
3 215 217 216 
3 218 216 217 
3 217 219 218 
3 220 221 222 
3 222 223 220 
3 224 225 221 
3 221 220 224 
3 226 227 225 
3 225 224 226 
3 228 229 230 
3 231 232 233 
3 234 235 236 
3 237 238 239 
3 240 241 242 
3 243 244 245 
3 246 247 248 
3 249 250 251 
3 252 253 254 
3 255 256 257 
3 258 259 260 
3 261 262 263 
3 264 265 266 
3 267 268 269 
