ply
format ascii 1.0
comment VCGLIB generated
comment TextureFile moving_parts.png
element vertex 270
property float x
property float y
property float z
property float nx
property float ny
property float nz
property uchar red
property uchar green
property uchar blue
property uchar alpha
property float texture_u
property float texture_v
element face 120
property list uchar int vertex_indices
end_header
-0.793434 -0.02663999 -0.811518 0 0.5000028 -0.8660238 255 255 255 255 0.374263 0.976591
-0.704052 -0.02663999 -0.811518 0 0.5000028 -0.8660238 255 255 255 255 0.374263 0.957044
-0.704052 -0.05320999 -0.818638 0 0.2588302 -0.9659228 255 255 255 255 0.368974 0.957044
-0.793434 -0.05320999 -0.818638 0 0.2588302 -0.9659228 255 255 255 255 0.368974 0.976591
-0.793434 -0.00718999 -0.792068 0 0.8660238 -0.5000028 255 255 255 255 0.379552 0.976591
-0.704052 -0.00718999 -0.792068 0 0.8660238 -0.5000028 255 255 255 255 0.379552 0.957044
-0.793434 -6.999087e-05 -0.7655 0 0.9659228 -0.2588302 255 255 255 255 0.384843 0.976591
-0.704052 -6.999087e-05 -0.7655 0 0.9659228 -0.2588302 255 255 255 255 0.384843 0.957044
-0.793434 -0.007189991 -0.738927 0 0.9659304 0.2588022 255 255 255 255 0.390017 0.976591
-0.704052 -0.007189991 -0.738927 0 0.9659304 0.2588022 255 255 255 255 0.390017 0.957044
-0.704052 -6.999087e-05 -0.7655 0 0.9659304 0.2588022 255 255 255 255 0.384843 0.957044
-0.793434 -6.999087e-05 -0.7655 0 0.9659304 0.2588022 255 255 255 255 0.384843 0.976591
-0.793434 -0.02663999 -0.719478 0 0.7071068 0.7071068 255 255 255 255 0.395306 0.976591
-0.704052 -0.02663999 -0.719478 0 0.7071068 0.7071068 255 255 255 255 0.395306 0.957044
-0.704052 -0.007189991 -0.738927 0 0.7071068 0.7071068 255 255 255 255 0.390017 0.957044
-0.793434 -0.007189991 -0.738927 0 0.7071068 0.7071068 255 255 255 255 0.390017 0.976591
-0.793434 -0.05320999 -0.712359 0 -1.192488e-08 1 255 255 255 255 0.400594 0.976591
-0.704052 -0.05320999 -0.712359 0 -1.192488e-08 1 255 255 255 255 0.400594 0.957044
-0.704052 -0.02663999 -0.719478 0 0.2587733 0.9659381 255 255 255 255 0.395306 0.957044
-0.793434 -0.02663999 -0.719478 0 0.2587733 0.9659381 255 255 255 255 0.395306 0.976591
-0.793434 -0.07977899 -0.719478 0 -0.4999661 0.866045 255 255 255 255 0.405884 0.976591
-0.704052 -0.07977899 -0.719478 0 -0.4999661 0.866045 255 255 255 255 0.405884 0.957044
-0.793434 -0.09923099 -0.738927 0 -0.7070913 0.7071223 255 255 255 255 0.411174 0.976591
-0.704052 -0.09923099 -0.738927 0 -0.7070913 0.7071223 255 255 255 255 0.411174 0.957044
-0.793434 -0.10635 -0.7655 0 -0.9659304 0.2588022 255 255 255 255 0.416463 0.976591
-0.704052 -0.10635 -0.7655 0 -0.9659304 0.2588022 255 255 255 255 0.416463 0.957044
-0.704052 -0.09923099 -0.738927 0 -0.9659304 0.2588022 255 255 255 255 0.411174 0.957044
-0.793434 -0.09923099 -0.738927 0 -0.9659304 0.2588022 255 255 255 255 0.411174 0.976591
-0.793434 -0.09923099 -0.792068 0 -0.9659228 -0.2588302 255 255 255 255 0.421752 0.976591
-0.704052 -0.09923099 -0.792068 0 -0.9659228 -0.2588302 255 255 255 255 0.421752 0.957044
-0.704052 -0.10635 -0.7655 0 -0.9659228 -0.2588302 255 255 255 255 0.416463 0.957044
-0.793434 -0.10635 -0.7655 0 -0.9659228 -0.2588302 255 255 255 255 0.416463 0.976591
-0.793434 -0.07977899 -0.811518 0 -0.4999894 -0.8660315 255 255 255 255 0.363686 0.976591
-0.704052 -0.07977899 -0.811518 0 -0.4999894 -0.8660315 255 255 255 255 0.363686 0.957044
-0.704052 -0.09923099 -0.792068 0 -0.7070763 -0.7071373 255 255 255 255 0.358394 0.957044
-0.704052 -0.09923099 -0.792068 0 -0.7070913 -0.7071223 255 255 255 255 0.358394 0.957044
-0.793434 -0.09923099 -0.792068 0 -0.7070913 -0.7071223 255 255 255 255 0.358394 0.976591
-0.793434 -0.05320999 -0.818638 0 -0.2588302 -0.9659228 255 255 255 255 0.368974 0.976591
-0.704052 -0.05320999 -0.818638 0 -0.2588302 -0.9659228 255 255 255 255 0.368974 0.957044
-0.801624 -0.07642499 -0.805708 -1 0 0 255 255 255 255 0.338968 0.971851
-0.801624 -0.09341799 -0.788713 -1 0 0 255 255 255 255 0.342645 0.975531
-0.801624 -0.09963899 -0.7655 -1 0 0 255 255 255 255 0.347705 0.976910
-0.801624 -0.09341799 -0.742284 -1 0 0 255 255 255 255 0.352766 0.975645
-0.801624 -0.076424 -0.725291 -1 0 0 255 255 255 255 0.356445 0.971964
-0.801624 -0.05320999 -0.71907 -1 0 0 255 255 255 255 0.357826 0.966904
-0.801624 -0.02999499 -0.725291 -1 0 0 255 255 255 255 0.356559 0.961846
-0.801624 -0.01300099 -0.742284 -1 0 0 255 255 255 255 0.352879 0.958051
-0.801624 -0.006780991 -0.7655 -1 0 0 255 255 255 255 0.347821 0.956670
-0.801624 -0.01300099 -0.788713 -1 0 0 255 255 255 255 0.342763 0.958051
-0.801624 -0.02999499 -0.805708 -1 0 0 255 255 255 255 0.338968 0.961731
-0.801624 -0.05320999 -0.811927 -1 0 0 255 255 255 255 0.337587 0.966676
-0.801624 -0.02999499 -0.805708 -0.6205075 0.2029808 -0.7574757 255 255 255 255 0.335226 0.966867
-0.793434 -0.02663999 -0.811518 -0.6205075 0.2029808 -0.7574757 255 255 255 255 0.335915 0.965028
-0.793434 -0.05320999 -0.818638 -0.6205075 0.2029808 -0.7574757 255 255 255 255 0.330167 0.965028
-0.793434 -0.05320999 -0.818638 -0.6206184 0.202895 -0.7574077 255 255 255 255 0.330167 0.965028
-0.801624 -0.05320999 -0.811927 -0.6206184 0.202895 -0.7574077 255 255 255 255 0.330167 0.966867
-0.801624 -0.02999499 -0.805708 -0.6206184 0.202895 -0.7574077 255 255 255 255 0.335226 0.966867
-0.801624 -0.01300099 -0.788713 -0.6205784 0.5544738 -0.5544738 255 255 255 255 0.335800 0.964797
-0.793434 -0.00718999 -0.792068 -0.6205784 0.5544738 -0.5544738 255 255 255 255 0.336146 0.962499
-0.793434 -0.02663999 -0.811518 -0.6205784 0.5544738 -0.5544738 255 255 255 255 0.330167 0.962383
-0.793434 -0.02663999 -0.811518 -0.6205493 0.5545056 -0.5544746 255 255 255 255 0.330167 0.962383
-0.801624 -0.02999499 -0.805708 -0.6205493 0.5545056 -0.5544746 255 255 255 255 0.330511 0.964684
-0.801624 -0.01300099 -0.788713 -0.6205493 0.5545056 -0.5544746 255 255 255 255 0.335800 0.964797
-0.801624 -0.006780991 -0.7655 -0.6206107 0.7573984 -0.2029535 255 255 255 255 0.330050 0.962152
-0.793434 -6.999087e-05 -0.7655 -0.6206107 0.7573984 -0.2029535 255 255 255 255 0.330050 0.960312
-0.793434 -0.00718999 -0.792068 -0.6206107 0.7573984 -0.2029535 255 255 255 255 0.324303 0.960312
-0.793434 -0.00718999 -0.792068 -0.6205775 0.7574258 -0.2029528 255 255 255 255 0.324303 0.960312
-0.801624 -0.01300099 -0.788713 -0.6205775 0.7574258 -0.2029528 255 255 255 255 0.324992 0.962152
-0.801624 -0.006780991 -0.7655 -0.6205775 0.7574258 -0.2029528 255 255 255 255 0.330050 0.962152
-0.801624 -0.01300099 -0.742284 -0.6206003 0.7574158 0.2029201 255 255 255 255 0.335110 0.962152
-0.793434 -0.007189991 -0.738927 -0.6206003 0.7574158 0.2029201 255 255 255 255 0.335915 0.960312
-0.793434 -6.999087e-05 -0.7655 -0.6206003 0.7574158 0.2029201 255 255 255 255 0.330050 0.960312
-0.793434 -6.999087e-05 -0.7655 -0.6206145 0.757403 0.2029247 255 255 255 255 0.330050 0.960312
-0.801624 -0.006780991 -0.7655 -0.6206145 0.757403 0.2029247 255 255 255 255 0.330050 0.962152
-0.801624 -0.01300099 -0.742284 -0.6206145 0.757403 0.2029247 255 255 255 255 0.335110 0.962152
-0.801624 -0.02999499 -0.725291 -0.620677 0.5544186 0.5544186 255 255 255 255 0.329823 0.964797
-0.793434 -0.02663999 -0.719478 -0.620677 0.5544186 0.5544186 255 255 255 255 0.330167 0.962499
-0.793434 -0.007189991 -0.738927 -0.620677 0.5544186 0.5544186 255 255 255 255 0.324188 0.962383
-0.793434 -0.007189991 -0.738927 -0.6206369 0.5544106 0.5544716 255 255 255 255 0.324188 0.962383
-0.801624 -0.01300099 -0.742284 -0.6206369 0.5544106 0.5544716 255 255 255 255 0.324532 0.964684
-0.801624 -0.02999499 -0.725291 -0.6206369 0.5544106 0.5544716 255 255 255 255 0.329823 0.964797
-0.801624 -0.05320999 -0.71907 -0.6206003 0.2029201 0.7574158 255 255 255 255 0.330167 0.969051
-0.793434 -0.05320999 -0.712359 -0.6206003 0.2029201 0.7574158 255 255 255 255 0.330167 0.967212
-0.793434 -0.02663999 -0.719478 -0.6206003 0.2029201 0.7574158 255 255 255 255 0.324416 0.967212
-0.793434 -0.02663999 -0.719478 -0.6207099 0.2029561 0.7573164 255 255 255 255 0.324416 0.967212
-0.801624 -0.02999499 -0.725291 -0.6207099 0.2029561 0.7573164 255 255 255 255 0.325107 0.969051
-0.801624 -0.05320999 -0.71907 -0.6207099 0.2029561 0.7573164 255 255 255 255 0.330167 0.969051
-0.801624 -0.076424 -0.725291 -0.620703 -0.2028929 0.7573389 255 255 255 255 0.335226 0.969051
-0.793434 -0.07977899 -0.719478 -0.620703 -0.2028929 0.7573389 255 255 255 255 0.336031 0.967212
-0.793434 -0.05320999 -0.712359 -0.620703 -0.2028929 0.7573389 255 255 255 255 0.330167 0.967212
-0.793434 -0.05320999 -0.712359 -0.6206068 -0.2029832 0.7573936 255 255 255 255 0.330167 0.967212
-0.801624 -0.05320999 -0.71907 -0.6206068 -0.2029832 0.7573936 255 255 255 255 0.330167 0.969051
-0.801624 -0.076424 -0.725291 -0.6206068 -0.2029832 0.7573936 255 255 255 255 0.335226 0.969051
-0.801624 -0.09341799 -0.742284 -0.6206767 -0.5543883 0.5544494 255 255 255 255 0.336146 0.973651
-0.793434 -0.09923099 -0.738927 -0.6206767 -0.5543883 0.5544494 255 255 255 255 0.336489 0.971352
-0.793434 -0.07977899 -0.719478 -0.6206767 -0.5543883 0.5544494 255 255 255 255 0.330511 0.971235
-0.793434 -0.07977899 -0.719478 -0.6206955 -0.5544084 0.5544084 255 255 255 255 0.330511 0.971235
-0.801624 -0.076424 -0.725291 -0.6206955 -0.5544084 0.5544084 255 255 255 255 0.330854 0.973536
-0.801624 -0.09341799 -0.742284 -0.6206955 -0.5544084 0.5544084 255 255 255 255 0.336146 0.973651
-0.801624 -0.09963899 -0.7655 -0.6206145 -0.757403 0.2029247 255 255 255 255 0.330280 0.971007
-0.793434 -0.10635 -0.7655 -0.6206145 -0.757403 0.2029247 255 255 255 255 0.330280 0.969282
-0.793434 -0.09923099 -0.738927 -0.6206145 -0.757403 0.2029247 255 255 255 255 0.324532 0.969282
-0.793434 -0.09923099 -0.738927 -0.6206627 -0.7573566 0.2029505 255 255 255 255 0.324532 0.969282
-0.801624 -0.09341799 -0.742284 -0.6206627 -0.7573566 0.2029505 255 255 255 255 0.325221 0.971007
-0.801624 -0.09963899 -0.7655 -0.6206627 -0.7573566 0.2029505 255 255 255 255 0.330280 0.971007
-0.801624 -0.09341799 -0.788713 -0.6206437 -0.7573711 -0.2029545 255 255 255 255 0.335340 0.971007
-0.793434 -0.09923099 -0.792068 -0.6206437 -0.7573711 -0.2029545 255 255 255 255 0.336146 0.969282
-0.793434 -0.10635 -0.7655 -0.6206437 -0.7573711 -0.2029545 255 255 255 255 0.330280 0.969282
-0.793434 -0.10635 -0.7655 -0.6206068 -0.7573936 -0.2029832 255 255 255 255 0.330280 0.969282
-0.801624 -0.09963899 -0.7655 -0.6206068 -0.7573936 -0.2029832 255 255 255 255 0.330280 0.971007
-0.801624 -0.09341799 -0.788713 -0.6206068 -0.7573936 -0.2029832 255 255 255 255 0.335340 0.971007
-0.801624 -0.07642499 -0.805708 -0.6204908 -0.5545079 -0.5545378 255 255 255 255 0.329936 0.973536
-0.793434 -0.07977899 -0.811518 -0.6204908 -0.5545079 -0.5545378 255 255 255 255 0.330280 0.971352
-0.793434 -0.09923099 -0.792068 -0.6204908 -0.5545079 -0.5545378 255 255 255 255 0.324303 0.971235
-0.793434 -0.09923099 -0.792068 -0.6206369 -0.5544717 -0.5544106 255 255 255 255 0.324303 0.971235
-0.801624 -0.09341799 -0.788713 -0.6206369 -0.5544717 -0.5544106 255 255 255 255 0.324647 0.973536
-0.801624 -0.07642499 -0.805708 -0.6206369 -0.5544717 -0.5544106 255 255 255 255 0.329936 0.973536
-0.801624 -0.05320999 -0.811927 -0.6206107 -0.2029535 -0.7573984 255 255 255 255 0.330167 0.966867
-0.793434 -0.05320999 -0.818638 -0.6206107 -0.2029535 -0.7573984 255 255 255 255 0.330167 0.965028
-0.793434 -0.07977899 -0.811518 -0.6206107 -0.2029535 -0.7573984 255 255 255 255 0.324303 0.965028
-0.793434 -0.07977899 -0.811518 -0.6204821 -0.2029213 -0.7575123 255 255 255 255 0.324303 0.965028
-0.801624 -0.07642499 -0.805708 -0.6204821 -0.2029213 -0.7575123 255 255 255 255 0.325107 0.966867
-0.801624 -0.05320999 -0.811927 -0.6204821 -0.2029213 -0.7575123 255 255 255 255 0.330167 0.966867
-0.818687 -0.05770599 -0.889498 -0.8385471 -0.5448291 -6.497022e-09 255 255 255 255 0.122209 0.961160
-0.812835 -0.06671199 -0.889498 -0.8385471 -0.5448291 -6.497022e-09 255 255 255 255 0.122209 0.962804
-0.812835 -0.06671199 -0.641499 -0.8385471 -0.5448291 -6.497022e-09 255 255 255 255 0.171022 0.962804
-0.818687 -0.05770599 -0.641499 -0.8385471 -0.5448291 -6.497022e-09 255 255 255 255 0.171022 0.961160
-0.802812 -0.07056099 -0.641499 -0.3584734 -0.9335399 -1.113235e-08 255 255 255 255 0.171022 0.964447
-0.812835 -0.06671199 -0.641499 -0.3584734 -0.9335399 -1.113235e-08 255 255 255 255 0.171022 0.962804
-0.812835 -0.06671199 -0.889498 -0.3584734 -0.9335399 -1.113235e-08 255 255 255 255 0.122209 0.962804
-0.802812 -0.07056099 -0.889498 -0.3584734 -0.9335399 -1.113235e-08 255 255 255 255 0.122209 0.964447
-0.802812 -0.07056099 -0.889498 0.2588022 -0.9659304 -1.15186e-08 255 255 255 255 0.122209 0.964447
-0.79244 -0.06778199 -0.889498 0.2588022 -0.9659304 -1.15186e-08 255 255 255 255 0.122209 0.966042
-0.79244 -0.06778199 -0.641499 0.2588022 -0.9659304 -1.15186e-08 255 255 255 255 0.171022 0.966042
-0.802812 -0.07056099 -0.641499 0.2588022 -0.9659304 -1.15186e-08 255 255 255 255 0.171022 0.964447
-0.79244 -0.06778199 -0.889498 0.7771782 -0.6292806 -7.504096e-09 255 255 255 255 0.122209 0.966042
-0.785683 -0.05943699 -0.889498 0.7771782 -0.6292806 -7.504096e-09 255 255 255 255 0.122209 0.967637
-0.785683 -0.05943699 -0.641499 0.7771782 -0.6292806 -7.504096e-09 255 255 255 255 0.171022 0.967637
-0.79244 -0.06778199 -0.641499 0.7771782 -0.6292806 -7.504096e-09 255 255 255 255 0.171022 0.966042
-0.785683 -0.05943699 -0.889498 0.9986181 -0.05255416 -6.267021e-10 255 255 255 255 0.122209 0.967637
-0.785118 -0.04871099 -0.889498 0.9986181 -0.05255416 -6.267021e-10 255 255 255 255 0.122209 0.969280
-0.785118 -0.04871099 -0.641499 0.9986181 -0.05255416 -6.267021e-10 255 255 255 255 0.171022 0.969280
-0.785683 -0.05943699 -0.641499 0.9986181 -0.05255416 -6.267021e-10 255 255 255 255 0.171022 0.967637
-0.790969 -0.03970799 -0.641499 0.8384636 0.5449576 6.498554e-09 255 255 255 255 0.171022 0.970827
-0.785118 -0.04871099 -0.641499 0.8384636 0.5449576 6.498554e-09 255 255 255 255 0.171022 0.969280
-0.785118 -0.04871099 -0.889498 0.8384636 0.5449576 6.498554e-09 255 255 255 255 0.122209 0.969280
-0.790969 -0.03970799 -0.889498 0.8384636 0.5449576 6.498554e-09 255 255 255 255 0.122209 0.970827
-0.800994 -0.03585899 -0.889498 0.3584473 0.9335499 1.113247e-08 255 255 255 255 0.122209 0.972421
-0.800994 -0.03585899 -0.641499 0.3584473 0.9335499 1.113247e-08 255 255 255 255 0.171022 0.972421
-0.790969 -0.03970799 -0.641499 0.3584473 0.9335499 1.113247e-08 255 255 255 255 0.171022 0.970827
-0.790969 -0.03970799 -0.889498 0.3584473 0.9335499 1.113247e-08 255 255 255 255 0.122209 0.970827
-0.811366 -0.03863799 -0.641499 -0.2588022 0.9659304 1.15186e-08 255 255 255 255 0.171022 0.958019
-0.800994 -0.03585899 -0.641499 -0.2588022 0.9659304 1.15186e-08 255 255 255 255 0.171022 0.956472
-0.800994 -0.03585899 -0.889498 -0.2588022 0.9659304 1.15186e-08 255 255 255 255 0.122209 0.956472
-0.800994 -0.03585899 -0.889498 -0.2588022 0.9659304 1.15186e-08 255 255 255 255 0.122209 0.956472
-0.811366 -0.03863799 -0.889498 -0.2588022 0.9659304 1.15186e-08 255 255 255 255 0.122209 0.958019
-0.818121 -0.04698399 -0.889498 -0.7772588 0.6291811 7.502909e-09 255 255 255 255 0.122209 0.959613
-0.818121 -0.04698399 -0.641499 -0.7772588 0.6291811 7.502909e-09 255 255 255 255 0.171022 0.959613
-0.811366 -0.03863799 -0.641499 -0.7772588 0.6291811 7.502909e-09 255 255 255 255 0.171022 0.958019
-0.811366 -0.03863799 -0.889498 -0.7772588 0.6291811 7.502909e-09 255 255 255 255 0.122209 0.958019
-0.818687 -0.05770599 -0.641499 -0.9986117 0.05267583 6.28153e-10 255 255 255 255 0.171022 0.961160
-0.818121 -0.04698399 -0.641499 -0.9986117 0.05267583 6.28153e-10 255 255 255 255 0.171022 0.959613
-0.818121 -0.04698399 -0.889498 -0.9986117 0.05267583 6.28153e-10 255 255 255 255 0.122209 0.959613
-0.818687 -0.05770599 -0.889498 -0.9986117 0.05267583 6.28153e-10 255 255 255 255 0.122209 0.961160
-0.818687 -0.05770599 -0.641499 0 -1.192488e-08 1 255 255 255 255 0.129707 0.934347
-0.812835 -0.06671199 -0.641499 0 -1.192488e-08 1 255 255 255 255 0.128307 0.934782
-0.802812 -0.07056099 -0.641499 0 -1.192488e-08 1 255 255 255 255 0.127388 0.935991
-0.802812 -0.07056099 -0.641499 0 -1.192488e-08 1 255 255 255 255 0.127388 0.935991
-0.79244 -0.06778199 -0.641499 0 -1.192488e-08 1 255 255 255 255 0.127388 0.937537
-0.785683 -0.05943699 -0.641499 0 -1.192488e-08 1 255 255 255 255 0.128307 0.938745
-0.785683 -0.05943699 -0.641499 0 -1.192488e-08 1 255 255 255 255 0.128307 0.938745
-0.785118 -0.04871099 -0.641499 0 -1.192488e-08 1 255 255 255 255 0.129707 0.939180
-0.790969 -0.03970799 -0.641499 0 -1.192488e-08 1 255 255 255 255 0.131159 0.938745
-0.790969 -0.03970799 -0.641499 0 -1.192488e-08 1 255 255 255 255 0.131159 0.938745
-0.800994 -0.03585899 -0.641499 0 -1.192488e-08 1 255 255 255 255 0.132028 0.937537
-0.811366 -0.03863799 -0.641499 0 -1.192488e-08 1 255 255 255 255 0.132028 0.935991
-0.785683 -0.05943699 -0.641499 0 -1.192488e-08 1 255 255 255 255 0.128307 0.938745
-0.790969 -0.03970799 -0.641499 0 -1.192488e-08 1 255 255 255 255 0.131159 0.938745
-0.811366 -0.03863799 -0.641499 0 -1.192488e-08 1 255 255 255 255 0.132028 0.935991
-0.802812 -0.07056099 -0.641499 0 -1.192488e-08 1 255 255 255 255 0.127388 0.935991
-0.785683 -0.05943699 -0.641499 0 -1.192488e-08 1 255 255 255 255 0.128307 0.938745
-0.811366 -0.03863799 -0.641499 0 -1.192488e-08 1 255 255 255 255 0.132028 0.935991
-0.818687 -0.05770599 -0.641499 0 -1.192488e-08 1 255 255 255 255 0.129707 0.934347
-0.802812 -0.07056099 -0.641499 0 -1.192488e-08 1 255 255 255 255 0.127388 0.935991
-0.811366 -0.03863799 -0.641499 0 -1.192488e-08 1 255 255 255 255 0.132028 0.935991
-0.818687 -0.05770599 -0.641499 0 -1.192488e-08 1 255 255 255 255 0.129707 0.934347
-0.811366 -0.03863799 -0.641499 0 -1.192488e-08 1 255 255 255 255 0.132028 0.935991
-0.818121 -0.04698399 -0.641499 0 -1.192488e-08 1 255 255 255 255 0.131159 0.934782
-0.811366 -0.03863799 -0.889498 0 1.192488e-08 -1 255 255 255 255 0.127388 0.935991
-0.800994 -0.03585899 -0.889498 0 1.192488e-08 -1 255 255 255 255 0.127388 0.937537
-0.790969 -0.03970799 -0.889498 0 1.192488e-08 -1 255 255 255 255 0.128258 0.938745
-0.790969 -0.03970799 -0.889498 0 1.192488e-08 -1 255 255 255 255 0.128258 0.938745
-0.785118 -0.04871099 -0.889498 0 1.192488e-08 -1 255 255 255 255 0.129756 0.939180
-0.785683 -0.05943699 -0.889498 0 1.192488e-08 -1 255 255 255 255 0.131159 0.938745
-0.785683 -0.05943699 -0.889498 0 1.192488e-08 -1 255 255 255 255 0.131159 0.938745
-0.79244 -0.06778199 -0.889498 0 1.192488e-08 -1 255 255 255 255 0.132075 0.937537
-0.802812 -0.07056099 -0.889498 0 1.192488e-08 -1 255 255 255 255 0.132075 0.935991
-0.802812 -0.07056099 -0.889498 0 1.192488e-08 -1 255 255 255 255 0.132075 0.935991
-0.812835 -0.06671199 -0.889498 0 1.192488e-08 -1 255 255 255 255 0.131159 0.934782
-0.818687 -0.05770599 -0.889498 0 1.192488e-08 -1 255 255 255 255 0.129756 0.934347
-0.785683 -0.05943699 -0.889498 0 1.192488e-08 -1 255 255 255 255 0.131159 0.938745
-0.802812 -0.07056099 -0.889498 0 1.192488e-08 -1 255 255 255 255 0.132075 0.935991
-0.818687 -0.05770599 -0.889498 0 1.192488e-08 -1 255 255 255 255 0.129756 0.934347
-0.790969 -0.03970799 -0.889498 0 1.192488e-08 -1 255 255 255 255 0.128258 0.938745
-0.785683 -0.05943699 -0.889498 0 1.192488e-08 -1 255 255 255 255 0.131159 0.938745
-0.818687 -0.05770599 -0.889498 0 1.192488e-08 -1 255 255 255 255 0.129756 0.934347
-0.811366 -0.03863799 -0.889498 0 1.192488e-08 -1 255 255 255 255 0.127388 0.935991
-0.790969 -0.03970799 -0.889498 0 1.192488e-08 -1 255 255 255 255 0.128258 0.938745
-0.818687 -0.05770599 -0.889498 0 1.192488e-08 -1 255 255 255 255 0.129756 0.934347
-0.811366 -0.03863799 -0.889498 0 1.192488e-08 -1 255 255 255 255 0.127388 0.935991
-0.818687 -0.05770599 -0.889498 0 1.192488e-08 -1 255 255 255 255 0.129756 0.934347
-0.818121 -0.04698399 -0.889498 0 1.192488e-08 -1 255 255 255 255 0.128258 0.934782
-1.00282 -0.09981399 -0.592906 -0.259259 0.965804 0.002716054 255 255 255 255 0.326265 0.909286
-0.81463 -0.04912999 -0.650545 -0.259259 0.965804 0.002716054 255 255 255 255 0.332931 0.932160
-0.814876 -0.04856999 -0.872963 -0.259259 0.965804 0.002716054 255 255 255 255 0.363621 0.932078
-1.003193 -0.09896199 -0.93044 -0.259259 0.965804 0.002716054 255 255 255 255 0.371027 0.909286
-1.046181 -0.111454 -0.592888 -0.259259 0.965804 0.002716054 255 255 255 255 0.326265 0.904020
-1.046553 -0.110603 -0.930422 -0.259259 0.965804 0.002716054 255 255 255 255 0.371027 0.904020
-1.479481 -0.227429 -0.71633 -0.259259 0.965804 0.002716054 255 255 255 255 0.342722 0.851690
-1.479581 -0.227202 -0.806608 -0.259259 0.9658041 0.002686054 255 255 255 255 0.354570 0.851607
-0.999359 -0.1127 -0.592942 0.259259 -0.965804 -0.002716054 255 255 255 255 0.326265 0.909286
-0.999734 -0.111848 -0.930477 0.259259 -0.965804 -0.002716054 255 255 255 255 0.371027 0.909286
-0.811417 -0.06145599 -0.872998 0.259259 -0.965804 -0.002716054 255 255 255 255 0.363621 0.932078
-0.811171 -0.06201599 -0.650582 0.259259 -0.965804 -0.002716054 255 255 255 255 0.332931 0.932160
-1.042721 -0.12434 -0.592924 0.259259 -0.965804 -0.002716054 255 255 255 255 0.326265 0.904020
-1.043094 -0.123489 -0.930458 0.259259 -0.965804 -0.002716054 255 255 255 255 0.371027 0.904020
-1.476022 -0.240314 -0.716366 0.259259 -0.965804 -0.002716054 255 255 255 255 0.342722 0.851690
-1.476122 -0.240088 -0.806644 0.259259 -0.9658041 -0.002686054 255 255 255 255 0.354570 0.851607
-0.999734 -0.111848 -0.930477 0.2724426 0.07583901 -0.9591786 255 255 255 255 0.374565 0.873082
-1.003193 -0.09896199 -0.93044 0.2724426 0.07583901 -0.9591786 255 255 255 255 0.376621 0.873082
-0.814876 -0.04856999 -0.872963 0.2724426 0.07583901 -0.9591786 255 255 255 255 0.376539 0.851443
-0.814876 -0.04856999 -0.872963 0.272471 0.07580856 -0.9591729 255 255 255 255 0.376539 0.851443
-0.811417 -0.06145599 -0.872998 0.272471 0.07580856 -0.9591729 255 255 255 255 0.374565 0.851443
-0.999734 -0.111848 -0.930477 0.272471 0.07580856 -0.9591729 255 255 255 255 0.374565 0.873082
-0.811171 -0.06201599 -0.650582 0.2745808 0.07095748 0.9589424 255 255 255 255 0.372261 0.932490
-0.81463 -0.04912999 -0.650545 0.2745808 0.07095748 0.9589424 255 255 255 255 0.374318 0.932490
-1.00282 -0.09981399 -0.592906 0.2745808 0.07095748 0.9589424 255 255 255 255 0.374400 0.908875
-1.00282 -0.09981399 -0.592906 0.2745513 0.07104862 0.958944 255 255 255 255 0.374400 0.908875
-0.999359 -0.1127 -0.592942 0.2745513 0.07104862 0.958944 255 255 255 255 0.372343 0.908875
-0.811171 -0.06201599 -0.650582 0.2745513 0.07104862 0.958944 255 255 255 255 0.372261 0.932490
-1.043094 -0.123489 -0.930458 -0.001068029 0.002472079 -0.9999964 255 255 255 255 0.374565 0.878266
-1.046553 -0.110603 -0.930422 -0.001068029 0.002472079 -0.9999964 255 255 255 255 0.376621 0.878266
-1.003193 -0.09896199 -0.93044 -0.001068029 0.002472079 -0.9999964 255 255 255 255 0.376621 0.873082
-1.003193 -0.09896199 -0.93044 -0.00109903 0.00250308 -0.9999963 255 255 255 255 0.376621 0.873082
-0.999734 -0.111848 -0.930477 -0.00109903 0.00250308 -0.9999963 255 255 255 255 0.374565 0.873082
-1.043094 -0.123489 -0.930458 -0.00109903 0.00250308 -0.9999963 255 255 255 255 0.374565 0.878266
-0.999359 -0.1127 -0.592942 0.00109903 -0.002472079 0.9999964 255 255 255 255 0.372343 0.908875
-1.00282 -0.09981399 -0.592906 0.00109903 -0.002472079 0.9999964 255 255 255 255 0.374400 0.908875
-1.046181 -0.111454 -0.592888 0.00109903 -0.002472079 0.9999964 255 255 255 255 0.374400 0.903691
-1.046181 -0.111454 -0.592888 0.00109903 -0.00250308 0.9999963 255 255 255 255 0.374400 0.903691
-1.042721 -0.12434 -0.592924 0.00109903 -0.00250308 0.9999963 255 255 255 255 0.372343 0.903691
-0.999359 -0.1127 -0.592942 0.00109903 -0.00250308 0.9999963 255 255 255 255 0.372343 0.908875
-1.476122 -0.240088 -0.806644 -0.2577009 -0.06643973 -0.9639378 255 255 255 255 0.374729 0.932490
-1.479581 -0.227202 -0.806608 -0.2577009 -0.06643973 -0.9639378 255 255 255 255 0.376786 0.932490
-1.046553 -0.110603 -0.930422 -0.2577009 -0.06643973 -0.9639378 255 255 255 255 0.376621 0.878266
-1.046553 -0.110603 -0.930422 -0.2577004 -0.0664696 -0.9639359 255 255 255 255 0.376621 0.878266
-1.043094 -0.123489 -0.930458 -0.2577004 -0.0664696 -0.9639359 255 255 255 255 0.374565 0.878266
-1.476122 -0.240088 -0.806644 -0.2577004 -0.0664696 -0.9639359 255 255 255 255 0.374729 0.932490
-1.476022 -0.240314 -0.716366 -0.9658075 -0.2592599 0.0003970045 255 255 255 255 0.369793 0.932572
-1.479481 -0.227429 -0.71633 -0.9658075 -0.2592599 0.0003970045 255 255 255 255 0.371767 0.932572
-1.479581 -0.227202 -0.806608 -0.9658075 -0.2592599 0.0003970045 255 255 255 255 0.371767 0.918831
-1.479581 -0.227202 -0.806608 -0.9658075 -0.2592599 0.0004270051 255 255 255 255 0.371767 0.918831
-1.476122 -0.240088 -0.806644 -0.9658075 -0.2592599 0.0004270051 255 255 255 255 0.369793 0.918831
-1.476022 -0.240314 -0.716366 -0.9658075 -0.2592599 0.0004270051 255 255 255 255 0.369793 0.932572
-1.042721 -0.12434 -0.592924 -0.2555663 -0.07132321 0.9641571 255 255 255 255 0.372343 0.903691
-1.046181 -0.111454 -0.592888 -0.2555663 -0.07132321 0.9641571 255 255 255 255 0.374400 0.903691
-1.479481 -0.227429 -0.71633 -0.2555663 -0.07132321 0.9641571 255 255 255 255 0.374565 0.853829
-1.479481 -0.227429 -0.71633 -0.2555663 -0.07132321 0.9641571 255 255 255 255 0.374565 0.853829
-1.476022 -0.240314 -0.716366 -0.2555663 -0.07132321 0.9641571 255 255 255 255 0.372507 0.853829
-1.042721 -0.12434 -0.592924 -0.2555663 -0.07132321 0.9641571 255 255 255 255 0.372343 0.903691
3 0 1 2 
3 2 3 0 
3 4 5 1 
3 1 0 4 
3 6 7 5 
3 5 4 6 
3 8 9 10 
3 10 11 8 
3 12 13 14 
3 14 15 12 
3 16 17 18 
3 18 19 16 
3 20 21 17 
3 17 16 20 
3 22 23 21 
3 21 20 22 
3 24 25 26 
3 26 27 24 
3 28 29 30 
3 30 31 28 
3 32 33 34 
3 35 36 32 
3 37 38 33 
3 33 32 37 
3 39 40 41 
3 41 42 43 
3 43 44 45 
3 41 43 45 
3 45 46 47 
3 47 48 49 
3 45 47 49 
3 41 45 49 
3 39 41 49 
3 39 49 50 
3 51 52 53 
3 54 55 56 
3 57 58 59 
3 60 61 62 
3 63 64 65 
3 66 67 68 
3 69 70 71 
3 72 73 74 
3 75 76 77 
3 78 79 80 
3 81 82 83 
3 84 85 86 
3 87 88 89 
3 90 91 92 
3 93 94 95 
3 96 97 98 
3 99 100 101 
3 102 103 104 
3 105 106 107 
3 108 109 110 
3 111 112 113 
3 114 115 116 
3 117 118 119 
3 120 121 122 
3 123 124 125 
3 125 126 123 
3 127 128 129 
3 129 130 127 
3 131 132 133 
3 133 134 131 
3 135 136 137 
3 137 138 135 
3 139 140 141 
3 141 142 139 
3 143 144 145 
3 145 146 143 
3 147 148 149 
3 149 150 147 
3 151 152 153 
3 154 155 151 
3 156 157 158 
3 158 159 156 
3 160 161 162 
3 162 163 160 
3 164 165 166 
3 167 168 169 
3 170 171 172 
3 173 174 175 
3 176 177 178 
3 179 180 181 
3 182 183 184 
3 185 186 187 
3 188 189 190 
3 191 192 193 
3 194 195 196 
3 197 198 199 
3 200 201 202 
3 203 204 205 
3 206 207 208 
3 209 210 211 
3 212 213 214 
3 214 215 212 
3 216 212 215 
3 215 217 216 
3 218 216 217 
3 217 219 218 
3 220 221 222 
3 222 223 220 
3 224 225 221 
3 221 220 224 
3 226 227 225 
3 225 224 226 
3 228 229 230 
3 231 232 233 
3 234 235 236 
3 237 238 239 
3 240 241 242 
3 243 244 245 
3 246 247 248 
3 249 250 251 
3 252 253 254 
3 255 256 257 
3 258 259 260 
3 261 262 263 
3 264 265 266 
3 267 268 269 
