ply
format ascii 1.0
comment VCGLIB generated
comment TextureFile moving_parts.png
element vertex 270
property float x
property float y
property float z
property float nx
property float ny
property float nz
property uchar red
property uchar green
property uchar blue
property uchar alpha
property float texture_u
property float texture_v
element face 120
property list uchar int vertex_indices
end_header
-0.706751 -0.120093 0.262491 0 0.5000028 -0.8660238 255 255 255 255 0.374263 0.996982
-0.617369 -0.120093 0.262491 0 0.5000028 -0.8660238 255 255 255 255 0.374263 0.977435
-0.617369 -0.146663 0.255371 0 0.2588302 -0.9659228 255 255 255 255 0.368974 0.977435
-0.706751 -0.146663 0.255371 0 0.2588302 -0.9659228 255 255 255 255 0.368974 0.996982
-0.706751 -0.100643 0.281941 0 0.8660238 -0.5000028 255 255 255 255 0.379552 0.996982
-0.617369 -0.100643 0.281941 0 0.8660238 -0.5000028 255 255 255 255 0.379552 0.977435
-0.706751 -0.093524 0.30851 0 0.9659228 -0.2588302 255 255 255 255 0.384843 0.996982
-0.617369 -0.093524 0.30851 0 0.9659228 -0.2588302 255 255 255 255 0.384843 0.977435
-0.706751 -0.100643 0.335082 0 0.9659304 0.2588022 255 255 255 255 0.390017 0.996982
-0.617369 -0.100643 0.335082 0 0.9659304 0.2588022 255 255 255 255 0.390017 0.977435
-0.617369 -0.093524 0.30851 0 0.9659304 0.2588022 255 255 255 255 0.384843 0.977435
-0.706751 -0.093524 0.30851 0 0.9659304 0.2588022 255 255 255 255 0.384843 0.996982
-0.706751 -0.120093 0.354532 0 0.7071068 0.7071068 255 255 255 255 0.395306 0.996982
-0.617369 -0.120093 0.354532 0 0.7071068 0.7071068 255 255 255 255 0.395306 0.977435
-0.617369 -0.100643 0.335082 0 0.7071068 0.7071068 255 255 255 255 0.390017 0.977435
-0.706751 -0.100643 0.335082 0 0.7071068 0.7071068 255 255 255 255 0.390017 0.996982
-0.706751 -0.146663 0.36165 0 -1.192488e-08 1 255 255 255 255 0.400594 0.996982
-0.617369 -0.146663 0.36165 0 -1.192488e-08 1 255 255 255 255 0.400594 0.977435
-0.617369 -0.120093 0.354532 0 0.2587733 0.9659381 255 255 255 255 0.395306 0.977435
-0.706751 -0.120093 0.354532 0 0.2587733 0.9659381 255 255 255 255 0.395306 0.996982
-0.706751 -0.173233 0.354532 0 -0.4999661 0.866045 255 255 255 255 0.405884 0.996982
-0.617369 -0.173233 0.354532 0 -0.4999661 0.866045 255 255 255 255 0.405884 0.977435
-0.706751 -0.192684 0.335082 0 -0.7070913 0.7071223 255 255 255 255 0.411174 0.996982
-0.617369 -0.192684 0.335082 0 -0.7070913 0.7071223 255 255 255 255 0.411174 0.977435
-0.706751 -0.199804 0.30851 0 -0.9659304 0.2588022 255 255 255 255 0.416463 0.996982
-0.617369 -0.199804 0.30851 0 -0.9659304 0.2588022 255 255 255 255 0.416463 0.977435
-0.617369 -0.192684 0.335082 0 -0.9659304 0.2588022 255 255 255 255 0.411174 0.977435
-0.706751 -0.192684 0.335082 0 -0.9659304 0.2588022 255 255 255 255 0.411174 0.996982
-0.706751 -0.192684 0.281941 0 -0.9659228 -0.2588302 255 255 255 255 0.421752 0.996982
-0.617369 -0.192684 0.281941 0 -0.9659228 -0.2588302 255 255 255 255 0.421752 0.977435
-0.617369 -0.199804 0.30851 0 -0.9659228 -0.2588302 255 255 255 255 0.416463 0.977435
-0.706751 -0.199804 0.30851 0 -0.9659228 -0.2588302 255 255 255 255 0.416463 0.996982
-0.706751 -0.173233 0.262491 0 -0.4999894 -0.8660315 255 255 255 255 0.363686 0.996982
-0.617369 -0.173233 0.262491 0 -0.4999894 -0.8660315 255 255 255 255 0.363686 0.977435
-0.617369 -0.192684 0.281941 0 -0.7070913 -0.7071223 255 255 255 255 0.358394 0.977435
-0.617369 -0.192684 0.281941 0 -0.7070913 -0.7071223 255 255 255 255 0.358394 0.977435
-0.706751 -0.192684 0.281941 0 -0.7070913 -0.7071223 255 255 255 255 0.358394 0.996982
-0.706751 -0.146663 0.255371 0 -0.2588302 -0.9659228 255 255 255 255 0.368974 0.996982
-0.617369 -0.146663 0.255371 0 -0.2588302 -0.9659228 255 255 255 255 0.368974 0.977435
-0.714942 -0.169879 0.268301 -1 0 0 255 255 255 255 0.338968 0.992242
-0.714942 -0.186872 0.285297 -1 0 0 255 255 255 255 0.342645 0.995921
-0.714942 -0.193093 0.30851 -1 0 0 255 255 255 255 0.347705 0.997300
-0.714942 -0.186872 0.331725 -1 0 0 255 255 255 255 0.352766 0.996036
-0.714942 -0.169878 0.348718 -1 0 0 255 255 255 255 0.356445 0.992355
-0.714942 -0.146663 0.35494 -1 0 0 255 255 255 255 0.357826 0.987295
-0.714942 -0.123449 0.348718 -1 0 0 255 255 255 255 0.356559 0.982237
-0.714942 -0.106455 0.331725 -1 0 0 255 255 255 255 0.352879 0.978442
-0.714942 -0.100235 0.30851 -1 0 0 255 255 255 255 0.347821 0.977061
-0.714942 -0.106455 0.285297 -1 0 0 255 255 255 255 0.342763 0.978442
-0.714942 -0.123449 0.268301 -1 0 0 255 255 255 255 0.338968 0.982122
-0.714942 -0.146663 0.262082 -1 0 0 255 255 255 255 0.337587 0.987067
-0.714942 -0.123449 0.268301 -0.6204891 0.2029846 -0.7574897 255 255 255 255 0.335226 0.987258
-0.706751 -0.120093 0.262491 -0.6204891 0.2029846 -0.7574897 255 255 255 255 0.335915 0.985419
-0.706751 -0.146663 0.255371 -0.6204891 0.2029846 -0.7574897 255 255 255 255 0.330167 0.985419
-0.706751 -0.146663 0.255371 -0.6206043 0.2028904 -0.7574205 255 255 255 255 0.330167 0.985419
-0.714942 -0.146663 0.262082 -0.6206043 0.2028904 -0.7574205 255 255 255 255 0.330167 0.987258
-0.714942 -0.123449 0.268301 -0.6206043 0.2028904 -0.7574205 255 255 255 255 0.335226 0.987258
-0.714942 -0.106455 0.285297 -0.6205784 0.5544738 -0.5544738 255 255 255 255 0.335800 0.985188
-0.706751 -0.100643 0.281941 -0.6205784 0.5544738 -0.5544738 255 255 255 255 0.336146 0.982890
-0.706751 -0.120093 0.262491 -0.6205784 0.5544738 -0.5544738 255 255 255 255 0.330167 0.982773
-0.706751 -0.120093 0.262491 -0.6205093 0.5545275 -0.5544975 255 255 255 255 0.330167 0.982773
-0.714942 -0.123449 0.268301 -0.6205093 0.5545275 -0.5544975 255 255 255 255 0.330511 0.985074
-0.714942 -0.106455 0.285297 -0.6205093 0.5545275 -0.5544975 255 255 255 255 0.335800 0.985188
-0.714942 -0.100235 0.30851 -0.6206107 0.7573984 -0.2029535 255 255 255 255 0.330050 0.982543
-0.706751 -0.093524 0.30851 -0.6206107 0.7573984 -0.2029535 255 255 255 255 0.330050 0.980703
-0.706751 -0.100643 0.281941 -0.6206107 0.7573984 -0.2029535 255 255 255 255 0.324303 0.980703
-0.706751 -0.100643 0.281941 -0.6205775 0.7574258 -0.2029528 255 255 255 255 0.324303 0.980703
-0.714942 -0.106455 0.285297 -0.6205775 0.7574258 -0.2029528 255 255 255 255 0.324992 0.982543
-0.714942 -0.100235 0.30851 -0.6205775 0.7574258 -0.2029528 255 255 255 255 0.330050 0.982543
-0.714942 -0.106455 0.331725 -0.6205813 0.7574304 0.202924 255 255 255 255 0.335110 0.982543
-0.706751 -0.100643 0.335082 -0.6205813 0.7574304 0.202924 255 255 255 255 0.335915 0.980703
-0.706751 -0.093524 0.30851 -0.6205813 0.7574304 0.202924 255 255 255 255 0.330050 0.980703
-0.706751 -0.093524 0.30851 -0.6206003 0.7574158 0.2029201 255 255 255 255 0.330050 0.980703
-0.714942 -0.100235 0.30851 -0.6206003 0.7574158 0.2029201 255 255 255 255 0.330050 0.982543
-0.714942 -0.106455 0.331725 -0.6206003 0.7574158 0.2029201 255 255 255 255 0.335110 0.982543
-0.714942 -0.123449 0.348718 -0.620677 0.5544186 0.5544186 255 255 255 255 0.329823 0.985188
-0.706751 -0.120093 0.354532 -0.620677 0.5544186 0.5544186 255 255 255 255 0.330167 0.982890
-0.706751 -0.100643 0.335082 -0.620677 0.5544186 0.5544186 255 255 255 255 0.324188 0.982773
-0.706751 -0.100643 0.335082 -0.6206079 0.5544423 0.5544723 255 255 255 255 0.324188 0.982773
-0.714942 -0.106455 0.331725 -0.6206079 0.5544423 0.5544723 255 255 255 255 0.324532 0.985074
-0.714942 -0.123449 0.348718 -0.6206079 0.5544423 0.5544723 255 255 255 255 0.329823 0.985188
-0.714942 -0.146663 0.35494 -0.6205813 0.202924 0.7574304 255 255 255 255 0.330167 0.989442
-0.706751 -0.146663 0.36165 -0.6205813 0.202924 0.7574304 255 255 255 255 0.330167 0.987603
-0.706751 -0.120093 0.354532 -0.6205813 0.202924 0.7574304 255 255 255 255 0.324416 0.987603
-0.706751 -0.120093 0.354532 -0.6206953 0.2029514 0.7573295 255 255 255 255 0.324416 0.987603
-0.714942 -0.123449 0.348718 -0.6206953 0.2029514 0.7573295 255 255 255 255 0.325107 0.989442
-0.714942 -0.146663 0.35494 -0.6206953 0.2029514 0.7573295 255 255 255 255 0.330167 0.989442
-0.714942 -0.169878 0.348718 -0.620703 -0.2028929 0.7573389 255 255 255 255 0.335226 0.989442
-0.706751 -0.173233 0.354532 -0.620703 -0.2028929 0.7573389 255 255 255 255 0.336031 0.987603
-0.706751 -0.146663 0.36165 -0.620703 -0.2028929 0.7573389 255 255 255 255 0.330167 0.987603
-0.706751 -0.146663 0.36165 -0.6205736 -0.2029825 0.757421 255 255 255 255 0.330167 0.987603
-0.714942 -0.146663 0.35494 -0.6205736 -0.2029825 0.757421 255 255 255 255 0.330167 0.989442
-0.714942 -0.169878 0.348718 -0.6205736 -0.2029825 0.757421 255 255 255 255 0.335226 0.989442
-0.714942 -0.186872 0.331725 -0.6206664 -0.5544091 0.5544401 255 255 255 255 0.336146 0.994042
-0.706751 -0.192684 0.335082 -0.6206664 -0.5544091 0.5544401 255 255 255 255 0.336489 0.991742
-0.706751 -0.173233 0.354532 -0.6206664 -0.5544091 0.5544401 255 255 255 255 0.330511 0.991626
-0.706751 -0.173233 0.354532 -0.6206664 -0.5544091 0.5544401 255 255 255 255 0.330511 0.991626
-0.714942 -0.169878 0.348718 -0.6206664 -0.5544091 0.5544401 255 255 255 255 0.330854 0.993927
-0.714942 -0.186872 0.331725 -0.6206664 -0.5544091 0.5544401 255 255 255 255 0.336146 0.994042
-0.714942 -0.193093 0.30851 -0.6206003 -0.7574158 0.2029201 255 255 255 255 0.330280 0.991397
-0.706751 -0.199804 0.30851 -0.6206003 -0.7574158 0.2029201 255 255 255 255 0.330280 0.989673
-0.706751 -0.192684 0.335082 -0.6206003 -0.7574158 0.2029201 255 255 255 255 0.324532 0.989673
-0.706751 -0.192684 0.335082 -0.6206437 -0.7573711 0.2029545 255 255 255 255 0.324532 0.989673
-0.714942 -0.186872 0.331725 -0.6206437 -0.7573711 0.2029545 255 255 255 255 0.325221 0.991397
-0.714942 -0.193093 0.30851 -0.6206437 -0.7573711 0.2029545 255 255 255 255 0.330280 0.991397
-0.714942 -0.186872 0.285297 -0.6206291 -0.7573843 -0.2029497 255 255 255 255 0.335340 0.991397
-0.706751 -0.192684 0.281941 -0.6206291 -0.7573843 -0.2029497 255 255 255 255 0.336146 0.989673
-0.706751 -0.199804 0.30851 -0.6206291 -0.7573843 -0.2029497 255 255 255 255 0.330280 0.989673
-0.706751 -0.199804 0.30851 -0.6206068 -0.7573936 -0.2029832 255 255 255 255 0.330280 0.989673
-0.714942 -0.193093 0.30851 -0.6206068 -0.7573936 -0.2029832 255 255 255 255 0.330280 0.991397
-0.714942 -0.186872 0.285297 -0.6206068 -0.7573936 -0.2029832 255 255 255 255 0.335340 0.991397
-0.714942 -0.169879 0.268301 -0.6204612 -0.5545089 -0.55457 255 255 255 255 0.329936 0.993927
-0.706751 -0.173233 0.262491 -0.6204612 -0.5545089 -0.55457 255 255 255 255 0.330280 0.991742
-0.706751 -0.192684 0.281941 -0.6204612 -0.5545089 -0.55457 255 255 255 255 0.324303 0.991626
-0.706751 -0.192684 0.281941 -0.6206369 -0.5544717 -0.5544106 255 255 255 255 0.324303 0.991626
-0.714942 -0.186872 0.285297 -0.6206369 -0.5544717 -0.5544106 255 255 255 255 0.324647 0.993927
-0.714942 -0.169879 0.268301 -0.6206369 -0.5544717 -0.5544106 255 255 255 255 0.329936 0.993927
-0.714942 -0.146663 0.262082 -0.6206107 -0.2029535 -0.7573984 255 255 255 255 0.330167 0.987258
-0.706751 -0.146663 0.255371 -0.6206107 -0.2029535 -0.7573984 255 255 255 255 0.330167 0.985419
-0.706751 -0.173233 0.262491 -0.6206107 -0.2029535 -0.7573984 255 255 255 255 0.324303 0.985419
-0.706751 -0.173233 0.262491 -0.6204631 -0.2029252 -0.7575269 255 255 255 255 0.324303 0.985419
-0.714942 -0.169879 0.268301 -0.6204631 -0.2029252 -0.7575269 255 255 255 255 0.325107 0.987258
-0.714942 -0.146663 0.262082 -0.6204631 -0.2029252 -0.7575269 255 255 255 255 0.330167 0.987258
-0.732005 -0.151159 0.184511 -0.8385237 -0.5448651 -6.497451e-09 255 255 255 255 0.122217 0.944158
-0.726152 -0.160166 0.184511 -0.8385237 -0.5448651 -6.497451e-09 255 255 255 255 0.122217 0.945802
-0.726152 -0.160166 0.43251 -0.8385237 -0.5448651 -6.497451e-09 255 255 255 255 0.171028 0.945802
-0.732005 -0.151159 0.43251 -0.8385237 -0.5448651 -6.497451e-09 255 255 255 255 0.171028 0.944158
-0.716129 -0.164015 0.43251 -0.3584734 -0.9335399 -1.113235e-08 255 255 255 255 0.171028 0.947445
-0.726152 -0.160166 0.43251 -0.3584734 -0.9335399 -1.113235e-08 255 255 255 255 0.171028 0.945802
-0.726152 -0.160166 0.184511 -0.3584734 -0.9335399 -1.113235e-08 255 255 255 255 0.122217 0.945802
-0.716129 -0.164015 0.184511 -0.3584734 -0.9335399 -1.113235e-08 255 255 255 255 0.122217 0.947445
-0.716129 -0.164015 0.184511 0.2588022 -0.9659304 -1.15186e-08 255 255 255 255 0.122217 0.947445
-0.705757 -0.161236 0.184511 0.2588022 -0.9659304 -1.15186e-08 255 255 255 255 0.122217 0.949040
-0.705757 -0.161236 0.43251 0.2588022 -0.9659304 -1.15186e-08 255 255 255 255 0.171028 0.949040
-0.716129 -0.164015 0.43251 0.2588022 -0.9659304 -1.15186e-08 255 255 255 255 0.171028 0.947445
-0.705757 -0.161236 0.184511 0.7771782 -0.6292806 -7.504096e-09 255 255 255 255 0.122217 0.949040
-0.699 -0.15289 0.184511 0.7771782 -0.6292806 -7.504096e-09 255 255 255 255 0.122217 0.950635
-0.699 -0.15289 0.43251 0.7771782 -0.6292806 -7.504096e-09 255 255 255 255 0.171028 0.950635
-0.705757 -0.161236 0.43251 0.7771782 -0.6292806 -7.504096e-09 255 255 255 255 0.171028 0.949040
-0.699 -0.15289 0.184511 0.9986181 -0.05255416 -6.267021e-10 255 255 255 255 0.122217 0.950635
-0.698435 -0.142165 0.184511 0.9986181 -0.05255416 -6.267021e-10 255 255 255 255 0.122217 0.952278
-0.698435 -0.142165 0.43251 0.9986181 -0.05255416 -6.267021e-10 255 255 255 255 0.171028 0.952278
-0.699 -0.15289 0.43251 0.9986181 -0.05255416 -6.267021e-10 255 255 255 255 0.171028 0.950635
-0.704286 -0.133162 0.43251 0.838487 0.5449216 6.498125e-09 255 255 255 255 0.171028 0.953824
-0.698435 -0.142165 0.43251 0.838487 0.5449216 6.498125e-09 255 255 255 255 0.171028 0.952278
-0.698435 -0.142165 0.184511 0.838487 0.5449216 6.498125e-09 255 255 255 255 0.122217 0.952278
-0.704286 -0.133162 0.184511 0.838487 0.5449216 6.498125e-09 255 255 255 255 0.122217 0.953824
-0.714311 -0.129313 0.184511 0.3584473 0.9335499 1.113247e-08 255 255 255 255 0.122217 0.955419
-0.714311 -0.129313 0.43251 0.3584473 0.9335499 1.113247e-08 255 255 255 255 0.171028 0.955419
-0.704286 -0.133162 0.43251 0.3584473 0.9335499 1.113247e-08 255 255 255 255 0.171028 0.953824
-0.704286 -0.133162 0.184511 0.3584473 0.9335499 1.113247e-08 255 255 255 255 0.122217 0.953824
-0.724683 -0.132092 0.43251 -0.2588022 0.9659304 1.15186e-08 255 255 255 255 0.171028 0.941018
-0.714311 -0.129313 0.43251 -0.2588022 0.9659304 1.15186e-08 255 255 255 255 0.171028 0.939470
-0.714311 -0.129313 0.184511 -0.2588022 0.9659304 1.15186e-08 255 255 255 255 0.122217 0.939470
-0.714311 -0.129313 0.184511 -0.2588302 0.9659228 1.151851e-08 255 255 255 255 0.122217 0.939470
-0.724683 -0.132092 0.184511 -0.2588302 0.9659228 1.151851e-08 255 255 255 255 0.122217 0.941018
-0.731439 -0.140438 0.184511 -0.7772322 0.6292139 7.503301e-09 255 255 255 255 0.122217 0.942612
-0.731439 -0.140438 0.43251 -0.7772322 0.6292139 7.503301e-09 255 255 255 255 0.171028 0.942612
-0.724683 -0.132092 0.43251 -0.7772322 0.6292139 7.503301e-09 255 255 255 255 0.171028 0.941018
-0.724683 -0.132092 0.184511 -0.7772322 0.6292139 7.503301e-09 255 255 255 255 0.122217 0.941018
-0.732005 -0.151159 0.43251 -0.9986117 0.05267583 6.28153e-10 255 255 255 255 0.171028 0.944158
-0.731439 -0.140438 0.43251 -0.9986117 0.05267583 6.28153e-10 255 255 255 255 0.171028 0.942612
-0.731439 -0.140438 0.184511 -0.9986117 0.05267583 6.28153e-10 255 255 255 255 0.122217 0.942612
-0.732005 -0.151159 0.184511 -0.9986117 0.05267583 6.28153e-10 255 255 255 255 0.122217 0.944158
-0.732005 -0.151159 0.43251 0 -1.192488e-08 1 255 255 255 255 0.124717 0.934276
-0.726152 -0.160166 0.43251 0 -1.192488e-08 1 255 255 255 255 0.123317 0.934711
-0.716129 -0.164015 0.43251 0 -1.192488e-08 1 255 255 255 255 0.122398 0.935920
-0.716129 -0.164015 0.43251 0 -1.192488e-08 1 255 255 255 255 0.122398 0.935920
-0.705757 -0.161236 0.43251 0 -1.192488e-08 1 255 255 255 255 0.122398 0.937466
-0.699 -0.15289 0.43251 0 -1.192488e-08 1 255 255 255 255 0.123317 0.938674
-0.699 -0.15289 0.43251 0 -1.192488e-08 1 255 255 255 255 0.123317 0.938674
-0.698435 -0.142165 0.43251 0 -1.192488e-08 1 255 255 255 255 0.124717 0.939109
-0.704286 -0.133162 0.43251 0 -1.192488e-08 1 255 255 255 255 0.126169 0.938674
-0.704286 -0.133162 0.43251 0 -1.192488e-08 1 255 255 255 255 0.126169 0.938674
-0.714311 -0.129313 0.43251 0 -1.192488e-08 1 255 255 255 255 0.127039 0.937466
-0.724683 -0.132092 0.43251 0 -1.192488e-08 1 255 255 255 255 0.127039 0.935920
-0.699 -0.15289 0.43251 0 -1.192488e-08 1 255 255 255 255 0.123317 0.938674
-0.704286 -0.133162 0.43251 0 -1.192488e-08 1 255 255 255 255 0.126169 0.938674
-0.724683 -0.132092 0.43251 0 -1.192488e-08 1 255 255 255 255 0.127039 0.935920
-0.716129 -0.164015 0.43251 0 -1.192488e-08 1 255 255 255 255 0.122398 0.935920
-0.699 -0.15289 0.43251 0 -1.192488e-08 1 255 255 255 255 0.123317 0.938674
-0.724683 -0.132092 0.43251 0 -1.192488e-08 1 255 255 255 255 0.127039 0.935920
-0.732005 -0.151159 0.43251 0 -1.192488e-08 1 255 255 255 255 0.124717 0.934276
-0.716129 -0.164015 0.43251 0 -1.192488e-08 1 255 255 255 255 0.122398 0.935920
-0.724683 -0.132092 0.43251 0 -1.192488e-08 1 255 255 255 255 0.127039 0.935920
-0.732005 -0.151159 0.43251 0 -1.192488e-08 1 255 255 255 255 0.124717 0.934276
-0.724683 -0.132092 0.43251 0 -1.192488e-08 1 255 255 255 255 0.127039 0.935920
-0.731439 -0.140438 0.43251 0 -1.192488e-08 1 255 255 255 255 0.126169 0.934711
-0.724683 -0.132092 0.184511 0 1.192488e-08 -1 255 255 255 255 0.122398 0.935920
-0.714311 -0.129313 0.184511 0 1.192488e-08 -1 255 255 255 255 0.122398 0.937466
-0.704286 -0.133162 0.184511 0 1.192488e-08 -1 255 255 255 255 0.123269 0.938674
-0.704286 -0.133162 0.184511 0 1.192488e-08 -1 255 255 255 255 0.123269 0.938674
-0.698435 -0.142165 0.184511 0 1.192488e-08 -1 255 255 255 255 0.124766 0.939109
-0.699 -0.15289 0.184511 0 1.192488e-08 -1 255 255 255 255 0.126169 0.938674
-0.699 -0.15289 0.184511 0 1.192488e-08 -1 255 255 255 255 0.126169 0.938674
-0.705757 -0.161236 0.184511 0 1.192488e-08 -1 255 255 255 255 0.127086 0.937466
-0.716129 -0.164015 0.184511 0 1.192488e-08 -1 255 255 255 255 0.127086 0.935920
-0.716129 -0.164015 0.184511 0 1.192488e-08 -1 255 255 255 255 0.127086 0.935920
-0.726152 -0.160166 0.184511 0 1.192488e-08 -1 255 255 255 255 0.126169 0.934711
-0.732005 -0.151159 0.184511 0 1.192488e-08 -1 255 255 255 255 0.124766 0.934276
-0.699 -0.15289 0.184511 0 1.192488e-08 -1 255 255 255 255 0.126169 0.938674
-0.716129 -0.164015 0.184511 0 1.192488e-08 -1 255 255 255 255 0.127086 0.935920
-0.732005 -0.151159 0.184511 0 1.192488e-08 -1 255 255 255 255 0.124766 0.934276
-0.704286 -0.133162 0.184511 0 1.192488e-08 -1 255 255 255 255 0.123269 0.938674
-0.699 -0.15289 0.184511 0 1.192488e-08 -1 255 255 255 255 0.126169 0.938674
-0.732005 -0.151159 0.184511 0 1.192488e-08 -1 255 255 255 255 0.124766 0.934276
-0.724683 -0.132092 0.184511 0 1.192488e-08 -1 255 255 255 255 0.122398 0.935920
-0.704286 -0.133162 0.184511 0 1.192488e-08 -1 255 255 255 255 0.123269 0.938674
-0.732005 -0.151159 0.184511 0 1.192488e-08 -1 255 255 255 255 0.124766 0.934276
-0.724683 -0.132092 0.184511 0 1.192488e-08 -1 255 255 255 255 0.122398 0.935920
-0.732005 -0.151159 0.184511 0 1.192488e-08 -1 255 255 255 255 0.124766 0.934276
-0.731439 -0.140438 0.184511 0 1.192488e-08 -1 255 255 255 255 0.123269 0.934711
-0.916137 -0.193267 0.481103 -0.259259 0.965804 0.002716054 255 255 255 255 0.273756 0.909286
-0.727947 -0.142584 0.423464 -0.259259 0.965804 0.002716054 255 255 255 255 0.280421 0.932160
-0.728193 -0.142024 0.201047 -0.259259 0.965804 0.002716054 255 255 255 255 0.311112 0.932078
-0.91651 -0.192416 0.143569 -0.259259 0.965804 0.002716054 255 255 255 255 0.318518 0.909286
-0.959498 -0.204908 0.481122 -0.259259 0.965804 0.002716054 255 255 255 255 0.273756 0.904020
-0.95987 -0.204057 0.143587 -0.259259 0.965804 0.002716054 255 255 255 255 0.318518 0.904020
-1.392798 -0.320883 0.35768 -0.259259 0.965804 0.002716054 255 255 255 255 0.290212 0.851690
-1.392898 -0.320656 0.267401 -0.259259 0.9658041 0.002686054 255 255 255 255 0.302061 0.851607
-0.912677 -0.206153 0.481067 0.259259 -0.965804 -0.002716054 255 255 255 255 0.273756 0.909286
-0.913051 -0.205302 0.143532 0.259259 -0.965804 -0.002716054 255 255 255 255 0.318518 0.909286
-0.724734 -0.154909 0.201011 0.259259 -0.965804 -0.002716054 255 255 255 255 0.311112 0.932078
-0.724488 -0.15547 0.423427 0.259259 -0.965804 -0.002716054 255 255 255 255 0.280421 0.932160
-0.956038 -0.217794 0.481086 0.259259 -0.965804 -0.002716054 255 255 255 255 0.273756 0.904020
-0.956411 -0.216942 0.143551 0.259259 -0.965804 -0.002716054 255 255 255 255 0.318518 0.904020
-1.389339 -0.333768 0.357643 0.259259 -0.965804 -0.002716054 255 255 255 255 0.290212 0.851690
-1.38944 -0.333541 0.267365 0.259259 -0.9658041 -0.002686054 255 255 255 255 0.302061 0.851607
-0.913051 -0.205302 0.143532 0.2724426 0.07583901 -0.9591786 255 255 255 255 0.322056 0.873082
-0.91651 -0.192416 0.143569 0.2724426 0.07583901 -0.9591786 255 255 255 255 0.324112 0.873082
-0.728193 -0.142024 0.201047 0.2724426 0.07583901 -0.9591786 255 255 255 255 0.324030 0.851443
-0.728193 -0.142024 0.201047 0.2724716 0.07577774 -0.9591752 255 255 255 255 0.324030 0.851443
-0.724734 -0.154909 0.201011 0.2724716 0.07577774 -0.9591752 255 255 255 255 0.322056 0.851443
-0.913051 -0.205302 0.143532 0.2724716 0.07577774 -0.9591752 255 255 255 255 0.322056 0.873082
-0.724488 -0.15547 0.423427 0.2745808 0.07095748 0.9589424 255 255 255 255 0.319752 0.932490
-0.727947 -0.142584 0.423464 0.2745808 0.07095748 0.9589424 255 255 255 255 0.321809 0.932490
-0.916137 -0.193267 0.481103 0.2745808 0.07095748 0.9589424 255 255 255 255 0.321891 0.908875
-0.916137 -0.193267 0.481103 0.2745796 0.07101818 0.9589382 255 255 255 255 0.321891 0.908875
-0.912677 -0.206153 0.481067 0.2745796 0.07101818 0.9589382 255 255 255 255 0.319834 0.908875
-0.724488 -0.15547 0.423427 0.2745796 0.07101818 0.9589382 255 255 255 255 0.319752 0.932490
-0.956411 -0.216942 0.143551 -0.001068029 0.00250308 -0.9999963 255 255 255 255 0.322056 0.878266
-0.95987 -0.204057 0.143587 -0.001068029 0.00250308 -0.9999963 255 255 255 255 0.324112 0.878266
-0.91651 -0.192416 0.143569 -0.001068029 0.00250308 -0.9999963 255 255 255 255 0.324112 0.873082
-0.91651 -0.192416 0.143569 -0.00109903 0.00250308 -0.9999963 255 255 255 255 0.324112 0.873082
-0.913051 -0.205302 0.143532 -0.00109903 0.00250308 -0.9999963 255 255 255 255 0.322056 0.873082
-0.956411 -0.216942 0.143551 -0.00109903 0.00250308 -0.9999963 255 255 255 255 0.322056 0.878266
-0.912677 -0.206153 0.481067 0.00109903 -0.002472079 0.9999964 255 255 255 255 0.319834 0.908875
-0.916137 -0.193267 0.481103 0.00109903 -0.002472079 0.9999964 255 255 255 255 0.321891 0.908875
-0.959498 -0.204908 0.481122 0.00109903 -0.002472079 0.9999964 255 255 255 255 0.321891 0.903691
-0.959498 -0.204908 0.481122 0.00109903 -0.002472079 0.9999964 255 255 255 255 0.321891 0.903691
-0.956038 -0.217794 0.481086 0.00109903 -0.002472079 0.9999964 255 255 255 255 0.319834 0.903691
-0.912677 -0.206153 0.481067 0.00109903 -0.002472079 0.9999964 255 255 255 255 0.319834 0.908875
-1.38944 -0.333541 0.267365 -0.2577009 -0.06643973 -0.9639378 255 255 255 255 0.322220 0.932490
-1.392898 -0.320656 0.267401 -0.2577009 -0.06643973 -0.9639378 255 255 255 255 0.324277 0.932490
-0.95987 -0.204057 0.143587 -0.2577009 -0.06643973 -0.9639378 255 255 255 255 0.324112 0.878266
-0.95987 -0.204057 0.143587 -0.2577004 -0.0664696 -0.9639359 255 255 255 255 0.324112 0.878266
-0.956411 -0.216942 0.143551 -0.2577004 -0.0664696 -0.9639359 255 255 255 255 0.322056 0.878266
-1.38944 -0.333541 0.267365 -0.2577004 -0.0664696 -0.9639359 255 255 255 255 0.322220 0.932490
-1.389339 -0.333768 0.357643 -0.9658075 -0.2592599 0.0003970045 255 255 255 255 0.317283 0.932572
-1.392798 -0.320883 0.35768 -0.9658075 -0.2592599 0.0003970045 255 255 255 255 0.319258 0.932572
-1.392898 -0.320656 0.267401 -0.9658075 -0.2592599 0.0003970045 255 255 255 255 0.319258 0.918831
-1.392898 -0.320656 0.267401 -0.9658152 -0.259231 0.0003970077 255 255 255 255 0.319258 0.918831
-1.38944 -0.333541 0.267365 -0.9658152 -0.259231 0.0003970077 255 255 255 255 0.317283 0.918831
-1.389339 -0.333768 0.357643 -0.9658152 -0.259231 0.0003970077 255 255 255 255 0.317283 0.932572
-0.956038 -0.217794 0.481086 -0.2555668 -0.07129236 0.9641593 255 255 255 255 0.319834 0.903691
-0.959498 -0.204908 0.481122 -0.2555668 -0.07129236 0.9641593 255 255 255 255 0.321891 0.903691
-1.392798 -0.320883 0.35768 -0.2555668 -0.07129236 0.9641593 255 255 255 255 0.322056 0.853829
-1.392798 -0.320883 0.35768 -0.2555663 -0.07132321 0.9641571 255 255 255 255 0.322056 0.853829
-1.389339 -0.333768 0.357643 -0.2555663 -0.07132321 0.9641571 255 255 255 255 0.319998 0.853829
-0.956038 -0.217794 0.481086 -0.2555663 -0.07132321 0.9641571 255 255 255 255 0.319834 0.903691
3 0 1 2 
3 2 3 0 
3 4 5 1 
3 1 0 4 
3 6 7 5 
3 5 4 6 
3 8 9 10 
3 10 11 8 
3 12 13 14 
3 14 15 12 
3 16 17 18 
3 18 19 16 
3 20 21 17 
3 17 16 20 
3 22 23 21 
3 21 20 22 
3 24 25 26 
3 26 27 24 
3 28 29 30 
3 30 31 28 
3 32 33 34 
3 35 36 32 
3 37 38 33 
3 33 32 37 
3 39 40 41 
3 41 42 43 
3 43 44 45 
3 41 43 45 
3 45 46 47 
3 47 48 49 
3 45 47 49 
3 41 45 49 
3 39 41 49 
3 39 49 50 
3 51 52 53 
3 54 55 56 
3 57 58 59 
3 60 61 62 
3 63 64 65 
3 66 67 68 
3 69 70 71 
3 72 73 74 
3 75 76 77 
3 78 79 80 
3 81 82 83 
3 84 85 86 
3 87 88 89 
3 90 91 92 
3 93 94 95 
3 96 97 98 
3 99 100 101 
3 102 103 104 
3 105 106 107 
3 108 109 110 
3 111 112 113 
3 114 115 116 
3 117 118 119 
3 120 121 122 
3 123 124 125 
3 125 126 123 
3 127 128 129 
3 129 130 127 
3 131 132 133 
3 133 134 131 
3 135 136 137 
3 137 138 135 
3 139 140 141 
3 141 142 139 
3 143 144 145 
3 145 146 143 
3 147 148 149 
3 149 150 147 
3 151 152 153 
3 154 155 151 
3 156 157 158 
3 158 159 156 
3 160 161 162 
3 162 163 160 
3 164 165 166 
3 167 168 169 
3 170 171 172 
3 173 174 175 
3 176 177 178 
3 179 180 181 
3 182 183 184 
3 185 186 187 
3 188 189 190 
3 191 192 193 
3 194 195 196 
3 197 198 199 
3 200 201 202 
3 203 204 205 
3 206 207 208 
3 209 210 211 
3 212 213 214 
3 214 215 212 
3 216 212 215 
3 215 217 216 
3 218 216 217 
3 217 219 218 
3 220 221 222 
3 222 223 220 
3 224 225 221 
3 221 220 224 
3 226 227 225 
3 225 224 226 
3 228 229 230 
3 231 232 233 
3 234 235 236 
3 237 238 239 
3 240 241 242 
3 243 244 245 
3 246 247 248 
3 249 250 251 
3 252 253 254 
3 255 256 257 
3 258 259 260 
3 261 262 263 
3 264 265 266 
3 267 268 269 
