ply
format ascii 1.0
comment VCGLIB generated
comment TextureFile moving_parts.png
element vertex 270
property float x
property float y
property float z
property float nx
property float ny
property float nz
property uchar red
property uchar green
property uchar blue
property uchar alpha
property float texture_u
property float texture_v
element face 120
property list uchar int vertex_indices
end_header
0.793434 -0.02663999 -0.811518 0 0.5000028 -0.8660238 255 255 255 255 0.275875 0.976703
0.793434 -0.05320999 -0.818638 0 0.2588302 -0.9659228 255 255 255 255 0.270586 0.976703
0.704052 -0.05320999 -0.818638 0 0.2588302 -0.9659228 255 255 255 255 0.270586 0.957156
0.704052 -0.02663999 -0.811518 0 0.5000028 -0.8660238 255 255 255 255 0.275875 0.957156
0.793434 -0.00718999 -0.792068 0 0.8660238 -0.5000028 255 255 255 255 0.281165 0.976703
0.704052 -0.00718999 -0.792068 0 0.8660238 -0.5000028 255 255 255 255 0.281165 0.957156
0.793434 -6.999087e-05 -0.7655 0 0.9659228 -0.2588302 255 255 255 255 0.286456 0.976703
0.704052 -6.999087e-05 -0.7655 0 0.9659228 -0.2588302 255 255 255 255 0.286456 0.957156
0.793434 -0.007189991 -0.738927 0 0.9659304 0.2588022 255 255 255 255 0.291629 0.976703
0.793434 -6.999087e-05 -0.7655 0 0.9659304 0.2588022 255 255 255 255 0.286456 0.976703
0.704052 -6.999087e-05 -0.7655 0 0.9659304 0.2588022 255 255 255 255 0.286456 0.957156
0.704052 -0.007189991 -0.738927 0 0.9659304 0.2588022 255 255 255 255 0.291629 0.957156
0.793434 -0.02663999 -0.719478 0 0.7071068 0.7071068 255 255 255 255 0.296918 0.976703
0.793434 -0.007189991 -0.738927 0 0.7071068 0.7071068 255 255 255 255 0.291629 0.976703
0.704052 -0.007189991 -0.738927 0 0.7071068 0.7071068 255 255 255 255 0.291629 0.957156
0.704052 -0.02663999 -0.719478 0 0.7071068 0.7071068 255 255 255 255 0.296918 0.957156
0.793434 -0.05320999 -0.712359 0 -1.192488e-08 1 255 255 255 255 0.302207 0.976703
0.793434 -0.02663999 -0.719478 0 0.2587733 0.9659381 255 255 255 255 0.296918 0.976703
0.704052 -0.02663999 -0.719478 0 0.2587733 0.9659381 255 255 255 255 0.296918 0.957156
0.704052 -0.05320999 -0.712359 0 -1.192488e-08 1 255 255 255 255 0.302207 0.957156
0.793434 -0.07977899 -0.719478 0 -0.4999661 0.866045 255 255 255 255 0.307496 0.976703
0.704052 -0.07977899 -0.719478 0 -0.4999661 0.866045 255 255 255 255 0.307496 0.957156
0.793434 -0.09923099 -0.738927 0 -0.7070913 0.7071223 255 255 255 255 0.312787 0.976703
0.704052 -0.09923099 -0.738927 0 -0.7070763 0.7071373 255 255 255 255 0.312787 0.957156
0.793434 -0.10635 -0.7655 0 -0.9659304 0.2588022 255 255 255 255 0.318075 0.976703
0.793434 -0.09923099 -0.738927 0 -0.9659304 0.2588022 255 255 255 255 0.312787 0.976703
0.704052 -0.09923099 -0.738927 0 -0.9659304 0.2588022 255 255 255 255 0.312787 0.957156
0.704052 -0.10635 -0.7655 0 -0.9659304 0.2588022 255 255 255 255 0.318075 0.957156
0.793434 -0.09923099 -0.792068 0 -0.9659228 -0.2588302 255 255 255 255 0.323364 0.976703
0.793434 -0.10635 -0.7655 0 -0.9659228 -0.2588302 255 255 255 255 0.318075 0.976703
0.704052 -0.10635 -0.7655 0 -0.9659228 -0.2588302 255 255 255 255 0.318075 0.957156
0.704052 -0.09923099 -0.792068 0 -0.9659228 -0.2588302 255 255 255 255 0.323364 0.957156
0.793434 -0.07977899 -0.811518 0 -0.4999894 -0.8660315 255 255 255 255 0.265298 0.976703
0.793434 -0.09923099 -0.792068 0 -0.7070763 -0.7071373 255 255 255 255 0.260007 0.976703
0.704052 -0.09923099 -0.792068 0 -0.7070763 -0.7071373 255 255 255 255 0.260007 0.957156
0.704052 -0.09923099 -0.792068 0 -0.7070763 -0.7071373 255 255 255 255 0.260007 0.957156
0.704052 -0.07977899 -0.811518 0 -0.4999894 -0.8660315 255 255 255 255 0.265298 0.957156
0.793434 -0.05320999 -0.818638 0 -0.2588302 -0.9659228 255 255 255 255 0.270586 0.976703
0.704052 -0.05320999 -0.818638 0 -0.2588302 -0.9659228 255 255 255 255 0.270586 0.957156
0.801624 -0.07642499 -0.805708 1 0 0 255 255 255 255 0.240581 0.971963
0.801624 -0.05320999 -0.811927 1 0 0 255 255 255 255 0.239199 0.966788
0.801624 -0.02999499 -0.805708 1 0 0 255 255 255 255 0.240581 0.961843
0.801624 -0.01300099 -0.788713 1 0 0 255 255 255 255 0.244375 0.958162
0.801624 -0.006780991 -0.7655 1 0 0 255 255 255 255 0.249434 0.956782
0.801624 -0.01300099 -0.742284 1 0 0 255 255 255 255 0.254490 0.958162
0.801624 -0.02999499 -0.725291 1 0 0 255 255 255 255 0.258172 0.961958
0.801624 -0.05320999 -0.71907 1 0 0 255 255 255 255 0.259438 0.967015
0.801624 -0.076424 -0.725291 1 0 0 255 255 255 255 0.258058 0.972076
0.801624 -0.09341799 -0.742284 1 0 0 255 255 255 255 0.254378 0.975757
0.801624 -0.09963899 -0.7655 1 0 0 255 255 255 255 0.249318 0.977021
0.801624 -0.09341799 -0.788713 1 0 0 255 255 255 255 0.244257 0.975642
0.801624 -0.02999499 -0.805708 0.6206043 0.2028904 -0.7574205 255 255 255 255 0.236837 0.966978
0.801624 -0.05320999 -0.811927 0.6206043 0.2028904 -0.7574205 255 255 255 255 0.231779 0.966978
0.793434 -0.05320999 -0.818638 0.6206043 0.2028904 -0.7574205 255 255 255 255 0.231779 0.965140
0.793434 -0.05320999 -0.818638 0.6204891 0.2029846 -0.7574897 255 255 255 255 0.231779 0.965140
0.793434 -0.02663999 -0.811518 0.6204891 0.2029846 -0.7574897 255 255 255 255 0.237527 0.965140
0.801624 -0.02999499 -0.805708 0.6204891 0.2029846 -0.7574897 255 255 255 255 0.236837 0.966978
0.801624 -0.01300099 -0.788713 0.6205199 0.5545371 -0.554476 255 255 255 255 0.237413 0.964908
0.801624 -0.02999499 -0.805708 0.6205199 0.5545371 -0.554476 255 255 255 255 0.232124 0.964795
0.793434 -0.02663999 -0.811518 0.6205199 0.5545371 -0.554476 255 255 255 255 0.231779 0.962494
0.793434 -0.02663999 -0.811518 0.6205784 0.5544738 -0.5544738 255 255 255 255 0.231779 0.962494
0.793434 -0.00718999 -0.792068 0.6205784 0.5544738 -0.5544738 255 255 255 255 0.237759 0.962610
0.801624 -0.01300099 -0.788713 0.6205784 0.5544738 -0.5544738 255 255 255 255 0.237413 0.964908
0.801624 -0.006780991 -0.7655 0.6205775 0.7574258 -0.2029528 255 255 255 255 0.231663 0.962264
0.801624 -0.01300099 -0.788713 0.6205775 0.7574258 -0.2029528 255 255 255 255 0.226605 0.962264
0.793434 -0.00718999 -0.792068 0.6205775 0.7574258 -0.2029528 255 255 255 255 0.225915 0.960423
0.793434 -0.00718999 -0.792068 0.6206107 0.7573984 -0.2029535 255 255 255 255 0.225915 0.960423
0.793434 -6.999087e-05 -0.7655 0.6206107 0.7573984 -0.2029535 255 255 255 255 0.231663 0.960423
0.801624 -0.006780991 -0.7655 0.6206107 0.7573984 -0.2029535 255 255 255 255 0.231663 0.962264
0.801624 -0.01300099 -0.742284 0.6206003 0.7574158 0.2029201 255 255 255 255 0.236721 0.962264
0.801624 -0.006780991 -0.7655 0.6206003 0.7574158 0.2029201 255 255 255 255 0.231663 0.962264
0.793434 -6.999087e-05 -0.7655 0.6206003 0.7574158 0.2029201 255 255 255 255 0.231663 0.960423
0.793434 -6.999087e-05 -0.7655 0.6205813 0.7574304 0.202924 255 255 255 255 0.231663 0.960423
0.793434 -0.007189991 -0.738927 0.6205813 0.7574304 0.202924 255 255 255 255 0.237527 0.960423
0.801624 -0.01300099 -0.742284 0.6205813 0.7574304 0.202924 255 255 255 255 0.236721 0.962264
0.801624 -0.02999499 -0.725291 0.6206079 0.5544423 0.5544723 255 255 255 255 0.231435 0.964908
0.801624 -0.01300099 -0.742284 0.6206079 0.5544423 0.5544723 255 255 255 255 0.226144 0.964795
0.793434 -0.007189991 -0.738927 0.6206079 0.5544423 0.5544723 255 255 255 255 0.225800 0.962494
0.793434 -0.007189991 -0.738927 0.6206664 0.5544091 0.5544401 255 255 255 255 0.225800 0.962494
0.793434 -0.02663999 -0.719478 0.6206664 0.5544091 0.5544401 255 255 255 255 0.231779 0.962610
0.801624 -0.02999499 -0.725291 0.6206664 0.5544091 0.5544401 255 255 255 255 0.231435 0.964908
0.801624 -0.05320999 -0.71907 0.6206953 0.2029514 0.7573295 255 255 255 255 0.231779 0.969163
0.801624 -0.02999499 -0.725291 0.6206953 0.2029514 0.7573295 255 255 255 255 0.226719 0.969163
0.793434 -0.02663999 -0.719478 0.6206953 0.2029514 0.7573295 255 255 255 255 0.226028 0.967323
0.793434 -0.02663999 -0.719478 0.6205813 0.202924 0.7574304 255 255 255 255 0.226028 0.967323
0.793434 -0.05320999 -0.712359 0.6205813 0.202924 0.7574304 255 255 255 255 0.231779 0.967323
0.801624 -0.05320999 -0.71907 0.6205813 0.202924 0.7574304 255 255 255 255 0.231779 0.969163
0.801624 -0.076424 -0.725291 0.6205736 -0.2029825 0.757421 255 255 255 255 0.236837 0.969163
0.801624 -0.05320999 -0.71907 0.6205736 -0.2029825 0.757421 255 255 255 255 0.231779 0.969163
0.793434 -0.05320999 -0.712359 0.6205736 -0.2029825 0.757421 255 255 255 255 0.231779 0.967323
0.793434 -0.05320999 -0.712359 0.6206704 -0.2028921 0.7573659 255 255 255 255 0.231779 0.967323
0.793434 -0.07977899 -0.719478 0.6206704 -0.2028921 0.7573659 255 255 255 255 0.237643 0.967323
0.801624 -0.076424 -0.725291 0.6206704 -0.2028921 0.7573659 255 255 255 255 0.236837 0.969163
0.801624 -0.09341799 -0.742284 0.6206664 -0.5544091 0.5544401 255 255 255 255 0.237759 0.973763
0.801624 -0.076424 -0.725291 0.6206664 -0.5544091 0.5544401 255 255 255 255 0.232467 0.973648
0.793434 -0.07977899 -0.719478 0.6206664 -0.5544091 0.5544401 255 255 255 255 0.232124 0.971347
0.793434 -0.07977899 -0.719478 0.6206664 -0.5544091 0.5544401 255 255 255 255 0.232124 0.971347
0.793434 -0.09923099 -0.738927 0.6206664 -0.5544091 0.5544401 255 255 255 255 0.238102 0.971463
0.801624 -0.09341799 -0.742284 0.6206664 -0.5544091 0.5544401 255 255 255 255 0.237759 0.973763
0.801624 -0.09963899 -0.7655 0.6206437 -0.7573711 0.2029545 255 255 255 255 0.231892 0.971118
0.801624 -0.09341799 -0.742284 0.6206437 -0.7573711 0.2029545 255 255 255 255 0.226834 0.971118
0.793434 -0.09923099 -0.738927 0.6206437 -0.7573711 0.2029545 255 255 255 255 0.226144 0.969394
0.793434 -0.09923099 -0.738927 0.6206003 -0.7574158 0.2029201 255 255 255 255 0.226144 0.969394
0.793434 -0.10635 -0.7655 0.6206003 -0.7574158 0.2029201 255 255 255 255 0.231892 0.969394
0.801624 -0.09963899 -0.7655 0.6206003 -0.7574158 0.2029201 255 255 255 255 0.231892 0.971118
0.801624 -0.09341799 -0.788713 0.6205877 -0.7574082 -0.2029871 255 255 255 255 0.236953 0.971118
0.801624 -0.09963899 -0.7655 0.6205877 -0.7574082 -0.2029871 255 255 255 255 0.231892 0.971118
0.793434 -0.10635 -0.7655 0.6205877 -0.7574082 -0.2029871 255 255 255 255 0.231892 0.969394
0.793434 -0.10635 -0.7655 0.6206291 -0.7573843 -0.2029497 255 255 255 255 0.231892 0.969394
0.793434 -0.09923099 -0.792068 0.6206291 -0.7573843 -0.2029497 255 255 255 255 0.237759 0.969394
0.801624 -0.09341799 -0.788713 0.6206291 -0.7573843 -0.2029497 255 255 255 255 0.236953 0.971118
0.801624 -0.07642499 -0.805708 0.6206185 -0.5544819 -0.5544209 255 255 255 255 0.231549 0.973648
0.801624 -0.09341799 -0.788713 0.6206185 -0.5544819 -0.5544209 255 255 255 255 0.226259 0.973648
0.793434 -0.09923099 -0.792068 0.6206185 -0.5544819 -0.5544209 255 255 255 255 0.225915 0.971347
0.793434 -0.09923099 -0.792068 0.6204908 -0.5545079 -0.5545378 255 255 255 255 0.225915 0.971347
0.793434 -0.07977899 -0.811518 0.6204908 -0.5545079 -0.5545378 255 255 255 255 0.231892 0.971463
0.801624 -0.07642499 -0.805708 0.6204908 -0.5545079 -0.5545378 255 255 255 255 0.231549 0.973648
0.801624 -0.05320999 -0.811927 0.6204821 -0.2029213 -0.7575123 255 255 255 255 0.231779 0.966978
0.801624 -0.07642499 -0.805708 0.6204821 -0.2029213 -0.7575123 255 255 255 255 0.226719 0.966978
0.793434 -0.07977899 -0.811518 0.6204821 -0.2029213 -0.7575123 255 255 255 255 0.225915 0.965140
0.793434 -0.07977899 -0.811518 0.6205775 -0.2029528 -0.7574258 255 255 255 255 0.225915 0.965140
0.793434 -0.05320999 -0.818638 0.6205775 -0.2029528 -0.7574258 255 255 255 255 0.231779 0.965140
0.801624 -0.05320999 -0.811927 0.6205775 -0.2029528 -0.7574258 255 255 255 255 0.231779 0.966978
0.818687 -0.05770599 -0.889498 0.838533 -0.5448509 -6.497282e-09 255 255 255 255 0.172158 0.961096
0.818687 -0.05770599 -0.641499 0.838533 -0.5448509 -6.497282e-09 255 255 255 255 0.220970 0.961096
0.812835 -0.06671199 -0.641499 0.838533 -0.5448509 -6.497282e-09 255 255 255 255 0.220970 0.962740
0.812835 -0.06671199 -0.889498 0.838533 -0.5448509 -6.497282e-09 255 255 255 255 0.172158 0.962740
0.802812 -0.07056099 -0.641499 0.3584734 -0.9335399 -1.113235e-08 255 255 255 255 0.220970 0.964383
0.802812 -0.07056099 -0.889498 0.3584734 -0.9335399 -1.113235e-08 255 255 255 255 0.172158 0.964383
0.812835 -0.06671199 -0.889498 0.3584734 -0.9335399 -1.113235e-08 255 255 255 255 0.172158 0.962740
0.812835 -0.06671199 -0.641499 0.3584734 -0.9335399 -1.113235e-08 255 255 255 255 0.220970 0.962740
0.802812 -0.07056099 -0.889498 -0.2588022 -0.9659304 -1.15186e-08 255 255 255 255 0.172158 0.964383
0.802812 -0.07056099 -0.641499 -0.2588022 -0.9659304 -1.15186e-08 255 255 255 255 0.220970 0.964383
0.79244 -0.06778199 -0.641499 -0.2588022 -0.9659304 -1.15186e-08 255 255 255 255 0.220970 0.965977
0.79244 -0.06778199 -0.889498 -0.2588022 -0.9659304 -1.15186e-08 255 255 255 255 0.172158 0.965977
0.79244 -0.06778199 -0.889498 -0.7771901 -0.6292659 -7.503921e-09 255 255 255 255 0.172158 0.965977
0.79244 -0.06778199 -0.641499 -0.7771901 -0.6292659 -7.503921e-09 255 255 255 255 0.220970 0.965977
0.785683 -0.05943699 -0.641499 -0.7771901 -0.6292659 -7.503921e-09 255 255 255 255 0.220970 0.967572
0.785683 -0.05943699 -0.889498 -0.7771901 -0.6292659 -7.503921e-09 255 255 255 255 0.172158 0.967572
0.785683 -0.05943699 -0.889498 -0.9986165 -0.05258408 -6.270588e-10 255 255 255 255 0.172158 0.967572
0.785683 -0.05943699 -0.641499 -0.9986165 -0.05258408 -6.270588e-10 255 255 255 255 0.220970 0.967572
0.785118 -0.04871099 -0.641499 -0.9986165 -0.05258408 -6.270588e-10 255 255 255 255 0.220970 0.969216
0.785118 -0.04871099 -0.889498 -0.9986165 -0.05258408 -6.270588e-10 255 255 255 255 0.172158 0.969216
0.790969 -0.03970799 -0.641499 -0.8384636 0.5449576 6.498554e-09 255 255 255 255 0.220970 0.970762
0.790969 -0.03970799 -0.889498 -0.8384636 0.5449576 6.498554e-09 255 255 255 255 0.172158 0.970762
0.785118 -0.04871099 -0.889498 -0.8384636 0.5449576 6.498554e-09 255 255 255 255 0.172158 0.969216
0.785118 -0.04871099 -0.641499 -0.8384636 0.5449576 6.498554e-09 255 255 255 255 0.220970 0.969216
0.800994 -0.03585899 -0.889498 -0.3584473 0.9335499 1.113247e-08 255 255 255 255 0.172158 0.972357
0.790969 -0.03970799 -0.889498 -0.3584473 0.9335499 1.113247e-08 255 255 255 255 0.172158 0.970762
0.790969 -0.03970799 -0.641499 -0.3584473 0.9335499 1.113247e-08 255 255 255 255 0.220970 0.970762
0.800994 -0.03585899 -0.641499 -0.3584473 0.9335499 1.113247e-08 255 255 255 255 0.220970 0.972357
0.811365 -0.03863799 -0.641499 0.2588022 0.9659304 1.15186e-08 255 255 255 255 0.220970 0.957955
0.811365 -0.03863799 -0.889498 0.2588022 0.9659304 1.15186e-08 255 255 255 255 0.172158 0.957955
0.800994 -0.03585899 -0.889498 0.2588022 0.9659304 1.15186e-08 255 255 255 255 0.172158 0.956408
0.800994 -0.03585899 -0.889498 0.2588022 0.9659304 1.15186e-08 255 255 255 255 0.172158 0.956408
0.800994 -0.03585899 -0.641499 0.2588022 0.9659304 1.15186e-08 255 255 255 255 0.220970 0.956408
0.818121 -0.04698399 -0.889498 0.7772469 0.6291958 7.503085e-09 255 255 255 255 0.172158 0.959549
0.811365 -0.03863799 -0.889498 0.7772469 0.6291958 7.503085e-09 255 255 255 255 0.172158 0.957955
0.811365 -0.03863799 -0.641499 0.7772469 0.6291958 7.503085e-09 255 255 255 255 0.220970 0.957955
0.818121 -0.04698399 -0.641499 0.7772469 0.6291958 7.503085e-09 255 255 255 255 0.220970 0.959549
0.818687 -0.05770599 -0.641499 0.9986117 0.05267583 6.28153e-10 255 255 255 255 0.220970 0.961096
0.818687 -0.05770599 -0.889498 0.9986117 0.05267583 6.28153e-10 255 255 255 255 0.172158 0.961096
0.818121 -0.04698399 -0.889498 0.9986117 0.05267583 6.28153e-10 255 255 255 255 0.172158 0.959549
0.818121 -0.04698399 -0.641499 0.9986117 0.05267583 6.28153e-10 255 255 255 255 0.220970 0.959549
0.818687 -0.05770599 -0.641499 0 -1.192488e-08 1 255 255 255 255 0.140152 0.934318
0.818121 -0.04698399 -0.641499 0 -1.192488e-08 1 255 255 255 255 0.141604 0.934753
0.811365 -0.03863799 -0.641499 0 -1.192488e-08 1 255 255 255 255 0.142474 0.935962
0.811365 -0.03863799 -0.641499 0 -1.192488e-08 1 255 255 255 255 0.142474 0.935962
0.800994 -0.03585899 -0.641499 0 -1.192488e-08 1 255 255 255 255 0.142474 0.937508
0.790969 -0.03970799 -0.641499 0 -1.192488e-08 1 255 255 255 255 0.141604 0.938716
0.790969 -0.03970799 -0.641499 0 -1.192488e-08 1 255 255 255 255 0.141604 0.938716
0.785118 -0.04871099 -0.641499 0 -1.192488e-08 1 255 255 255 255 0.140152 0.939151
0.785683 -0.05943699 -0.641499 0 -1.192488e-08 1 255 255 255 255 0.138753 0.938716
0.811365 -0.03863799 -0.641499 0 -1.192488e-08 1 255 255 255 255 0.142474 0.935962
0.790969 -0.03970799 -0.641499 0 -1.192488e-08 1 255 255 255 255 0.141604 0.938716
0.785683 -0.05943699 -0.641499 0 -1.192488e-08 1 255 255 255 255 0.138753 0.938716
0.785683 -0.05943699 -0.641499 0 -1.192488e-08 1 255 255 255 255 0.138753 0.938716
0.79244 -0.06778199 -0.641499 0 -1.192488e-08 1 255 255 255 255 0.137833 0.937508
0.802812 -0.07056099 -0.641499 0 -1.192488e-08 1 255 255 255 255 0.137833 0.935962
0.811365 -0.03863799 -0.641499 0 -1.192488e-08 1 255 255 255 255 0.142474 0.935962
0.785683 -0.05943699 -0.641499 0 -1.192488e-08 1 255 255 255 255 0.138753 0.938716
0.802812 -0.07056099 -0.641499 0 -1.192488e-08 1 255 255 255 255 0.137833 0.935962
0.818687 -0.05770599 -0.641499 0 -1.192488e-08 1 255 255 255 255 0.140152 0.934318
0.811365 -0.03863799 -0.641499 0 -1.192488e-08 1 255 255 255 255 0.142474 0.935962
0.802812 -0.07056099 -0.641499 0 -1.192488e-08 1 255 255 255 255 0.137833 0.935962
0.818687 -0.05770599 -0.641499 0 -1.192488e-08 1 255 255 255 255 0.140152 0.934318
0.802812 -0.07056099 -0.641499 0 -1.192488e-08 1 255 255 255 255 0.137833 0.935962
0.812835 -0.06671199 -0.641499 0 -1.192488e-08 1 255 255 255 255 0.138753 0.934753
0.811365 -0.03863799 -0.889498 0 1.192488e-08 -1 255 255 255 255 0.137833 0.935962
0.818121 -0.04698399 -0.889498 0 1.192488e-08 -1 255 255 255 255 0.138704 0.934753
0.818687 -0.05770599 -0.889498 0 1.192488e-08 -1 255 255 255 255 0.140202 0.934318
0.818687 -0.05770599 -0.889498 0 1.192488e-08 -1 255 255 255 255 0.140202 0.934318
0.812835 -0.06671199 -0.889498 0 1.192488e-08 -1 255 255 255 255 0.141604 0.934753
0.802812 -0.07056099 -0.889498 0 1.192488e-08 -1 255 255 255 255 0.142521 0.935962
0.802812 -0.07056099 -0.889498 0 1.192488e-08 -1 255 255 255 255 0.142521 0.935962
0.79244 -0.06778199 -0.889498 0 1.192488e-08 -1 255 255 255 255 0.142521 0.937508
0.785683 -0.05943699 -0.889498 0 1.192488e-08 -1 255 255 255 255 0.141604 0.938716
0.818687 -0.05770599 -0.889498 0 1.192488e-08 -1 255 255 255 255 0.140202 0.934318
0.802812 -0.07056099 -0.889498 0 1.192488e-08 -1 255 255 255 255 0.142521 0.935962
0.785683 -0.05943699 -0.889498 0 1.192488e-08 -1 255 255 255 255 0.141604 0.938716
0.785683 -0.05943699 -0.889498 0 1.192488e-08 -1 255 255 255 255 0.141604 0.938716
0.785118 -0.04871099 -0.889498 0 1.192488e-08 -1 255 255 255 255 0.140202 0.939151
0.790969 -0.03970799 -0.889498 0 1.192488e-08 -1 255 255 255 255 0.138704 0.938716
0.818687 -0.05770599 -0.889498 0 1.192488e-08 -1 255 255 255 255 0.140202 0.934318
0.785683 -0.05943699 -0.889498 0 1.192488e-08 -1 255 255 255 255 0.141604 0.938716
0.790969 -0.03970799 -0.889498 0 1.192488e-08 -1 255 255 255 255 0.138704 0.938716
0.811365 -0.03863799 -0.889498 0 1.192488e-08 -1 255 255 255 255 0.137833 0.935962
0.818687 -0.05770599 -0.889498 0 1.192488e-08 -1 255 255 255 255 0.140202 0.934318
0.790969 -0.03970799 -0.889498 0 1.192488e-08 -1 255 255 255 255 0.138704 0.938716
0.811365 -0.03863799 -0.889498 0 1.192488e-08 -1 255 255 255 255 0.137833 0.935962
0.790969 -0.03970799 -0.889498 0 1.192488e-08 -1 255 255 255 255 0.138704 0.938716
0.800994 -0.03585899 -0.889498 0 1.192488e-08 -1 255 255 255 255 0.137833 0.937508
1.00282 -0.09981399 -0.592906 0.259259 0.965804 0.002716054 255 255 255 255 0.169055 0.908968
1.003192 -0.09896199 -0.93044 0.259259 0.965804 0.002716054 255 255 255 255 0.213816 0.908968
0.814876 -0.04856999 -0.872963 0.259259 0.965804 0.002716054 255 255 255 255 0.206412 0.931760
0.814629 -0.04912999 -0.650545 0.259259 0.965804 0.002716054 255 255 255 255 0.175721 0.931842
1.046181 -0.111454 -0.592888 0.259259 0.965804 0.002716054 255 255 255 255 0.169055 0.903702
1.046553 -0.110603 -0.930422 0.259259 0.965804 0.002716054 255 255 255 255 0.213816 0.903702
1.479481 -0.227429 -0.71633 0.259259 0.965804 0.002716054 255 255 255 255 0.185512 0.851371
1.479581 -0.227202 -0.806608 0.259259 0.9658041 0.002686054 255 255 255 255 0.197360 0.851289
0.99936 -0.1127 -0.592942 -0.259259 -0.965804 -0.002716054 255 255 255 255 0.169055 0.908968
0.811171 -0.06201599 -0.650582 -0.259259 -0.965804 -0.002716054 255 255 255 255 0.175721 0.931842
0.811417 -0.06145599 -0.872998 -0.259259 -0.965804 -0.002716054 255 255 255 255 0.206412 0.931760
0.999734 -0.111848 -0.930477 -0.259259 -0.965804 -0.002716054 255 255 255 255 0.213816 0.908968
1.042721 -0.12434 -0.592924 -0.259259 -0.965804 -0.002716054 255 255 255 255 0.169055 0.903702
1.043094 -0.123489 -0.930458 -0.259259 -0.965804 -0.002716054 255 255 255 255 0.213816 0.903702
1.476022 -0.240314 -0.716366 -0.259259 -0.965804 -0.002716054 255 255 255 255 0.185512 0.851371
1.476122 -0.240088 -0.806644 -0.259259 -0.9658041 -0.002686054 255 255 255 255 0.197360 0.851289
0.999734 -0.111848 -0.930477 -0.272471 0.07580856 -0.9591729 255 255 255 255 0.217355 0.872764
0.811417 -0.06145599 -0.872998 -0.272471 0.07580856 -0.9591729 255 255 255 255 0.217355 0.851124
0.814876 -0.04856999 -0.872963 -0.272471 0.07580856 -0.9591729 255 255 255 255 0.219330 0.851124
0.814876 -0.04856999 -0.872963 -0.2724426 0.07583901 -0.9591786 255 255 255 255 0.219330 0.851124
1.003192 -0.09896199 -0.93044 -0.2724426 0.07583901 -0.9591786 255 255 255 255 0.219412 0.872764
0.999734 -0.111848 -0.930477 -0.2724426 0.07583901 -0.9591786 255 255 255 255 0.217355 0.872764
0.811171 -0.06201599 -0.650582 -0.2745796 0.07101818 0.9589382 255 255 255 255 0.215051 0.932171
0.99936 -0.1127 -0.592942 -0.2745796 0.07101818 0.9589382 255 255 255 255 0.215133 0.908557
1.00282 -0.09981399 -0.592906 -0.2745796 0.07101818 0.9589382 255 255 255 255 0.217190 0.908557
1.00282 -0.09981399 -0.592906 -0.2745808 0.07095748 0.9589424 255 255 255 255 0.217190 0.908557
0.814629 -0.04912999 -0.650545 -0.2745808 0.07095748 0.9589424 255 255 255 255 0.217108 0.932171
0.811171 -0.06201599 -0.650582 -0.2745808 0.07095748 0.9589424 255 255 255 255 0.215051 0.932171
1.043094 -0.123489 -0.930458 0.00109903 0.002533081 -0.9999962 255 255 255 255 0.217355 0.877948
0.999734 -0.111848 -0.930477 0.00109903 0.002533081 -0.9999962 255 255 255 255 0.217355 0.872764
1.003192 -0.09896199 -0.93044 0.00109903 0.002533081 -0.9999962 255 255 255 255 0.219412 0.872764
1.003192 -0.09896199 -0.93044 0.001068029 0.002472079 -0.9999964 255 255 255 255 0.219412 0.872764
1.046553 -0.110603 -0.930422 0.001068029 0.002472079 -0.9999964 255 255 255 255 0.219412 0.877948
1.043094 -0.123489 -0.930458 0.001068029 0.002472079 -0.9999964 255 255 255 255 0.217355 0.877948
0.99936 -0.1127 -0.592942 -0.00109903 -0.00250308 0.9999963 255 255 255 255 0.215133 0.908557
1.042721 -0.12434 -0.592924 -0.00109903 -0.00250308 0.9999963 255 255 255 255 0.215133 0.903373
1.046181 -0.111454 -0.592888 -0.00109903 -0.00250308 0.9999963 255 255 255 255 0.217190 0.903373
1.046181 -0.111454 -0.592888 -0.00109903 -0.002472079 0.9999964 255 255 255 255 0.217190 0.903373
1.00282 -0.09981399 -0.592906 -0.00109903 -0.002472079 0.9999964 255 255 255 255 0.217190 0.908557
0.99936 -0.1127 -0.592942 -0.00109903 -0.002472079 0.9999964 255 255 255 255 0.215133 0.908557
1.476122 -0.240088 -0.806644 0.2577004 -0.0664696 -0.9639359 255 255 255 255 0.217519 0.932171
1.043094 -0.123489 -0.930458 0.2577004 -0.0664696 -0.9639359 255 255 255 255 0.217355 0.877948
1.046553 -0.110603 -0.930422 0.2577004 -0.0664696 -0.9639359 255 255 255 255 0.219412 0.877948
1.046553 -0.110603 -0.930422 0.2577009 -0.06643973 -0.9639378 255 255 255 255 0.219412 0.877948
1.479581 -0.227202 -0.806608 0.2577009 -0.06643973 -0.9639378 255 255 255 255 0.219577 0.932171
1.476122 -0.240088 -0.806644 0.2577009 -0.06643973 -0.9639378 255 255 255 255 0.217519 0.932171
1.476022 -0.240314 -0.716366 0.9658075 -0.2592599 0.0003970045 255 255 255 255 0.212582 0.932254
1.476122 -0.240088 -0.806644 0.9658075 -0.2592599 0.0003970045 255 255 255 255 0.212582 0.918512
1.479581 -0.227202 -0.806608 0.9658075 -0.2592599 0.0003970045 255 255 255 255 0.214557 0.918512
1.479581 -0.227202 -0.806608 0.9658075 -0.2592599 0.0003970045 255 255 255 255 0.214557 0.918512
1.479481 -0.227429 -0.71633 0.9658075 -0.2592599 0.0003970045 255 255 255 255 0.214557 0.932254
1.476022 -0.240314 -0.716366 0.9658075 -0.2592599 0.0003970045 255 255 255 255 0.212582 0.932254
1.042721 -0.12434 -0.592924 0.2555663 -0.07132321 0.9641571 255 255 255 255 0.215133 0.903373
1.476022 -0.240314 -0.716366 0.2555663 -0.07132321 0.9641571 255 255 255 255 0.215298 0.853510
1.479481 -0.227429 -0.71633 0.2555663 -0.07132321 0.9641571 255 255 255 255 0.217355 0.853510
1.479481 -0.227429 -0.71633 0.2555663 -0.07132321 0.9641571 255 255 255 255 0.217355 0.853510
1.046181 -0.111454 -0.592888 0.2555663 -0.07132321 0.9641571 255 255 255 255 0.217190 0.903373
1.042721 -0.12434 -0.592924 0.2555663 -0.07132321 0.9641571 255 255 255 255 0.215133 0.903373
3 0 1 2 
3 2 3 0 
3 4 0 3 
3 3 5 4 
3 6 4 5 
3 5 7 6 
3 8 9 10 
3 10 11 8 
3 12 13 14 
3 14 15 12 
3 16 17 18 
3 18 19 16 
3 20 16 19 
3 19 21 20 
3 22 20 21 
3 21 23 22 
3 24 25 26 
3 26 27 24 
3 28 29 30 
3 30 31 28 
3 32 33 34 
3 35 36 32 
3 37 32 36 
3 36 38 37 
3 39 40 41 
3 41 42 43 
3 43 44 45 
3 41 43 45 
3 45 46 47 
3 47 48 49 
3 45 47 49 
3 41 45 49 
3 39 41 49 
3 39 49 50 
3 51 52 53 
3 54 55 56 
3 57 58 59 
3 60 61 62 
3 63 64 65 
3 66 67 68 
3 69 70 71 
3 72 73 74 
3 75 76 77 
3 78 79 80 
3 81 82 83 
3 84 85 86 
3 87 88 89 
3 90 91 92 
3 93 94 95 
3 96 97 98 
3 99 100 101 
3 102 103 104 
3 105 106 107 
3 108 109 110 
3 111 112 113 
3 114 115 116 
3 117 118 119 
3 120 121 122 
3 123 124 125 
3 125 126 123 
3 127 128 129 
3 129 130 127 
3 131 132 133 
3 133 134 131 
3 135 136 137 
3 137 138 135 
3 139 140 141 
3 141 142 139 
3 143 144 145 
3 145 146 143 
3 147 148 149 
3 149 150 147 
3 151 152 153 
3 154 155 151 
3 156 157 158 
3 158 159 156 
3 160 161 162 
3 162 163 160 
3 164 165 166 
3 167 168 169 
3 170 171 172 
3 173 174 175 
3 176 177 178 
3 179 180 181 
3 182 183 184 
3 185 186 187 
3 188 189 190 
3 191 192 193 
3 194 195 196 
3 197 198 199 
3 200 201 202 
3 203 204 205 
3 206 207 208 
3 209 210 211 
3 212 213 214 
3 214 215 212 
3 216 217 213 
3 213 212 216 
3 218 219 217 
3 217 216 218 
3 220 221 222 
3 222 223 220 
3 224 220 223 
3 223 225 224 
3 226 224 225 
3 225 227 226 
3 228 229 230 
3 231 232 233 
3 234 235 236 
3 237 238 239 
3 240 241 242 
3 243 244 245 
3 246 247 248 
3 249 250 251 
3 252 253 254 
3 255 256 257 
3 258 259 260 
3 261 262 263 
3 264 265 266 
3 267 268 269 
