ply
format ascii 1.0
comment VCGLIB generated
comment TextureFile moving_parts.png
element vertex 270
property float x
property float y
property float z
property float nx
property float ny
property float nz
property uchar red
property uchar green
property uchar blue
property uchar alpha
property float texture_u
property float texture_v
element face 120
property list uchar int vertex_indices
end_header
0.706751 -0.120093 0.262491 0 0.5000028 -0.8660238 255 255 255 255 0.275763 0.956089
0.706751 -0.146663 0.255371 0 0.2588302 -0.9659228 255 255 255 255 0.270474 0.956089
0.617369 -0.146663 0.255371 0 0.2588302 -0.9659228 255 255 255 255 0.270474 0.936542
0.617369 -0.120093 0.262491 0 0.5000028 -0.8660238 255 255 255 255 0.275763 0.936542
0.706751 -0.100643 0.281941 0 0.8660238 -0.5000028 255 255 255 255 0.281053 0.956089
0.617369 -0.100643 0.281941 0 0.8660238 -0.5000028 255 255 255 255 0.281053 0.936542
0.706751 -0.093524 0.30851 0 0.9659228 -0.2588302 255 255 255 255 0.286344 0.956089
0.617369 -0.093524 0.30851 0 0.9659228 -0.2588302 255 255 255 255 0.286344 0.936542
0.706751 -0.100643 0.335082 0 0.9659304 0.2588022 255 255 255 255 0.291517 0.956089
0.706751 -0.093524 0.30851 0 0.9659304 0.2588022 255 255 255 255 0.286344 0.956089
0.617369 -0.093524 0.30851 0 0.9659304 0.2588022 255 255 255 255 0.286344 0.936542
0.617369 -0.100643 0.335082 0 0.9659304 0.2588022 255 255 255 255 0.291517 0.936542
0.706751 -0.120093 0.354532 0 0.7071068 0.7071068 255 255 255 255 0.296806 0.956089
0.706751 -0.100643 0.335082 0 0.7071068 0.7071068 255 255 255 255 0.291517 0.956089
0.617369 -0.100643 0.335082 0 0.7071068 0.7071068 255 255 255 255 0.291517 0.936542
0.617369 -0.120093 0.354532 0 0.7071068 0.7071068 255 255 255 255 0.296806 0.936542
0.706751 -0.146663 0.36165 0 -1.192488e-08 1 255 255 255 255 0.302095 0.956089
0.706751 -0.120093 0.354532 0 0.2587733 0.9659381 255 255 255 255 0.296806 0.956089
0.617369 -0.120093 0.354532 0 0.2587733 0.9659381 255 255 255 255 0.296806 0.936542
0.617369 -0.146663 0.36165 0 -1.192488e-08 1 255 255 255 255 0.302095 0.936542
0.706751 -0.173233 0.354532 0 -0.4999661 0.866045 255 255 255 255 0.307384 0.956089
0.617369 -0.173233 0.354532 0 -0.4999661 0.866045 255 255 255 255 0.307384 0.936542
0.706751 -0.192684 0.335082 0 -0.7070763 0.7071373 255 255 255 255 0.312675 0.956089
0.617369 -0.192684 0.335082 0 -0.7070913 0.7071223 255 255 255 255 0.312675 0.936542
0.706751 -0.199804 0.30851 0 -0.9659304 0.2588022 255 255 255 255 0.317963 0.956089
0.706751 -0.192684 0.335082 0 -0.9659304 0.2588022 255 255 255 255 0.312675 0.956089
0.617369 -0.192684 0.335082 0 -0.9659304 0.2588022 255 255 255 255 0.312675 0.936542
0.617369 -0.199804 0.30851 0 -0.9659304 0.2588022 255 255 255 255 0.317963 0.936542
0.706751 -0.192684 0.281941 0 -0.9659228 -0.2588302 255 255 255 255 0.323253 0.956089
0.706751 -0.199804 0.30851 0 -0.9659228 -0.2588302 255 255 255 255 0.317963 0.956089
0.617369 -0.199804 0.30851 0 -0.9659228 -0.2588302 255 255 255 255 0.317963 0.936542
0.617369 -0.192684 0.281941 0 -0.9659228 -0.2588302 255 255 255 255 0.323253 0.936542
0.706751 -0.173233 0.262491 0 -0.4999894 -0.8660315 255 255 255 255 0.265186 0.956089
0.706751 -0.192684 0.281941 0 -0.7070913 -0.7071223 255 255 255 255 0.259895 0.956089
0.617369 -0.192684 0.281941 0 -0.7070913 -0.7071223 255 255 255 255 0.259895 0.936542
0.617369 -0.192684 0.281941 0 -0.7070763 -0.7071373 255 255 255 255 0.259895 0.936542
0.617369 -0.173233 0.262491 0 -0.4999894 -0.8660315 255 255 255 255 0.265186 0.936542
0.706751 -0.146663 0.255371 0 -0.2588302 -0.9659228 255 255 255 255 0.270474 0.956089
0.617369 -0.146663 0.255371 0 -0.2588302 -0.9659228 255 255 255 255 0.270474 0.936542
0.714942 -0.169879 0.268301 1 0 0 255 255 255 255 0.240469 0.951349
0.714942 -0.146663 0.262082 1 0 0 255 255 255 255 0.239087 0.946175
0.714942 -0.123449 0.268301 1 0 0 255 255 255 255 0.240469 0.941229
0.714942 -0.106455 0.285297 1 0 0 255 255 255 255 0.244263 0.937549
0.714942 -0.100235 0.30851 1 0 0 255 255 255 255 0.249322 0.936168
0.714942 -0.106455 0.331725 1 0 0 255 255 255 255 0.254379 0.937549
0.714942 -0.123449 0.348718 1 0 0 255 255 255 255 0.258060 0.941344
0.714942 -0.146663 0.35494 1 0 0 255 255 255 255 0.259326 0.946402
0.714942 -0.169878 0.348718 1 0 0 255 255 255 255 0.257946 0.951462
0.714942 -0.186872 0.331725 1 0 0 255 255 255 255 0.254266 0.955144
0.714942 -0.193093 0.30851 1 0 0 255 255 255 255 0.249206 0.956408
0.714942 -0.186872 0.285297 1 0 0 255 255 255 255 0.244146 0.955029
0.714942 -0.123449 0.268301 0.6206043 0.2028904 -0.7574205 255 255 255 255 0.236726 0.946365
0.714942 -0.146663 0.262082 0.6206043 0.2028904 -0.7574205 255 255 255 255 0.231667 0.946365
0.706751 -0.146663 0.255371 0.6206043 0.2028904 -0.7574205 255 255 255 255 0.231667 0.944526
0.706751 -0.146663 0.255371 0.6204891 0.2029846 -0.7574897 255 255 255 255 0.231667 0.944526
0.706751 -0.120093 0.262491 0.6204891 0.2029846 -0.7574897 255 255 255 255 0.237416 0.944526
0.714942 -0.123449 0.268301 0.6204891 0.2029846 -0.7574897 255 255 255 255 0.236726 0.946365
0.714942 -0.106455 0.285297 0.6205093 0.5545275 -0.5544975 255 255 255 255 0.237300 0.944295
0.714942 -0.123449 0.268301 0.6205093 0.5545275 -0.5544975 255 255 255 255 0.232012 0.944182
0.706751 -0.120093 0.262491 0.6205093 0.5545275 -0.5544975 255 255 255 255 0.231667 0.941881
0.706751 -0.120093 0.262491 0.6205784 0.5544738 -0.5544738 255 255 255 255 0.231667 0.941881
0.706751 -0.100643 0.281941 0.6205784 0.5544738 -0.5544738 255 255 255 255 0.237646 0.941997
0.714942 -0.106455 0.285297 0.6205784 0.5544738 -0.5544738 255 255 255 255 0.237300 0.944295
0.714942 -0.100235 0.30851 0.6205775 0.7574258 -0.2029528 255 255 255 255 0.231551 0.941650
0.714942 -0.106455 0.285297 0.6205775 0.7574258 -0.2029528 255 255 255 255 0.226493 0.941650
0.706751 -0.100643 0.281941 0.6205775 0.7574258 -0.2029528 255 255 255 255 0.225803 0.939809
0.706751 -0.100643 0.281941 0.6206107 0.7573984 -0.2029535 255 255 255 255 0.225803 0.939809
0.706751 -0.093524 0.30851 0.6206107 0.7573984 -0.2029535 255 255 255 255 0.231551 0.939809
0.714942 -0.100235 0.30851 0.6206107 0.7573984 -0.2029535 255 255 255 255 0.231551 0.941650
0.714942 -0.106455 0.331725 0.6206003 0.7574158 0.2029201 255 255 255 255 0.236610 0.941650
0.714942 -0.100235 0.30851 0.6206003 0.7574158 0.2029201 255 255 255 255 0.231551 0.941650
0.706751 -0.093524 0.30851 0.6206003 0.7574158 0.2029201 255 255 255 255 0.231551 0.939809
0.706751 -0.093524 0.30851 0.6205813 0.7574304 0.202924 255 255 255 255 0.231551 0.939809
0.706751 -0.100643 0.335082 0.6205813 0.7574304 0.202924 255 255 255 255 0.237416 0.939809
0.714942 -0.106455 0.331725 0.6205813 0.7574304 0.202924 255 255 255 255 0.236610 0.941650
0.714942 -0.123449 0.348718 0.6206079 0.5544423 0.5544723 255 255 255 255 0.231324 0.944295
0.714942 -0.106455 0.331725 0.6206079 0.5544423 0.5544723 255 255 255 255 0.226032 0.944182
0.706751 -0.100643 0.335082 0.6206079 0.5544423 0.5544723 255 255 255 255 0.225689 0.941881
0.706751 -0.100643 0.335082 0.6206771 0.5544186 0.5544186 255 255 255 255 0.225689 0.941881
0.706751 -0.120093 0.354532 0.6206771 0.5544186 0.5544186 255 255 255 255 0.231667 0.941997
0.714942 -0.123449 0.348718 0.6206771 0.5544186 0.5544186 255 255 255 255 0.231324 0.944295
0.714942 -0.146663 0.35494 0.6206954 0.2029514 0.7573296 255 255 255 255 0.231667 0.948549
0.714942 -0.123449 0.348718 0.6206954 0.2029514 0.7573296 255 255 255 255 0.226607 0.948549
0.706751 -0.120093 0.354532 0.6206954 0.2029514 0.7573296 255 255 255 255 0.225917 0.946710
0.706751 -0.120093 0.354532 0.6205813 0.202924 0.7574304 255 255 255 255 0.225917 0.946710
0.706751 -0.146663 0.36165 0.6205813 0.202924 0.7574304 255 255 255 255 0.231667 0.946710
0.714942 -0.146663 0.35494 0.6205813 0.202924 0.7574304 255 255 255 255 0.231667 0.948549
0.714942 -0.169878 0.348718 0.6205736 -0.2029825 0.757421 255 255 255 255 0.236726 0.948549
0.714942 -0.146663 0.35494 0.6205736 -0.2029825 0.757421 255 255 255 255 0.231667 0.948549
0.706751 -0.146663 0.36165 0.6205736 -0.2029825 0.757421 255 255 255 255 0.231667 0.946710
0.706751 -0.146663 0.36165 0.620703 -0.2028929 0.7573389 255 255 255 255 0.231667 0.946710
0.706751 -0.173233 0.354532 0.620703 -0.2028929 0.7573389 255 255 255 255 0.237532 0.946710
0.714942 -0.169878 0.348718 0.620703 -0.2028929 0.7573389 255 255 255 255 0.236726 0.948549
0.714942 -0.186872 0.331725 0.6206664 -0.5544091 0.5544401 255 255 255 255 0.237646 0.953149
0.714942 -0.169878 0.348718 0.6206664 -0.5544091 0.5544401 255 255 255 255 0.232355 0.953035
0.706751 -0.173233 0.354532 0.6206664 -0.5544091 0.5544401 255 255 255 255 0.232012 0.950734
0.706751 -0.173233 0.354532 0.6206664 -0.5544091 0.5544401 255 255 255 255 0.232012 0.950734
0.706751 -0.192684 0.335082 0.6206664 -0.5544091 0.5544401 255 255 255 255 0.237990 0.950850
0.714942 -0.186872 0.331725 0.6206664 -0.5544091 0.5544401 255 255 255 255 0.237646 0.953149
0.714942 -0.193093 0.30851 0.6206437 -0.7573711 0.2029545 255 255 255 255 0.231781 0.950504
0.714942 -0.186872 0.331725 0.6206437 -0.7573711 0.2029545 255 255 255 255 0.226722 0.950504
0.706751 -0.192684 0.335082 0.6206437 -0.7573711 0.2029545 255 255 255 255 0.226032 0.948780
0.706751 -0.192684 0.335082 0.6206003 -0.7574158 0.2029201 255 255 255 255 0.226032 0.948780
0.706751 -0.199804 0.30851 0.6206003 -0.7574158 0.2029201 255 255 255 255 0.231781 0.948780
0.714942 -0.193093 0.30851 0.6206003 -0.7574158 0.2029201 255 255 255 255 0.231781 0.950504
0.714942 -0.186872 0.285297 0.6206068 -0.7573936 -0.2029832 255 255 255 255 0.236841 0.950504
0.714942 -0.193093 0.30851 0.6206068 -0.7573936 -0.2029832 255 255 255 255 0.231781 0.950504
0.706751 -0.199804 0.30851 0.6206068 -0.7573936 -0.2029832 255 255 255 255 0.231781 0.948780
0.706751 -0.199804 0.30851 0.6206291 -0.7573843 -0.2029497 255 255 255 255 0.231781 0.948780
0.706751 -0.192684 0.281941 0.6206291 -0.7573843 -0.2029497 255 255 255 255 0.237646 0.948780
0.714942 -0.186872 0.285297 0.6206291 -0.7573843 -0.2029497 255 255 255 255 0.236841 0.950504
0.714942 -0.169879 0.268301 0.6206369 -0.5544717 -0.5544106 255 255 255 255 0.231437 0.953035
0.714942 -0.186872 0.285297 0.6206369 -0.5544717 -0.5544106 255 255 255 255 0.226148 0.953035
0.706751 -0.192684 0.281941 0.6206369 -0.5544717 -0.5544106 255 255 255 255 0.225803 0.950734
0.706751 -0.192684 0.281941 0.6204612 -0.5545089 -0.55457 255 255 255 255 0.225803 0.950734
0.706751 -0.173233 0.262491 0.6204612 -0.5545089 -0.55457 255 255 255 255 0.231781 0.950850
0.714942 -0.169879 0.268301 0.6204612 -0.5545089 -0.55457 255 255 255 255 0.231437 0.953035
0.714942 -0.146663 0.262082 0.6204631 -0.2029252 -0.7575269 255 255 255 255 0.231667 0.946365
0.714942 -0.169879 0.268301 0.6204631 -0.2029252 -0.7575269 255 255 255 255 0.226607 0.946365
0.706751 -0.173233 0.262491 0.6204631 -0.2029252 -0.7575269 255 255 255 255 0.225803 0.944526
0.706751 -0.173233 0.262491 0.6206107 -0.2029535 -0.7573984 255 255 255 255 0.225803 0.944526
0.706751 -0.146663 0.255371 0.6206107 -0.2029535 -0.7573984 255 255 255 255 0.231667 0.944526
0.714942 -0.146663 0.262082 0.6206107 -0.2029535 -0.7573984 255 255 255 255 0.231667 0.946365
0.732004 -0.151159 0.184511 0.838533 -0.5448509 -6.497282e-09 255 255 255 255 0.172231 0.977941
0.732004 -0.151159 0.43251 0.838533 -0.5448509 -6.497282e-09 255 255 255 255 0.221043 0.977941
0.726152 -0.160166 0.43251 0.838533 -0.5448509 -6.497282e-09 255 255 255 255 0.221043 0.979584
0.726152 -0.160166 0.184511 0.838533 -0.5448509 -6.497282e-09 255 255 255 255 0.172231 0.979584
0.716129 -0.164015 0.43251 0.3584734 -0.9335399 -1.113235e-08 255 255 255 255 0.221043 0.981227
0.716129 -0.164015 0.184511 0.3584734 -0.9335399 -1.113235e-08 255 255 255 255 0.172231 0.981227
0.726152 -0.160166 0.184511 0.3584734 -0.9335399 -1.113235e-08 255 255 255 255 0.172231 0.979584
0.726152 -0.160166 0.43251 0.3584734 -0.9335399 -1.113235e-08 255 255 255 255 0.221043 0.979584
0.716129 -0.164015 0.184511 -0.2588022 -0.9659304 -1.15186e-08 255 255 255 255 0.172231 0.981227
0.716129 -0.164015 0.43251 -0.2588022 -0.9659304 -1.15186e-08 255 255 255 255 0.221043 0.981227
0.705757 -0.161236 0.43251 -0.2588022 -0.9659304 -1.15186e-08 255 255 255 255 0.221043 0.982822
0.705757 -0.161236 0.184511 -0.2588022 -0.9659304 -1.15186e-08 255 255 255 255 0.172231 0.982822
0.705757 -0.161236 0.184511 -0.7771782 -0.6292806 -7.504096e-09 255 255 255 255 0.172231 0.982822
0.705757 -0.161236 0.43251 -0.7771901 -0.6292659 -7.503921e-09 255 255 255 255 0.221043 0.982822
0.699 -0.15289 0.43251 -0.7771782 -0.6292806 -7.504096e-09 255 255 255 255 0.221043 0.984417
0.699 -0.15289 0.184511 -0.7771782 -0.6292806 -7.504096e-09 255 255 255 255 0.172231 0.984417
0.699 -0.15289 0.184511 -0.9986165 -0.05258408 -6.270588e-10 255 255 255 255 0.172231 0.984417
0.699 -0.15289 0.43251 -0.9986165 -0.05258408 -6.270588e-10 255 255 255 255 0.221043 0.984417
0.698435 -0.142165 0.43251 -0.9986165 -0.05258408 -6.270588e-10 255 255 255 255 0.221043 0.986060
0.698435 -0.142165 0.184511 -0.9986165 -0.05258408 -6.270588e-10 255 255 255 255 0.172231 0.986060
0.704286 -0.133162 0.43251 -0.8384636 0.5449576 6.498554e-09 255 255 255 255 0.221043 0.987607
0.704286 -0.133162 0.184511 -0.8384636 0.5449576 6.498554e-09 255 255 255 255 0.172231 0.987607
0.698435 -0.142165 0.184511 -0.8384636 0.5449576 6.498554e-09 255 255 255 255 0.172231 0.986060
0.698435 -0.142165 0.43251 -0.8384636 0.5449576 6.498554e-09 255 255 255 255 0.221043 0.986060
0.714311 -0.129313 0.184511 -0.3584473 0.9335499 1.113247e-08 255 255 255 255 0.172231 0.989201
0.704286 -0.133162 0.184511 -0.3584473 0.9335499 1.113247e-08 255 255 255 255 0.172231 0.987607
0.704286 -0.133162 0.43251 -0.3584473 0.9335499 1.113247e-08 255 255 255 255 0.221043 0.987607
0.714311 -0.129313 0.43251 -0.3584473 0.9335499 1.113247e-08 255 255 255 255 0.221043 0.989201
0.724683 -0.132092 0.43251 0.2588022 0.9659304 1.15186e-08 255 255 255 255 0.221043 0.974799
0.724683 -0.132092 0.184511 0.2588022 0.9659304 1.15186e-08 255 255 255 255 0.172231 0.974799
0.714311 -0.129313 0.184511 0.2588022 0.9659304 1.15186e-08 255 255 255 255 0.172231 0.973252
0.714311 -0.129313 0.184511 0.2588022 0.9659304 1.15186e-08 255 255 255 255 0.172231 0.973252
0.714311 -0.129313 0.43251 0.2588022 0.9659304 1.15186e-08 255 255 255 255 0.221043 0.973252
0.731439 -0.140438 0.184511 0.7772322 0.6292139 7.503301e-09 255 255 255 255 0.172231 0.976393
0.724683 -0.132092 0.184511 0.7772322 0.6292139 7.503301e-09 255 255 255 255 0.172231 0.974799
0.724683 -0.132092 0.43251 0.7772469 0.6291958 7.503085e-09 255 255 255 255 0.221043 0.974799
0.731439 -0.140438 0.43251 0.7772469 0.6291958 7.503085e-09 255 255 255 255 0.221043 0.976393
0.732004 -0.151159 0.43251 0.9986117 0.05267583 6.28153e-10 255 255 255 255 0.221043 0.977941
0.732004 -0.151159 0.184511 0.9986117 0.05267583 6.28153e-10 255 255 255 255 0.172231 0.977941
0.731439 -0.140438 0.184511 0.9986117 0.05267583 6.28153e-10 255 255 255 255 0.172231 0.976393
0.731439 -0.140438 0.43251 0.9986117 0.05267583 6.28153e-10 255 255 255 255 0.221043 0.976393
0.732004 -0.151159 0.43251 0 -1.192488e-08 1 255 255 255 255 0.145416 0.934263
0.731439 -0.140438 0.43251 0 -1.192488e-08 1 255 255 255 255 0.146868 0.934698
0.724683 -0.132092 0.43251 0 -1.192488e-08 1 255 255 255 255 0.147738 0.935907
0.724683 -0.132092 0.43251 0 -1.192488e-08 1 255 255 255 255 0.147738 0.935907
0.714311 -0.129313 0.43251 0 -1.192488e-08 1 255 255 255 255 0.147738 0.937453
0.704286 -0.133162 0.43251 0 -1.192488e-08 1 255 255 255 255 0.146868 0.938661
0.704286 -0.133162 0.43251 0 -1.192488e-08 1 255 255 255 255 0.146868 0.938661
0.698435 -0.142165 0.43251 0 -1.192488e-08 1 255 255 255 255 0.145416 0.939096
0.699 -0.15289 0.43251 0 -1.192488e-08 1 255 255 255 255 0.144016 0.938661
0.724683 -0.132092 0.43251 0 -1.192488e-08 1 255 255 255 255 0.147738 0.935907
0.704286 -0.133162 0.43251 0 -1.192488e-08 1 255 255 255 255 0.146868 0.938661
0.699 -0.15289 0.43251 0 -1.192488e-08 1 255 255 255 255 0.144016 0.938661
0.699 -0.15289 0.43251 0 -1.192488e-08 1 255 255 255 255 0.144016 0.938661
0.705757 -0.161236 0.43251 0 -1.192488e-08 1 255 255 255 255 0.143097 0.937453
0.716129 -0.164015 0.43251 0 -1.192488e-08 1 255 255 255 255 0.143097 0.935907
0.724683 -0.132092 0.43251 0 -1.192488e-08 1 255 255 255 255 0.147738 0.935907
0.699 -0.15289 0.43251 0 -1.192488e-08 1 255 255 255 255 0.144016 0.938661
0.716129 -0.164015 0.43251 0 -1.192488e-08 1 255 255 255 255 0.143097 0.935907
0.732004 -0.151159 0.43251 0 -1.192488e-08 1 255 255 255 255 0.145416 0.934263
0.724683 -0.132092 0.43251 0 -1.192488e-08 1 255 255 255 255 0.147738 0.935907
0.716129 -0.164015 0.43251 0 -1.192488e-08 1 255 255 255 255 0.143097 0.935907
0.732004 -0.151159 0.43251 0 -1.192488e-08 1 255 255 255 255 0.145416 0.934263
0.716129 -0.164015 0.43251 0 -1.192488e-08 1 255 255 255 255 0.143097 0.935907
0.726152 -0.160166 0.43251 0 -1.192488e-08 1 255 255 255 255 0.144016 0.934698
0.724683 -0.132092 0.184511 0 1.192488e-08 -1 255 255 255 255 0.143097 0.935907
0.731439 -0.140438 0.184511 0 1.192488e-08 -1 255 255 255 255 0.143967 0.934698
0.732004 -0.151159 0.184511 0 1.192488e-08 -1 255 255 255 255 0.145466 0.934263
0.732004 -0.151159 0.184511 0 1.192488e-08 -1 255 255 255 255 0.145466 0.934263
0.726152 -0.160166 0.184511 0 1.192488e-08 -1 255 255 255 255 0.146868 0.934698
0.716129 -0.164015 0.184511 0 1.192488e-08 -1 255 255 255 255 0.147785 0.935907
0.716129 -0.164015 0.184511 0 1.192488e-08 -1 255 255 255 255 0.147785 0.935907
0.705757 -0.161236 0.184511 0 1.192488e-08 -1 255 255 255 255 0.147785 0.937453
0.699 -0.15289 0.184511 0 1.192488e-08 -1 255 255 255 255 0.146868 0.938661
0.732004 -0.151159 0.184511 0 1.192488e-08 -1 255 255 255 255 0.145466 0.934263
0.716129 -0.164015 0.184511 0 1.192488e-08 -1 255 255 255 255 0.147785 0.935907
0.699 -0.15289 0.184511 0 1.192488e-08 -1 255 255 255 255 0.146868 0.938661
0.699 -0.15289 0.184511 0 1.192488e-08 -1 255 255 255 255 0.146868 0.938661
0.698435 -0.142165 0.184511 0 1.192488e-08 -1 255 255 255 255 0.145466 0.939096
0.704286 -0.133162 0.184511 0 1.192488e-08 -1 255 255 255 255 0.143967 0.938661
0.732004 -0.151159 0.184511 0 1.192488e-08 -1 255 255 255 255 0.145466 0.934263
0.699 -0.15289 0.184511 0 1.192488e-08 -1 255 255 255 255 0.146868 0.938661
0.704286 -0.133162 0.184511 0 1.192488e-08 -1 255 255 255 255 0.143967 0.938661
0.724683 -0.132092 0.184511 0 1.192488e-08 -1 255 255 255 255 0.143097 0.935907
0.732004 -0.151159 0.184511 0 1.192488e-08 -1 255 255 255 255 0.145466 0.934263
0.704286 -0.133162 0.184511 0 1.192488e-08 -1 255 255 255 255 0.143967 0.938661
0.724683 -0.132092 0.184511 0 1.192488e-08 -1 255 255 255 255 0.143097 0.935907
0.704286 -0.133162 0.184511 0 1.192488e-08 -1 255 255 255 255 0.143967 0.938661
0.714311 -0.129313 0.184511 0 1.192488e-08 -1 255 255 255 255 0.143097 0.937453
0.916137 -0.193267 0.481103 0.259259 0.965804 0.002716054 255 255 255 255 0.116864 0.909286
0.91651 -0.192416 0.143569 0.259259 0.965804 0.002716054 255 255 255 255 0.161625 0.909286
0.728193 -0.142024 0.201047 0.259259 0.965804 0.002716054 255 255 255 255 0.154221 0.932078
0.727947 -0.142584 0.423464 0.259259 0.965804 0.002716054 255 255 255 255 0.123530 0.932160
0.959498 -0.204908 0.481122 0.259259 0.965804 0.002716054 255 255 255 255 0.116864 0.904020
0.95987 -0.204057 0.143587 0.259259 0.965804 0.002716054 255 255 255 255 0.161625 0.904020
1.392798 -0.320883 0.35768 0.259259 0.965804 0.002716054 255 255 255 255 0.133321 0.851690
1.392898 -0.320656 0.267401 0.259259 0.9658041 0.002686054 255 255 255 255 0.145169 0.851607
0.912677 -0.206153 0.481067 -0.259259 -0.965804 -0.002716054 255 255 255 255 0.116864 0.909286
0.724488 -0.15547 0.423427 -0.259259 -0.965804 -0.002716054 255 255 255 255 0.123530 0.932160
0.724734 -0.154909 0.201011 -0.259259 -0.965804 -0.002716054 255 255 255 255 0.154221 0.932078
0.913051 -0.205302 0.143532 -0.259259 -0.965804 -0.002716054 255 255 255 255 0.161625 0.909286
0.956038 -0.217794 0.481086 -0.259259 -0.965804 -0.002716054 255 255 255 255 0.116864 0.904020
0.956411 -0.216942 0.143551 -0.259259 -0.965804 -0.002716054 255 255 255 255 0.161625 0.904020
1.389339 -0.333768 0.357643 -0.259259 -0.965804 -0.002716054 255 255 255 255 0.133321 0.851690
1.38944 -0.333541 0.267365 -0.259259 -0.9658041 -0.002686054 255 255 255 255 0.145169 0.851607
0.913051 -0.205302 0.143532 -0.2724716 0.07577773 -0.9591752 255 255 255 255 0.165164 0.873082
0.724734 -0.154909 0.201011 -0.2724716 0.07577773 -0.9591752 255 255 255 255 0.165164 0.851443
0.728193 -0.142024 0.201047 -0.2724716 0.07577773 -0.9591752 255 255 255 255 0.167138 0.851443
0.728193 -0.142024 0.201047 -0.2724426 0.07583901 -0.9591786 255 255 255 255 0.167138 0.851443
0.91651 -0.192416 0.143569 -0.2724426 0.07583901 -0.9591786 255 255 255 255 0.167221 0.873082
0.913051 -0.205302 0.143532 -0.2724426 0.07583901 -0.9591786 255 255 255 255 0.165164 0.873082
0.724488 -0.15547 0.423427 -0.2745519 0.07101876 0.9589461 255 255 255 255 0.162860 0.932490
0.912677 -0.206153 0.481067 -0.2745519 0.07101876 0.9589461 255 255 255 255 0.162942 0.908875
0.916137 -0.193267 0.481103 -0.2745519 0.07101876 0.9589461 255 255 255 255 0.164999 0.908875
0.916137 -0.193267 0.481103 -0.2745808 0.07095748 0.9589424 255 255 255 255 0.164999 0.908875
0.727947 -0.142584 0.423464 -0.2745808 0.07095748 0.9589424 255 255 255 255 0.164917 0.932490
0.724488 -0.15547 0.423427 -0.2745808 0.07095748 0.9589424 255 255 255 255 0.162860 0.932490
0.956411 -0.216942 0.143551 0.00109903 0.00250308 -0.9999963 255 255 255 255 0.165164 0.878266
0.913051 -0.205302 0.143532 0.00109903 0.00250308 -0.9999963 255 255 255 255 0.165164 0.873082
0.91651 -0.192416 0.143569 0.00109903 0.00250308 -0.9999963 255 255 255 255 0.167221 0.873082
0.91651 -0.192416 0.143569 0.001068029 0.00250308 -0.9999963 255 255 255 255 0.167221 0.873082
0.95987 -0.204057 0.143587 0.001068029 0.00250308 -0.9999963 255 255 255 255 0.167221 0.878266
0.956411 -0.216942 0.143551 0.001068029 0.00250308 -0.9999963 255 255 255 255 0.165164 0.878266
0.912677 -0.206153 0.481067 -0.00109903 -0.002472079 0.9999964 255 255 255 255 0.162942 0.908875
0.956038 -0.217794 0.481086 -0.00109903 -0.002472079 0.9999964 255 255 255 255 0.162942 0.903691
0.959498 -0.204908 0.481122 -0.00109903 -0.002472079 0.9999964 255 255 255 255 0.164999 0.903691
0.959498 -0.204908 0.481122 -0.00109903 -0.002472079 0.9999964 255 255 255 255 0.164999 0.903691
0.916137 -0.193267 0.481103 -0.00109903 -0.002472079 0.9999964 255 255 255 255 0.164999 0.908875
0.912677 -0.206153 0.481067 -0.00109903 -0.002472079 0.9999964 255 255 255 255 0.162942 0.908875
1.38944 -0.333541 0.267365 0.2577004 -0.0664696 -0.9639359 255 255 255 255 0.165328 0.932490
0.956411 -0.216942 0.143551 0.2577004 -0.0664696 -0.9639359 255 255 255 255 0.165164 0.878266
0.95987 -0.204057 0.143587 0.2577004 -0.0664696 -0.9639359 255 255 255 255 0.167221 0.878266
0.95987 -0.204057 0.143587 0.2577009 -0.06643973 -0.9639378 255 255 255 255 0.167221 0.878266
1.392898 -0.320656 0.267401 0.2577009 -0.06643973 -0.9639378 255 255 255 255 0.167385 0.932490
1.38944 -0.333541 0.267365 0.2577009 -0.06643973 -0.9639378 255 255 255 255 0.165328 0.932490
1.389339 -0.333768 0.357643 0.9658152 -0.259231 0.0003970077 255 255 255 255 0.160391 0.932572
1.38944 -0.333541 0.267365 0.9658152 -0.259231 0.0003970077 255 255 255 255 0.160391 0.918831
1.392898 -0.320656 0.267401 0.9658152 -0.259231 0.0003970077 255 255 255 255 0.162366 0.918831
1.392898 -0.320656 0.267401 0.9658075 -0.2592599 0.0003970045 255 255 255 255 0.162366 0.918831
1.392798 -0.320883 0.35768 0.9658075 -0.2592599 0.0003970045 255 255 255 255 0.162366 0.932572
1.389339 -0.333768 0.357643 0.9658075 -0.2592599 0.0003970045 255 255 255 255 0.160391 0.932572
0.956038 -0.217794 0.481086 0.2555663 -0.07132321 0.9641571 255 255 255 255 0.162942 0.903691
1.389339 -0.333768 0.357643 0.2555663 -0.07132321 0.9641571 255 255 255 255 0.163106 0.853829
1.392798 -0.320883 0.35768 0.2555663 -0.07132321 0.9641571 255 255 255 255 0.165164 0.853829
1.392798 -0.320883 0.35768 0.2555668 -0.07129236 0.9641593 255 255 255 255 0.165164 0.853829
0.959498 -0.204908 0.481122 0.2555668 -0.07129236 0.9641593 255 255 255 255 0.164999 0.903691
0.956038 -0.217794 0.481086 0.2555668 -0.07129236 0.9641593 255 255 255 255 0.162942 0.903691
3 0 1 2 
3 2 3 0 
3 4 0 3 
3 3 5 4 
3 6 4 5 
3 5 7 6 
3 8 9 10 
3 10 11 8 
3 12 13 14 
3 14 15 12 
3 16 17 18 
3 18 19 16 
3 20 16 19 
3 19 21 20 
3 22 20 21 
3 21 23 22 
3 24 25 26 
3 26 27 24 
3 28 29 30 
3 30 31 28 
3 32 33 34 
3 35 36 32 
3 37 32 36 
3 36 38 37 
3 39 40 41 
3 41 42 43 
3 43 44 45 
3 41 43 45 
3 45 46 47 
3 47 48 49 
3 45 47 49 
3 41 45 49 
3 39 41 49 
3 39 49 50 
3 51 52 53 
3 54 55 56 
3 57 58 59 
3 60 61 62 
3 63 64 65 
3 66 67 68 
3 69 70 71 
3 72 73 74 
3 75 76 77 
3 78 79 80 
3 81 82 83 
3 84 85 86 
3 87 88 89 
3 90 91 92 
3 93 94 95 
3 96 97 98 
3 99 100 101 
3 102 103 104 
3 105 106 107 
3 108 109 110 
3 111 112 113 
3 114 115 116 
3 117 118 119 
3 120 121 122 
3 123 124 125 
3 125 126 123 
3 127 128 129 
3 129 130 127 
3 131 132 133 
3 133 134 131 
3 135 136 137 
3 137 138 135 
3 139 140 141 
3 141 142 139 
3 143 144 145 
3 145 146 143 
3 147 148 149 
3 149 150 147 
3 151 152 153 
3 154 155 151 
3 156 157 158 
3 158 159 156 
3 160 161 162 
3 162 163 160 
3 164 165 166 
3 167 168 169 
3 170 171 172 
3 173 174 175 
3 176 177 178 
3 179 180 181 
3 182 183 184 
3 185 186 187 
3 188 189 190 
3 191 192 193 
3 194 195 196 
3 197 198 199 
3 200 201 202 
3 203 204 205 
3 206 207 208 
3 209 210 211 
3 212 213 214 
3 214 215 212 
3 216 217 213 
3 213 212 216 
3 218 219 217 
3 217 216 218 
3 220 221 222 
3 222 223 220 
3 224 220 223 
3 223 225 224 
3 226 224 225 
3 225 227 226 
3 228 229 230 
3 231 232 233 
3 234 235 236 
3 237 238 239 
3 240 241 242 
3 243 244 245 
3 246 247 248 
3 249 250 251 
3 252 253 254 
3 255 256 257 
3 258 259 260 
3 261 262 263 
3 264 265 266 
3 267 268 269 
