ply
format ascii 1.0
comment VCGLIB generated
element vertex 107
property float x
property float y
property float z
property float nx
property float ny
property float nz
property uchar red
property uchar green
property uchar blue
property uchar alpha
property float texture_u
property float texture_v
element face 67
property list uchar int vertex_indices
end_header
-0.08474198 -0.07908622 1.762365 0.6914249 0.3069036 -0.6540197 255 255 255 255 0.866073 0.340572
-0.130931 -0.02502023 1.738878 0.9147628 0.02629681 -0.4031347 255 255 255 255 0.858593 0.346407
-0.137946 -0.08594622 1.702899 0.871988 0.1706166 -0.4588321 255 255 255 255 0.856275 0.337729
-0.08768098 -0.1028642 1.74809 0.6913479 0.3071608 -0.6539804 255 255 255 255 0.865176 0.337131
-0.05362399 -0.2145662 1.752157 0.4907298 0.2352123 -0.8389633 255 255 255 255 0.862857 0.336907
-0.04840099 -0.1231502 1.78084 0.4907232 0.2352016 -0.8389702 255 255 255 255 0.862184 0.325238
-0.09563398 -0.1791592 1.737511 0.4907332 0.2352178 -0.8389598 255 255 255 255 0.868168 0.332344
-0.09037898 -0.1981172 1.735269 0.4907537 0.2352508 -0.8389386 255 255 255 255 0.867495 0.334812
-0.155626 -0.1388652 1.676399 0.9914572 0.0108547 -0.1299799 255 255 255 255 0.854704 0.330324
-0.15424 -0.1030462 1.687959 0.9906666 0.005620014 -0.1361915 255 255 255 255 0.854928 0.335111
-0.162907 -0.07790422 1.625952 0.9924722 0.01388896 -0.1216804 255 255 255 255 0.846476 0.336159
-0.168185 -0.1220732 1.576031 0.9930534 0.01343805 -0.1168941 255 255 255 255 0.841838 0.329127
-0.129077 0.0984778 1.544044 0.9492079 -0.2653342 -0.1691216 255 255 255 255 0.839370 0.323966
-0.159911 0.03172781 1.471745 0.9509952 -0.2627631 -0.1629839 255 255 255 255 0.830918 0.314766
-0.178669 -0.0501342 1.494272 0.9509963 -0.2627687 -0.1629682 255 255 255 255 0.834733 0.304593
-0.162345 -0.07196023 1.624728 0.9501941 -0.2655956 -0.1630653 255 255 255 255 0.851487 0.303322
-0.116267 0.0984148 1.613265 0.946542 -0.2737829 -0.1705908 255 255 255 255 0.848121 0.324789
-0.1257659 0.003194775 1.717416 0.9489762 -0.2710169 -0.1612266 255 255 255 255 0.862409 0.313869
-0.127349 -0.02139323 1.738563 0.002702342 -0.3935589 -0.9192955 255 255 255 255 0.857546 0.289484
-0.02374399 -0.08702423 1.767058 3.649921e-05 -0.3982033 -0.9172972 255 255 255 255 0.870711 0.281106
0.000153 -0.08719822 1.767135 0.002053525 -0.394475 -0.9189044 255 255 255 255 0.873778 0.281106
-0.06999598 -0.1338392 1.762253 0.6703343 0.009597734 -0.7419972 255 255 255 255 0.858145 0.298386
-0.07318398 -0.1166292 1.759596 0.670334 0.009616417 -0.7419971 255 255 255 255 0.857546 0.300554
-0.136873 -0.09519322 1.702336 0.6703322 0.009600793 -0.741999 255 255 255 255 0.849243 0.302574
-0.150657 -0.1096622 1.689696 0.6703379 0.009597676 -0.7419939 255 255 255 255 0.847673 0.300554
-0.150657 -0.1766082 1.68883 0.6703372 0.009576205 -0.7419949 255 255 255 255 0.848421 0.292102
-0.121312 -0.1947072 1.715109 0.6703468 0.009541089 -0.7419866 255 255 255 255 0.852310 0.290082
0.000153 0.2191998 1.636154 0.000477375 -0.3927212 -0.9196575 255 255 255 255 0.873778 0.320077
-0.03707599 0.2191998 1.636154 0 -0.3916861 -0.920099 255 255 255 255 0.868991 0.320077
-0.05243999 0.1986738 1.644892 0.0006837138 -0.3923946 -0.9197967 255 255 255 255 0.867046 0.317459
-0.05362399 -0.2145662 1.752157 -0.01356451 0.2848964 -0.9584624 255 255 255 255 0.862857 0.336907
0.000153 -0.2145522 1.752159 -3.843783e-05 0.2775232 -0.960719 255 255 255 255 0.855975 0.336907
-0.006709998 -0.1374322 1.774437 -0.01905457 0.2881219 -0.9574042 255 255 255 255 0.856873 0.327033
-0.02223099 -0.1228002 1.779709 -0.04314203 0.3008025 -0.9527102 255 255 255 255 0.858818 0.325238
-0.04840099 -0.1231502 1.78084 -0.04519442 0.3014177 -0.9524206 255 255 255 255 0.862184 0.325238
-0.04874299 -0.1133382 1.778482 7.042708e-06 -0.3982354 -0.9172832 255 255 255 255 0.867495 0.277815
-0.03244399 -0.1133382 1.778482 0 -0.3982298 -0.9172857 255 255 255 255 0.869589 0.277815
-0.07881498 0.1987498 1.644859 2.325152e-05 -0.3916519 -0.9201135 255 255 255 255 0.863680 0.317459
-0.133753 -0.01557222 1.702637 0.9525167 -0.268231 -0.1440976 255 255 255 255 0.853881 0.346331
-0.162907 -0.07790422 1.625952 0.9659539 -0.03742237 -0.2559934 255 255 255 255 0.846476 0.336159
-0.1299819 -0.01677123 1.729797 0.9525236 -0.2682094 -0.1440925 255 255 255 255 0.857247 0.347079
-0.09752598 0.1312998 1.662307 0.9439487 -0.2819422 -0.1716669 255 255 255 255 0.853956 0.329426
-0.101079 0.1336538 1.638903 0.9439474 -0.2819499 -0.1716612 255 255 255 255 0.850964 0.329501
-0.170573 -0.0669662 1.560514 0.9933547 0.01078059 -0.114587 255 255 255 255 0.838098 0.335411
-0.171823 -0.0924542 1.547285 0.9933515 0.01077236 -0.1146158 255 255 255 255 0.837276 0.331820
-0.162907 -0.07790422 1.625952 0.8091827 -0.4963809 -0.3143713 255 255 255 255 0.846476 0.336159
-0.15424 -0.1030462 1.687959 0.8091827 -0.4963809 -0.3143713 255 255 255 255 0.854928 0.335111
-0.137946 -0.08594622 1.702899 0.8091827 -0.4963809 -0.3143713 255 255 255 255 0.856275 0.337729
0.000153 -0.1374682 1.774426 -7.949072e-05 0.2775199 -0.9607199 255 255 255 255 0.855975 0.327108
0.08504898 -0.07908622 1.762365 -0.6914249 0.3069037 -0.6540197 255 255 255 255 0.377342 0.340700
0.08798797 -0.1028642 1.74809 -0.6913477 0.3071611 -0.6539805 255 255 255 255 0.376445 0.337260
0.138253 -0.08594622 1.702899 -0.8719918 0.1706126 -0.4588265 255 255 255 255 0.367544 0.337857
0.131238 -0.02502023 1.738878 -0.914762 0.02626899 -0.4031385 255 255 255 255 0.369862 0.346535
0.09594098 -0.1791592 1.737511 -0.4907314 0.2352306 -0.8389573 255 255 255 255 0.379437 0.332472
0.04870799 -0.1231502 1.78084 -0.4907173 0.2352079 -0.8389719 255 255 255 255 0.373453 0.325366
0.05392999 -0.2145662 1.752157 -0.4907266 0.2352229 -0.8389622 255 255 255 255 0.374126 0.337035
0.09068498 -0.1981172 1.735269 -0.4907602 0.2352772 -0.8389273 255 255 255 255 0.378764 0.334941
0.1559319 -0.1388652 1.676399 -0.9914584 0.01086258 -0.1299705 255 255 255 255 0.365973 0.330453
0.168492 -0.1220732 1.576031 -0.9930533 0.01343531 -0.1168958 255 255 255 255 0.353107 0.329255
0.163213 -0.07790422 1.625952 -0.9924713 0.01388588 -0.1216873 255 255 255 255 0.357745 0.336287
0.154547 -0.1030462 1.687959 -0.9906698 0.005640196 -0.1361675 255 255 255 255 0.366197 0.335240
0.129383 0.0984778 1.544044 -0.9492098 -0.2653316 -0.1691152 255 255 255 255 0.350639 0.324094
0.162651 -0.07196023 1.624728 -0.9501949 -0.2655927 -0.1630649 255 255 255 255 0.362756 0.303450
0.178975 -0.0501342 1.494272 -0.9509963 -0.2627687 -0.1629682 255 255 255 255 0.346002 0.304722
0.160217 0.03172781 1.471745 -0.9509952 -0.2627631 -0.1629839 255 255 255 255 0.342187 0.314894
0.116574 0.0984148 1.613265 -0.9465408 -0.2737807 -0.1706009 255 255 255 255 0.359390 0.324917
0.126072 0.003194775 1.717416 -0.9489748 -0.2710167 -0.1612355 255 255 255 255 0.373677 0.313997
0.127655 -0.02139323 1.738563 -0.002702347 -0.3935589 -0.9192954 255 255 255 255 0.368815 0.289612
0.000153 -0.08719822 1.767135 -5.693823e-05 -0.3981784 -0.917308 255 255 255 255 0.385046 0.281234
0.02405099 -0.08702423 1.767058 -3.649779e-05 -0.3982033 -0.9172972 255 255 255 255 0.381980 0.281234
0.137179 -0.09519322 1.702336 -0.670316 0.009585658 -0.7420138 255 255 255 255 0.360512 0.302702
0.07348998 -0.1166292 1.759596 -0.6703267 0.009575066 -0.7420043 255 255 255 255 0.368815 0.300682
0.07030298 -0.1338392 1.762253 -0.6703277 0.00957785 -0.7420035 255 255 255 255 0.369414 0.298514
0.121618 -0.1947072 1.715109 -0.6703315 0.009581037 -0.7419999 255 255 255 255 0.363579 0.290211
0.150965 -0.1766082 1.68883 -0.6703294 0.009583862 -0.7420018 255 255 255 255 0.359690 0.292230
0.150965 -0.1096622 1.689696 -0.6702841 0.009598305 -0.7420425 255 255 255 255 0.358942 0.300682
0.05274699 0.1986738 1.644892 -0.0006837073 -0.3923946 -0.9197967 255 255 255 255 0.378314 0.317587
0.03738299 0.2191998 1.636154 0 -0.3916861 -0.920099 255 255 255 255 0.380260 0.320205
0.000153 0.2191998 1.636154 0 -0.3916861 -0.9200989 255 255 255 255 0.385046 0.320205
0.000153 0.2191998 1.636154 -0.0006410969 -0.3930761 -0.9195057 255 255 255 255 0.385046 0.320205
0.000153 -0.08719822 1.767135 -0.0006410969 -0.393076 -0.9195058 255 255 255 255 0.385046 0.281234
0.007015998 -0.1374322 1.774437 0.01728699 0.2871403 -0.9577326 255 255 255 255 0.368142 0.327161
0.000153 -0.2145522 1.752159 3.608126e-05 0.2775234 -0.9607189 255 255 255 255 0.367244 0.337035
0.05392999 -0.2145662 1.752157 0.01351331 0.2850553 -0.9584159 255 255 255 255 0.374126 0.337035
0.04870799 -0.1231502 1.78084 0.0430675 0.3013348 -0.9525453 255 255 255 255 0.373453 0.325366
0.04904999 -0.1133382 1.778482 -7.042738e-06 -0.3982354 -0.9172832 255 255 255 255 0.378764 0.277943
0.03275099 -0.1133382 1.778482 0 -0.3982298 -0.9172857 255 255 255 255 0.380858 0.277943
0.07912098 0.1987498 1.644859 -2.325239e-05 -0.3916519 -0.9201135 255 255 255 255 0.374949 0.317587
0.000153 -0.08719822 1.767135 -0.003450191 -0.3926368 -0.9196872 255 255 255 255 0.385046 0.281234
0.13406 -0.01557222 1.702637 -0.9525155 -0.2682347 -0.1440984 255 255 255 255 0.365150 0.346460
0.130288 -0.01677123 1.729797 -0.9524772 -0.2683555 -0.144127 255 255 255 255 0.368516 0.347207
0.163213 -0.07790422 1.625952 -0.9659562 -0.03742361 -0.2559849 255 255 255 255 0.357745 0.336287
0.09783098 0.1312998 1.662307 -0.9439435 -0.2819342 -0.1717086 255 255 255 255 0.365225 0.329555
0.101386 0.1336538 1.638903 -0.9439498 -0.2818959 -0.1717367 255 255 255 255 0.362233 0.329629
0.17088 -0.0669662 1.560514 -0.9933558 0.01078338 -0.1145773 255 255 255 255 0.349367 0.335539
0.172129 -0.0924542 1.547285 -0.9933569 0.0107861 -0.1145678 255 255 255 255 0.348545 0.331948
0.163213 -0.07790422 1.625952 -0.8091817 -0.4963889 -0.3143612 255 255 255 255 0.357745 0.336287
0.138253 -0.08594622 1.702899 -0.8091817 -0.4963889 -0.3143612 255 255 255 255 0.367544 0.337857
0.154547 -0.1030462 1.687959 -0.8091817 -0.4963889 -0.3143612 255 255 255 255 0.366197 0.335240
0.09538798 -0.1030902 1.750468 -0.6913427 0.3071406 -0.6539954 255 255 255 255 0.292397 0.317652
0.09244898 -0.07931422 1.764741 -0.6913427 0.3071406 -0.6539954 255 255 255 255 0.293968 0.320794
0.05283299 -0.1174122 1.788727 -0.6913427 0.3071406 -0.6539954 255 255 255 255 0.299653 0.315707
0.000153 -0.1374682 1.774426 7.947152e-05 0.2775199 -0.9607199 255 255 255 255 0.367244 0.327236
0.000153 -0.2145522 1.752159 7.947152e-05 0.2775199 -0.9607199 255 255 255 255 0.367244 0.337035
0.04870799 -0.1231502 1.78084 0.04519534 0.2958493 -0.9541649 255 255 255 255 0.373453 0.325366
0.022538 -0.1228002 1.779709 0.04519534 0.2958493 -0.9541649 255 255 255 255 0.370087 0.325366
0.007015998 -0.1374322 1.774437 0.04519534 0.2958493 -0.9541649 255 255 255 255 0.368142 0.327161
3 1 0 2 
3 3 2 0 
3 5 4 6 
3 7 6 4 
3 9 8 10 
3 11 10 8 
3 13 12 14 
3 15 14 12 
3 12 16 15 
3 17 15 16 
3 19 18 20 
3 22 21 23 
3 24 23 25 
3 23 21 25 
3 25 21 26 
3 28 27 29 
3 20 29 27 
3 31 30 32 
3 32 30 33 
3 33 30 34 
3 36 35 19 
3 18 19 35 
3 37 29 18 
3 20 18 29 
3 39 38 1 
3 40 1 38 
3 17 16 41 
3 42 41 16 
3 10 11 43 
3 44 43 11 
3 46 45 47 
3 1 2 39 
3 31 32 48 
3 50 49 51 
3 52 51 49 
3 54 53 55 
3 56 55 53 
3 58 57 59 
3 60 59 57 
3 62 61 63 
3 64 63 61 
3 66 65 62 
3 61 62 65 
3 68 67 69 
3 71 70 72 
3 72 70 73 
3 73 70 74 
3 74 70 75 
3 77 76 78 
3 80 79 76 
3 82 81 83 
3 81 84 83 
3 67 85 69 
3 86 69 85 
3 87 67 76 
3 88 76 67 
3 90 89 52 
3 91 52 89 
3 66 92 65 
3 93 65 92 
3 59 94 58 
3 95 58 94 
3 97 96 98 
3 91 51 52 
3 100 99 101 
3 102 81 103 
3 105 104 106 
