ply
format ascii 1.0
comment VCGLIB generated
element vertex 107
property float x
property float y
property float z
property float nx
property float ny
property float nz
property uchar red
property uchar green
property uchar blue
property uchar alpha
property float texture_u
property float texture_v
element face 67
property list uchar int vertex_indices
end_header
-0.08474198 -0.07908622 1.762365 -0.6914157 -0.3069025 0.6540299 255 255 255 255 0.866073 0.340572
-0.130931 -0.02502023 1.738878 -0.9147689 -0.02627626 0.4031221 255 255 255 255 0.858593 0.346407
-0.137946 -0.08594622 1.702899 -0.8719944 -0.1706019 0.4588253 255 255 255 255 0.856275 0.337729
-0.08768098 -0.1028642 1.74809 -0.6913461 -0.3071427 0.6539907 255 255 255 255 0.865176 0.337131
-0.05362399 -0.2145662 1.752157 -0.490717 -0.2352109 0.8389712 255 255 255 255 0.862857 0.336907
-0.04840099 -0.1231502 1.78084 -0.4907204 -0.2351826 0.8389771 255 255 255 255 0.862184 0.325238
-0.09563398 -0.1791592 1.737511 -0.490717 -0.2352109 0.8389712 255 255 255 255 0.868168 0.332344
-0.09037898 -0.1981172 1.735269 -0.4907497 -0.2352427 0.8389431 255 255 255 255 0.867495 0.334812
-0.155626 -0.1388652 1.676399 -0.9914577 -0.01083405 0.1299783 255 255 255 255 0.854704 0.330324
-0.15424 -0.1030462 1.687959 -0.9906689 -0.005615064 0.1361751 255 255 255 255 0.854928 0.335111
-0.162907 -0.07790422 1.625952 -0.9924725 -0.01388617 0.1216783 255 255 255 255 0.846476 0.336159
-0.168185 -0.1220732 1.576031 -0.9930544 -0.01342819 0.1168875 255 255 255 255 0.841838 0.329127
-0.129077 0.0984778 1.544044 -0.9492103 0.2653345 0.1691073 255 255 255 255 0.839370 0.323966
-0.159911 0.03172781 1.471745 -0.9510039 0.2627387 0.162972 255 255 255 255 0.830918 0.314766
-0.178669 -0.0501342 1.494272 -0.9510013 0.262768 0.1629405 255 255 255 255 0.834733 0.304593
-0.162345 -0.07196023 1.624728 -0.9502008 0.265574 0.1630613 255 255 255 255 0.851487 0.303322
-0.116267 0.0984148 1.613265 -0.9465448 0.2737858 0.1705704 255 255 255 255 0.848121 0.324789
-0.1257659 0.003194775 1.717416 -0.9489834 0.2710071 0.1612009 255 255 255 255 0.862409 0.313869
-0.127349 -0.02139323 1.738563 -0.002686064 0.3935454 0.9193013 255 255 255 255 0.857546 0.289484
-0.02374399 -0.08702423 1.767058 -3.10004e-05 0.3981802 0.9173072 255 255 255 255 0.870711 0.281106
0.000153 -0.08719822 1.767135 -0.00204506 0.3944636 0.9189093 255 255 255 255 0.873778 0.281106
-0.06999598 -0.1338392 1.762253 -0.6703205 -0.009583264 0.7420099 255 255 255 255 0.858145 0.298386
-0.07318398 -0.1166292 1.759596 -0.6703205 -0.009583264 0.7420099 255 255 255 255 0.857546 0.300554
-0.136873 -0.09519322 1.702336 -0.6703205 -0.009583264 0.7420099 255 255 255 255 0.849243 0.302574
-0.150657 -0.1096622 1.689696 -0.6703358 -0.009583485 0.741996 255 255 255 255 0.847673 0.300554
-0.150657 -0.1766082 1.68883 -0.6703361 -0.009552487 0.7419962 255 255 255 255 0.848421 0.292102
-0.121312 -0.1947072 1.715109 -0.6703528 -0.009522296 0.7419814 255 255 255 255 0.852310 0.290082
0.000153 0.2191998 1.636154 -0.0004580068 0.3927178 0.9196589 255 255 255 255 0.873778 0.320077
-0.03707599 0.2191998 1.636154 0 0.3916864 0.9200988 255 255 255 255 0.868991 0.320077
-0.05243999 0.1986738 1.644892 -0.000671023 0.3923895 0.9197989 255 255 255 255 0.867046 0.317459
-0.05362399 -0.2145662 1.752157 0.0135504 -0.2848984 0.958462 255 255 255 255 0.862857 0.336907
0.000153 -0.2145522 1.752159 3.100095e-05 -0.2775137 0.9607217 255 255 255 255 0.855975 0.336907
-0.006709998 -0.1374322 1.774437 0.01904429 -0.2880997 0.9574111 255 255 255 255 0.856873 0.327033
-0.02223099 -0.1228002 1.779709 0.04312377 -0.3007955 0.9527132 255 255 255 255 0.858818 0.325238
-0.04840099 -0.1231502 1.78084 0.04516854 -0.3014115 0.9524238 255 255 255 255 0.862184 0.325238
-0.04874299 -0.1133382 1.778482 0 0.3982429 0.91728 255 255 255 255 0.867495 0.277815
-0.03244399 -0.1133382 1.778482 0 0.3982176 0.917291 255 255 255 255 0.869589 0.277815
-0.07881498 0.1987498 1.644859 0 0.3916489 0.9201148 255 255 255 255 0.863680 0.317459
-0.133753 -0.01557222 1.702637 -0.95252 0.2682291 0.1440792 255 255 255 255 0.853881 0.346331
-0.162907 -0.07790422 1.625952 -0.9659544 0.0374165 0.2559926 255 255 255 255 0.846476 0.336159
-0.1299819 -0.01677123 1.729797 -0.9525277 0.2682012 0.1440803 255 255 255 255 0.857247 0.347079
-0.09752598 0.1312998 1.662307 -0.9439506 0.2819342 0.1716696 255 255 255 255 0.853956 0.329426
-0.101079 0.1336538 1.638903 -0.9439556 0.2819357 0.1716395 255 255 255 255 0.850964 0.329501
-0.170573 -0.0669662 1.560514 -0.9933571 -0.01077313 0.1145672 255 255 255 255 0.838098 0.335411
-0.171823 -0.0924542 1.547285 -0.9933535 -0.01077309 0.1145978 255 255 255 255 0.837276 0.331820
-0.162907 -0.07790422 1.625952 -0.8091965 0.4963706 0.3143522 255 255 255 255 0.846476 0.336159
-0.15424 -0.1030462 1.687959 -0.8091965 0.4963706 0.3143522 255 255 255 255 0.854928 0.335111
-0.137946 -0.08594622 1.702899 -0.8091965 0.4963706 0.3143522 255 255 255 255 0.856275 0.337729
0.000153 -0.1374682 1.774426 6.100188e-05 -0.2775137 0.9607217 255 255 255 255 0.855975 0.327108
0.08504898 -0.07908622 1.762365 0.6914157 -0.3069025 0.6540299 255 255 255 255 0.377342 0.340700
0.08798797 -0.1028642 1.74809 0.6913597 -0.3071487 0.6539736 255 255 255 255 0.376445 0.337260
0.138253 -0.08594622 1.702899 0.8719944 -0.1706019 0.4588253 255 255 255 255 0.367544 0.337857
0.131238 -0.02502023 1.738878 0.9147696 -0.02624628 0.4031225 255 255 255 255 0.369862 0.346535
0.09594098 -0.1791592 1.737511 0.490717 -0.2352109 0.8389712 255 255 255 255 0.379437 0.332472
0.04870799 -0.1231502 1.78084 0.490717 -0.2352109 0.8389712 255 255 255 255 0.373453 0.325366
0.05392999 -0.2145662 1.752157 0.490717 -0.2352109 0.8389712 255 255 255 255 0.374126 0.337035
0.09068498 -0.1981172 1.735269 0.4907462 -0.2352711 0.8389373 255 255 255 255 0.378764 0.334941
0.1559319 -0.1388652 1.676399 0.9914615 -0.01083409 0.1299489 255 255 255 255 0.365973 0.330453
0.168492 -0.1220732 1.576031 0.9930544 -0.01342819 0.1168875 255 255 255 255 0.353107 0.329255
0.163213 -0.07790422 1.625952 0.9924729 -0.01385517 0.1216783 255 255 255 255 0.357745 0.336287
0.154547 -0.1030462 1.687959 0.9906731 -0.005615088 0.1361447 255 255 255 255 0.366197 0.335240
0.129383 0.0984778 1.544044 0.9492103 0.2653345 0.1691073 255 255 255 255 0.350639 0.324094
0.162651 -0.07196023 1.624728 0.9502008 0.265574 0.1630613 255 255 255 255 0.362756 0.303450
0.178975 -0.0501342 1.494272 0.9510013 0.262768 0.1629405 255 255 255 255 0.346002 0.304722
0.160217 0.03172781 1.471745 0.9510039 0.2627387 0.162972 255 255 255 255 0.342187 0.314894
0.116574 0.0984148 1.613265 0.946548 0.2737557 0.170601 255 255 255 255 0.359390 0.324917
0.126072 0.003194775 1.717416 0.9489788 0.2710058 0.1612301 255 255 255 255 0.373677 0.313997
0.127655 -0.02139323 1.738563 0.002686064 0.3935454 0.9193013 255 255 255 255 0.368815 0.289612
0.000153 -0.08719822 1.767135 3.10004e-05 0.3981802 0.9173072 255 255 255 255 0.385046 0.281234
0.02405099 -0.08702423 1.767058 3.10009e-05 0.3982176 0.917291 255 255 255 255 0.381980 0.281234
0.137179 -0.09519322 1.702336 0.6703205 -0.009583264 0.7420099 255 255 255 255 0.360512 0.302702
0.07348998 -0.1166292 1.759596 0.6703206 -0.009552267 0.7420101 255 255 255 255 0.368815 0.300682
0.07030298 -0.1338392 1.762253 0.6703206 -0.009552267 0.7420101 255 255 255 255 0.369414 0.298514
0.121618 -0.1947072 1.715109 0.6703206 -0.009552267 0.7420101 255 255 255 255 0.363579 0.290211
0.150965 -0.1766082 1.68883 0.6703206 -0.009552267 0.7420101 255 255 255 255 0.359690 0.292230
0.150965 -0.1096622 1.689696 0.6702885 -0.009583251 0.7420388 255 255 255 255 0.358942 0.300682
0.05274699 0.1986738 1.644892 0.000671023 0.3923895 0.9197989 255 255 255 255 0.378314 0.317587
0.03738299 0.2191998 1.636154 0 0.3916864 0.9200988 255 255 255 255 0.380260 0.320205
0.000153 0.2191998 1.636154 0 0.3916864 0.9200988 255 255 255 255 0.385046 0.320205
0.000153 0.2191998 1.636154 0.000641015 0.3930572 0.9195138 255 255 255 255 0.385046 0.320205
0.000153 -0.08719822 1.767135 0.000641015 0.3930572 0.9195138 255 255 255 255 0.385046 0.281234
0.007015998 -0.1374322 1.774437 -0.01727311 -0.2871201 0.9577389 255 255 255 255 0.368142 0.327161
0.000153 -0.2145522 1.752159 -3.100095e-05 -0.2775137 0.9607217 255 255 255 255 0.367244 0.337035
0.05392999 -0.2145662 1.752157 -0.01348922 -0.2850477 0.9584184 255 255 255 255 0.374126 0.337035
0.04870799 -0.1231502 1.78084 -0.04306239 -0.3013119 0.9525529 255 255 255 255 0.373453 0.325366
0.04904999 -0.1133382 1.778482 0 0.3982429 0.91728 255 255 255 255 0.378764 0.277943
0.03275099 -0.1133382 1.778482 0 0.3982176 0.917291 255 255 255 255 0.380858 0.277943
0.07912098 0.1987498 1.644859 0 0.3916489 0.9201148 255 255 255 255 0.374949 0.317587
0.000153 -0.08719822 1.767135 0.003449059 0.3926277 0.919691 255 255 255 255 0.385046 0.281234
0.13406 -0.01557222 1.702637 0.95252 0.2682291 0.1440792 255 255 255 255 0.365150 0.346460
0.130288 -0.01677123 1.729797 0.9524791 0.2683568 0.1441122 255 255 255 255 0.368516 0.347207
0.163213 -0.07790422 1.625952 0.9659618 0.03741678 0.2559646 255 255 255 255 0.357745 0.336287
0.09783098 0.1312998 1.662307 0.9439458 0.2819327 0.1716987 255 255 255 255 0.365225 0.329555
0.101386 0.1336538 1.638903 0.9439569 0.2818751 0.1717317 255 255 255 255 0.362233 0.329629
0.17088 -0.0669662 1.560514 0.9933571 -0.01077313 0.1145672 255 255 255 255 0.349367 0.335539
0.172129 -0.0924542 1.547285 0.9933571 -0.01077313 0.1145672 255 255 255 255 0.348545 0.331948
0.163213 -0.07790422 1.625952 0.809184 0.4963939 0.3143474 255 255 255 255 0.357745 0.336287
0.138253 -0.08594622 1.702899 0.809184 0.4963939 0.3143474 255 255 255 255 0.367544 0.337857
0.154547 -0.1030462 1.687959 0.809184 0.4963939 0.3143474 255 255 255 255 0.366197 0.335240
0.09538798 -0.1030902 1.750468 0.6913461 -0.3071427 0.6539907 255 255 255 255 0.292397 0.317652
0.09244898 -0.07931422 1.764741 0.6913461 -0.3071427 0.6539907 255 255 255 255 0.293968 0.320794
0.05283299 -0.1174122 1.788727 0.6913461 -0.3071427 0.6539907 255 255 255 255 0.299653 0.315707
0.000153 -0.1374682 1.774426 -6.100188e-05 -0.2775137 0.9607217 255 255 255 255 0.367244 0.327236
0.000153 -0.2145522 1.752159 -6.100188e-05 -0.2775137 0.9607217 255 255 255 255 0.367244 0.337035
0.04870799 -0.1231502 1.78084 -0.04516726 -0.2958478 0.9541667 255 255 255 255 0.373453 0.325366
0.022538 -0.1228002 1.779709 -0.04516726 -0.2958478 0.9541667 255 255 255 255 0.370087 0.325366
0.007015998 -0.1374322 1.774437 -0.04516726 -0.2958478 0.9541667 255 255 255 255 0.368142 0.327161
3 0 1 2 
3 2 3 0 
3 4 5 6 
3 6 7 4 
3 8 9 10 
3 10 11 8 
3 12 13 14 
3 14 15 12 
3 16 12 15 
3 15 17 16 
3 18 19 20 
3 21 22 23 
3 23 24 25 
3 21 23 25 
3 21 25 26 
3 27 28 29 
3 29 20 27 
3 30 31 32 
3 30 32 33 
3 30 33 34 
3 35 36 19 
3 19 18 35 
3 29 37 18 
3 18 20 29 
3 38 39 1 
3 1 40 38 
3 16 17 41 
3 41 42 16 
3 11 10 43 
3 43 44 11 
3 45 46 47 
3 2 1 39 
3 32 31 48 
3 49 50 51 
3 51 52 49 
3 53 54 55 
3 55 56 53 
3 57 58 59 
3 59 60 57 
3 61 62 63 
3 63 64 61 
3 65 66 62 
3 62 61 65 
3 67 68 69 
3 70 71 72 
3 70 72 73 
3 70 73 74 
3 70 74 75 
3 76 77 78 
3 79 80 76 
3 81 82 83 
3 84 81 83 
3 85 67 69 
3 69 86 85 
3 67 87 76 
3 76 88 67 
3 89 90 52 
3 52 91 89 
3 92 66 65 
3 65 93 92 
3 94 59 58 
3 58 95 94 
3 96 97 98 
3 51 91 52 
3 99 100 101 
3 81 102 103 
3 104 105 106 
